{"glyphs":{"0":{"ha":716,"x_min":68,"x_max":648,"o":"m 648 351 q 569 84 648 182 q 359 -14 490 -14 q 147 84 227 -14 q 68 351 68 182 l 68 635 q 146 903 68 804 q 357 1002 225 1002 q 569 903 490 1002 q 648 635 648 804 l 648 351 m 509 655 q 469 831 509 767 q 357 896 429 896 q 246 831 286 896 q 207 655 207 767 l 207 332 q 247 155 207 220 q 359 90 287 90 q 470 155 431 90 q 509 332 509 220 l 509 655 z "},"1":{"ha":716,"x_min":125,"x_max":456,"o":"m 456 0 l 318 0 l 318 871 l 125 859 l 125 961 l 456 1002 l 456 0 z "},"2":{"ha":716,"x_min":71,"x_max":657,"o":"m 657 0 l 87 0 l 87 92 l 366 457 q 461 613 435 552 q 488 731 488 674 q 455 851 488 806 q 359 896 422 896 q 249 841 287 896 q 210 701 210 786 l 75 701 l 73 705 q 149 916 71 829 q 359 1002 227 1002 q 557 928 486 1002 q 628 731 628 854 q 585 569 628 648 q 453 378 542 491 l 260 104 l 657 104 l 657 0 z "},"3":{"ha":716,"x_min":65,"x_max":654,"o":"m 354 559 q 464 605 429 559 q 499 728 499 650 q 464 849 499 802 q 359 896 428 896 q 255 849 296 896 q 214 730 214 802 l 79 730 l 78 734 q 156 925 75 848 q 359 1002 237 1002 q 564 930 488 1002 q 640 727 640 859 q 604 599 640 656 q 505 510 568 541 q 615 420 576 481 q 654 273 654 360 q 571 62 654 138 q 359 -14 489 -14 q 154 59 242 -14 q 68 262 65 133 l 70 266 l 203 266 q 247 141 203 191 q 359 90 291 90 q 473 140 431 90 q 515 271 515 190 q 474 410 515 364 q 354 455 433 455 l 259 455 l 259 559 l 354 559 z "},"4":{"ha":716,"x_min":44,"x_max":678,"o":"m 564 337 l 678 337 l 678 232 l 564 232 l 564 0 l 425 0 l 425 232 l 48 232 l 44 309 l 420 987 l 564 987 l 564 337 m 180 337 l 425 337 l 425 797 l 420 798 l 402 756 l 180 337 z "},"5":{"ha":716,"x_min":85,"x_max":652,"o":"m 102 439 l 152 987 l 619 987 l 619 874 l 268 874 l 241 577 q 306 620 268 603 q 393 637 343 636 q 583 553 514 639 q 652 315 652 467 q 580 76 652 167 q 363 -14 508 -14 q 166 55 246 -14 q 89 256 85 125 l 90 260 l 221 262 q 260 135 221 180 q 363 90 300 90 q 475 148 438 90 q 513 314 513 206 q 474 471 513 412 q 364 529 436 529 q 268 504 300 529 q 222 428 236 478 l 102 439 z "},"6":{"ha":716,"x_min":78,"x_max":662,"o":"m 402 1002 q 501 990 454 1002 q 587 959 549 979 l 559 858 q 488 886 524 876 q 402 895 451 895 q 268 819 320 895 q 216 617 216 742 l 216 540 q 304 607 252 583 q 417 631 355 631 q 597 545 532 631 q 662 315 662 458 q 583 76 662 167 q 376 -14 505 -14 q 162 89 246 -14 q 78 370 78 192 l 78 608 q 171 892 78 782 q 402 1002 263 1002 m 372 530 q 276 504 316 530 q 216 432 237 477 l 216 363 q 261 163 216 236 q 376 90 306 90 q 484 153 445 90 q 524 315 524 216 q 484 473 524 415 q 372 530 444 530 z "},"7":{"ha":716,"x_min":55,"x_max":659,"o":"m 659 882 q 444 509 504 684 q 383 108 383 333 l 383 0 l 244 0 l 244 108 q 316 517 244 332 q 523 882 389 703 l 55 882 l 55 987 l 659 987 l 659 882 z "},"8":{"ha":716,"x_min":60,"x_max":659,"o":"m 632 735 q 593 600 632 659 q 490 512 555 541 q 613 418 566 481 q 659 271 659 354 q 577 60 659 135 q 366 -14 494 -14 q 146 60 232 -14 q 60 271 60 135 q 108 418 60 355 q 237 512 155 481 q 128 600 168 541 q 88 735 88 659 q 165 933 88 864 q 366 1002 242 1002 q 558 933 484 1002 q 632 735 632 864 m 520 274 q 475 407 520 355 q 366 458 431 458 q 247 407 294 458 q 200 274 200 355 q 247 140 200 190 q 366 90 294 90 q 476 140 433 90 q 520 274 520 191 m 493 732 q 457 850 493 805 q 366 896 420 896 q 266 852 304 896 q 227 732 227 808 q 266 610 227 656 q 366 564 305 564 q 457 610 422 564 q 493 732 493 656 z "},"9":{"ha":716,"x_min":58,"x_max":637,"o":"m 321 90 q 448 155 399 90 q 497 338 497 220 l 497 433 q 423 360 467 385 q 327 335 378 335 q 130 424 202 335 q 58 663 58 513 q 139 906 58 810 q 341 1002 219 1002 q 555 907 473 1002 q 637 640 637 812 l 637 342 q 548 80 637 175 q 321 -14 460 -14 q 225 -3 274 -14 q 135 28 177 7 l 157 128 q 234 99 196 108 q 321 90 272 90 m 341 437 q 436 467 397 437 q 497 545 476 497 l 497 661 q 456 835 497 774 q 343 896 414 896 q 239 829 279 896 q 198 663 198 763 q 235 500 198 563 q 341 437 273 437 z "},"\u0000":{"ha":305,"x_min":0,"x_max":0,"o":""},"\r":{"ha":305,"x_min":0,"x_max":0,"o":""}," ":{"ha":305,"x_min":0,"x_max":0,"o":""},"!":{"ha":323,"x_min":92,"x_max":232,"o":"m 231 329 l 93 329 l 93 987 l 231 987 l 231 329 m 232 0 l 92 0 l 92 138 l 232 138 l 232 0 z "},"\"":{"ha":478,"x_min":87,"x_max":401,"o":"m 212 818 l 153 645 l 87 645 l 91 812 l 91 987 l 212 987 l 212 818 m 401 818 l 343 645 l 277 645 l 281 816 l 281 987 l 401 987 l 401 818 z "},"#":{"ha":736,"x_min":39,"x_max":690,"o":"m 403 278 l 269 278 l 224 0 l 131 0 l 175 278 l 39 278 l 39 366 l 189 366 l 229 616 l 83 616 l 83 705 l 243 705 l 288 987 l 382 987 l 336 705 l 471 705 l 516 987 l 610 987 l 565 705 l 690 705 l 690 616 l 551 616 l 511 366 l 646 366 l 646 278 l 498 278 l 454 0 l 359 0 l 403 278 m 283 366 l 417 366 l 456 616 l 322 616 l 283 366 z "},"$":{"ha":709,"x_min":72,"x_max":635,"o":"m 497 251 q 465 358 497 316 q 352 437 432 400 q 164 550 226 484 q 103 734 103 616 q 163 916 103 845 q 326 999 222 986 l 326 1143 l 415 1143 l 415 998 q 574 905 517 983 q 631 698 631 827 l 494 698 q 460 840 494 786 q 366 893 426 893 q 272 849 302 893 q 241 735 241 806 q 273 628 241 669 q 389 549 304 588 q 574 435 513 502 q 635 252 635 369 q 573 69 635 138 q 404 -12 511 0 l 404 -142 l 315 -142 l 315 -12 q 140 73 209 0 q 74 287 72 145 l 76 290 l 209 290 q 251 139 209 184 q 358 94 294 94 q 461 137 425 94 q 497 251 497 180 z "},"%":{"ha":929,"x_min":66,"x_max":869,"o":"m 66 798 q 116 943 66 884 q 252 1002 166 1002 q 389 943 338 1002 q 439 798 439 884 l 439 745 q 389 601 439 659 q 254 543 339 543 q 117 601 167 543 q 66 745 66 659 l 66 798 m 164 745 q 187 659 164 694 q 254 624 210 624 q 318 659 295 624 q 341 745 341 694 l 341 798 q 318 884 341 848 q 252 920 294 920 q 187 884 210 920 q 164 798 164 848 l 164 745 m 496 242 q 547 387 496 328 q 683 446 597 446 q 819 387 769 446 q 869 242 869 329 l 869 189 q 819 44 869 102 q 684 -14 769 -14 q 547 44 597 -14 q 496 189 496 102 l 496 242 m 594 189 q 618 103 594 139 q 684 67 642 67 q 750 102 728 67 q 772 189 772 136 l 772 242 q 749 329 772 294 q 683 364 726 364 q 617 329 640 364 q 594 242 594 294 l 594 189 m 298 77 l 227 119 l 642 891 l 713 848 l 298 77 z "},"&":{"ha":806,"x_min":45,"x_max":779,"o":"m 45 260 q 88 406 45 343 q 216 534 131 468 q 147 654 170 600 q 125 763 125 707 q 186 940 125 878 q 353 1002 247 1002 q 507 941 448 1002 q 566 793 566 880 q 538 679 566 726 q 456 586 510 631 l 380 525 l 581 260 l 585 261 q 619 351 607 300 q 631 458 631 401 l 748 458 q 725 293 748 368 q 657 160 703 218 l 779 0 l 616 0 l 563 71 q 455 7 512 29 q 333 -14 397 -14 q 123 61 201 -14 q 45 260 45 137 m 337 90 q 422 106 380 90 q 501 153 465 122 l 282 445 l 268 433 q 202 342 219 385 q 185 263 185 300 q 225 139 185 189 q 337 90 265 90 m 254 764 q 270 693 254 730 q 315 612 285 656 l 385 667 q 432 724 420 694 q 445 789 445 753 q 420 865 445 833 q 351 896 395 896 q 280 858 305 896 q 254 764 254 820 z "},"'":{"ha":277,"x_min":73,"x_max":206,"o":"m 206 834 l 147 645 l 73 645 l 76 825 l 76 987 l 206 987 l 206 834 z "},"(":{"ha":412,"x_min":79,"x_max":394,"o":"m 79 400 q 169 848 79 657 q 365 1101 259 1039 l 369 1101 l 394 1027 q 260 794 317 958 q 204 401 204 630 l 204 388 q 260 -4 204 159 q 394 -241 317 -168 l 369 -310 l 365 -310 q 169 -60 258 -248 q 79 389 79 129 l 79 400 z "},")":{"ha":415,"x_min":16,"x_max":336,"o":"m 336 389 q 244 -58 336 132 q 46 -310 153 -248 l 42 -310 l 16 -241 q 150 -6 92 -172 q 207 388 207 159 l 207 401 q 148 794 207 628 q 16 1031 90 961 l 42 1101 l 46 1101 q 244 847 153 1040 q 336 400 336 655 l 336 389 z "},"*":{"ha":538,"x_min":46,"x_max":493,"o":"m 193 468 l 46 518 l 75 611 l 225 552 l 223 733 l 319 733 l 319 548 l 463 608 l 493 515 l 344 462 l 435 317 l 357 259 l 266 412 l 178 263 l 98 319 l 193 468 z "},"+":{"ha":703,"x_min":45,"x_max":654,"o":"m 416 525 l 654 525 l 654 407 l 416 407 l 416 99 l 281 99 l 281 407 l 45 407 l 45 525 l 281 525 l 281 818 l 416 818 l 416 525 z "},",":{"ha":281,"x_min":39,"x_max":216,"o":"m 216 16 l 127 -184 l 39 -184 l 80 21 l 80 146 l 216 146 l 216 16 z "},"-":{"ha":534,"x_min":93,"x_max":437,"o":"m 437 368 l 93 368 l 93 473 l 437 473 l 437 368 z "},".":{"ha":339,"x_min":94,"x_max":233,"o":"m 233 0 l 94 0 l 94 138 l 233 138 l 233 0 z "},"/":{"ha":495,"x_min":6,"x_max":467,"o":"m 134 -85 l 6 -85 l 338 987 l 467 987 l 134 -85 z "},":":{"ha":325,"x_min":94,"x_max":233,"o":"m 233 0 l 94 0 l 94 138 l 233 138 l 233 0 m 233 594 l 94 594 l 94 732 l 233 732 l 233 594 z "},";":{"ha":321,"x_min":74,"x_max":250,"o":"m 233 594 l 94 594 l 94 732 l 233 732 l 233 594 m 250 16 l 162 -184 l 74 -184 l 115 21 l 115 146 l 250 146 l 250 16 z "},"<":{"ha":617,"x_min":41,"x_max":531,"o":"m 189 385 l 144 375 l 144 371 l 189 361 l 531 199 l 531 68 l 41 323 l 41 426 l 531 680 l 531 549 l 189 385 z "},"=":{"ha":690,"x_min":88,"x_max":593,"o":"m 593 548 l 88 548 l 88 656 l 593 656 l 593 548 m 593 264 l 88 264 l 88 373 l 593 373 l 593 264 z "},">":{"ha":629,"x_min":77,"x_max":581,"o":"m 77 544 l 77 671 l 581 418 l 581 315 l 77 60 l 77 189 l 433 356 l 476 365 l 476 369 l 433 379 l 77 544 z "},"?":{"ha":588,"x_min":31,"x_max":545,"o":"m 203 277 q 223 406 204 367 q 306 509 241 446 q 381 619 355 570 q 407 734 407 668 q 375 851 407 809 q 286 892 344 892 q 202 854 236 892 q 168 748 168 816 l 35 748 l 33 752 q 102 935 31 869 q 286 1002 174 1002 q 476 930 407 1002 q 545 736 545 859 q 503 576 545 648 q 393 435 462 504 q 351 369 359 400 q 342 277 342 337 l 203 277 m 345 0 l 203 0 l 203 134 l 345 134 l 345 0 z "},"@":{"ha":1126,"x_min":50,"x_max":1072,"o":"m 1063 345 q 987 92 1057 199 q 780 -14 918 -14 q 699 16 732 -14 q 652 102 665 47 q 580 15 623 44 q 481 -14 537 -14 q 356 68 399 -14 q 323 282 312 149 q 409 560 338 455 q 583 665 481 665 q 689 647 649 665 q 777 592 728 629 l 775 590 l 779 590 l 747 199 q 759 92 742 121 q 803 63 776 63 q 923 142 878 63 q 972 345 967 222 q 886 743 983 600 q 587 885 790 885 q 284 731 399 885 q 160 324 169 577 q 252 -76 149 73 q 546 -226 355 -226 q 654 -212 599 -226 q 747 -174 709 -197 l 770 -247 q 667 -291 730 -275 q 544 -307 604 -307 q 178 -138 307 -307 q 60 324 50 31 q 215 788 72 612 q 590 964 357 964 q 948 799 825 964 q 1063 345 1072 633 m 438 282 q 451 132 431 186 q 515 78 471 78 q 586 99 554 78 q 644 177 618 121 q 644 186 644 181 q 645 199 644 191 l 673 562 q 640 574 657 569 q 604 578 623 578 q 490 505 530 578 q 438 282 450 431 z "},"A":{"ha":764,"x_min":22,"x_max":745,"o":"m 531 250 l 236 250 l 165 0 l 22 0 l 318 987 l 452 987 l 745 0 l 602 0 l 531 250 m 267 359 l 500 359 l 387 760 l 382 760 l 267 359 z "},"B":{"ha":766,"x_min":94,"x_max":717,"o":"m 94 0 l 94 987 l 368 987 q 589 921 509 987 q 669 722 669 854 q 634 599 669 652 q 538 520 600 545 q 670 438 624 506 q 717 279 717 371 q 638 72 717 143 q 422 0 560 0 l 94 0 m 232 460 l 232 104 l 422 104 q 538 150 497 104 q 578 279 578 195 q 539 409 578 360 q 427 460 499 458 l 420 460 l 232 460 m 232 559 l 389 559 q 493 603 455 562 q 530 719 530 644 q 489 841 530 800 q 368 882 448 882 l 232 882 l 232 559 z "},"C":{"ha":768,"x_min":68,"x_max":717,"o":"m 712 297 l 713 293 q 632 66 716 147 q 401 -14 548 -14 q 159 83 249 -14 q 68 356 68 180 l 68 630 q 157 903 68 805 q 396 1002 246 1002 q 632 923 547 1002 q 714 694 717 845 l 713 690 l 581 690 q 534 846 581 796 q 396 896 488 896 q 256 828 305 896 q 206 632 206 760 l 206 356 q 257 159 206 227 q 401 90 308 90 q 535 139 490 90 q 580 297 580 189 l 712 297 z "},"D":{"ha":808,"x_min":94,"x_max":737,"o":"m 94 0 l 94 987 l 374 987 q 636 869 534 987 q 737 564 737 750 l 737 423 q 636 118 737 236 q 374 0 534 0 l 94 0 m 232 882 l 232 104 l 374 104 q 537 194 476 104 q 598 423 598 283 l 598 565 q 537 792 598 703 q 374 882 476 882 l 232 882 z "},"E":{"ha":671,"x_min":94,"x_max":627,"o":"m 567 458 l 232 458 l 232 104 l 627 104 l 627 0 l 94 0 l 94 987 l 623 987 l 623 882 l 232 882 l 232 564 l 567 564 l 567 458 z "},"F":{"ha":670,"x_min":94,"x_max":637,"o":"m 577 439 l 232 439 l 232 0 l 94 0 l 94 987 l 637 987 l 637 882 l 232 882 l 232 544 l 577 544 l 577 439 z "},"G":{"ha":812,"x_min":70,"x_max":724,"o":"m 724 129 q 612 29 689 73 q 414 -14 535 -14 q 164 80 259 -14 q 70 349 70 174 l 70 642 q 161 907 70 813 q 405 1002 253 1002 q 636 924 555 1002 q 715 713 718 847 l 713 709 l 584 709 q 539 847 584 798 q 408 896 494 896 q 261 831 315 896 q 208 643 208 766 l 208 349 q 263 156 208 222 q 414 90 319 90 q 525 112 484 90 q 586 165 567 134 l 586 395 l 404 395 l 404 495 l 724 495 l 724 129 z "},"H":{"ha":850,"x_min":94,"x_max":756,"o":"m 756 0 l 618 0 l 618 435 l 232 435 l 232 0 l 94 0 l 94 987 l 232 987 l 232 541 l 618 541 l 618 987 l 756 987 l 756 0 z "},"I":{"ha":351,"x_min":106,"x_max":244,"o":"m 244 0 l 106 0 l 106 987 l 244 987 l 244 0 z "},"J":{"ha":668,"x_min":35,"x_max":576,"o":"m 437 987 l 576 987 l 576 292 q 501 69 576 152 q 309 -14 427 -14 q 109 59 183 -14 q 38 274 35 133 l 40 278 l 172 278 q 209 136 172 182 q 309 90 245 90 q 401 145 366 90 q 437 292 437 199 l 437 987 z "},"K":{"ha":766,"x_min":94,"x_max":758,"o":"m 300 444 l 232 444 l 232 0 l 94 0 l 94 987 l 232 987 l 232 555 l 290 555 l 566 987 l 732 987 l 407 524 l 758 0 l 583 0 l 300 444 z "},"L":{"ha":669,"x_min":94,"x_max":631,"o":"m 232 104 l 631 104 l 631 0 l 94 0 l 94 987 l 232 987 l 232 104 z "},"M":{"ha":1013,"x_min":90,"x_max":923,"o":"m 506 182 l 510 182 l 747 987 l 923 987 l 923 0 l 786 0 l 786 711 l 782 712 l 555 0 l 461 0 l 231 723 l 227 722 l 227 0 l 90 0 l 90 987 l 270 987 l 506 182 z "},"N":{"ha":851,"x_min":94,"x_max":757,"o":"m 757 0 l 618 0 l 236 728 l 232 727 l 232 0 l 94 0 l 94 987 l 232 987 l 614 261 l 618 262 l 618 987 l 757 987 l 757 0 z "},"O":{"ha":826,"x_min":66,"x_max":759,"o":"m 759 357 q 664 84 759 182 q 410 -14 569 -14 q 159 84 252 -14 q 66 357 66 182 l 66 629 q 159 903 66 804 q 409 1002 252 1002 q 664 903 568 1002 q 759 629 759 804 l 759 357 m 622 631 q 567 826 622 760 q 409 893 511 893 q 257 826 310 893 q 203 631 203 760 l 203 357 q 257 160 203 227 q 410 93 311 93 q 567 160 512 93 q 622 357 622 227 l 622 631 z "},"P":{"ha":766,"x_min":94,"x_max":715,"o":"m 232 389 l 232 0 l 94 0 l 94 987 l 415 987 q 635 905 555 987 q 715 688 715 823 q 635 471 715 553 q 415 389 555 389 l 232 389 m 232 495 l 415 495 q 536 550 495 495 q 578 687 578 604 q 537 826 578 770 q 415 882 496 882 l 232 882 l 232 495 z "},"Q":{"ha":844,"x_min":66,"x_max":814,"o":"m 759 357 q 741 223 759 284 q 691 117 724 163 l 814 -20 l 723 -99 l 601 34 q 513 -2 561 9 q 410 -14 465 -14 q 159 84 252 -14 q 66 357 66 182 l 66 629 q 159 903 66 804 q 409 1002 252 1002 q 664 903 568 1002 q 759 629 759 804 l 759 357 m 622 631 q 567 826 622 760 q 409 893 511 893 q 257 826 310 893 q 203 631 203 760 l 203 357 q 257 160 203 227 q 410 93 311 93 q 567 160 512 93 q 622 357 622 227 l 622 631 z "},"R":{"ha":772,"x_min":94,"x_max":725,"o":"m 231 425 l 231 0 l 94 0 l 94 987 l 385 987 q 605 914 527 987 q 682 706 682 842 q 646 571 682 629 q 542 481 610 513 q 651 395 618 455 q 685 248 685 336 l 685 161 q 694 77 685 116 q 725 16 703 37 l 725 0 l 583 0 q 553 68 560 22 q 546 163 546 114 l 546 246 q 508 377 546 329 q 401 425 469 425 l 231 425 m 231 530 l 378 530 q 504 575 463 530 q 545 703 545 621 q 505 835 545 788 q 385 882 465 882 l 231 882 l 231 530 z "},"S":{"ha":742,"x_min":58,"x_max":682,"o":"m 545 248 q 506 360 545 316 q 370 439 467 404 q 156 551 231 483 q 81 734 81 620 q 164 926 81 850 q 375 1002 246 1002 q 595 918 512 1002 q 675 707 677 833 l 673 703 l 541 703 q 495 843 541 789 q 374 897 449 897 q 260 850 300 897 q 220 735 220 804 q 262 629 220 671 q 406 549 305 587 q 612 434 541 505 q 682 250 682 363 q 599 57 682 129 q 381 -14 516 -14 q 155 63 251 -14 q 62 285 58 140 l 63 289 l 196 289 q 249 139 196 189 q 381 90 302 90 q 501 133 458 90 q 545 248 545 176 z "},"T":{"ha":709,"x_min":25,"x_max":685,"o":"m 685 882 l 423 882 l 423 0 l 285 0 l 285 882 l 25 882 l 25 987 l 685 987 l 685 882 z "},"U":{"ha":823,"x_min":83,"x_max":741,"o":"m 741 987 l 741 334 q 648 78 741 170 q 409 -14 556 -14 q 174 78 264 -14 q 83 334 83 171 l 83 987 l 221 987 l 221 334 q 273 155 221 220 q 409 90 325 90 q 549 155 496 90 q 602 334 602 219 l 602 987 l 741 987 z "},"V":{"ha":764,"x_min":14,"x_max":751,"o":"m 366 227 l 380 166 l 384 166 l 398 226 l 604 987 l 751 987 l 449 0 l 315 0 l 14 987 l 160 987 l 366 227 z "},"W":{"ha":1053,"x_min":22,"x_max":1030,"o":"m 753 286 l 758 286 l 886 987 l 1030 987 l 827 0 l 701 0 l 528 701 l 524 701 l 351 0 l 224 0 l 22 987 l 167 987 l 296 287 l 300 287 l 466 987 l 586 987 l 753 286 z "},"X":{"ha":764,"x_min":32,"x_max":739,"o":"m 380 602 l 384 602 l 565 987 l 728 987 l 466 498 l 739 0 l 573 0 l 386 395 l 382 395 l 195 0 l 32 0 l 300 498 l 39 987 l 200 987 l 380 602 z "},"Y":{"ha":764,"x_min":19,"x_max":744,"o":"m 379 506 l 383 506 l 589 987 l 744 987 l 448 355 l 448 0 l 310 0 l 310 366 l 19 987 l 172 987 l 379 506 z "},"Z":{"ha":682,"x_min":53,"x_max":631,"o":"m 200 104 l 631 104 l 631 0 l 53 0 l 53 85 l 469 882 l 57 882 l 57 987 l 616 987 l 616 905 l 200 104 z "},"[":{"ha":344,"x_min":87,"x_max":330,"o":"m 330 1030 l 227 1030 l 227 -113 l 330 -113 l 330 -216 l 87 -216 l 87 1134 l 330 1134 l 330 1030 z "},"\\":{"ha":505,"x_min":17,"x_max":505,"o":"m 17 987 l 151 987 l 505 -85 l 371 -85 l 17 987 z "},"]":{"ha":344,"x_min":10,"x_max":254,"o":"m 10 1134 l 254 1134 l 254 -216 l 10 -216 l 10 -113 l 114 -113 l 114 1030 l 10 1030 l 10 1134 z "},"^":{"ha":520,"x_min":36,"x_max":483,"o":"m 153 494 l 36 494 l 210 987 l 309 987 l 483 494 l 367 494 l 268 795 l 260 831 l 256 831 l 249 795 l 153 494 z "},"_":{"ha":544,"x_min":5,"x_max":537,"o":"m 537 -103 l 5 -103 l 5 0 l 537 0 l 537 -103 z "},"`":{"ha":404,"x_min":47,"x_max":325,"o":"m 325 849 l 205 849 l 47 1026 l 49 1029 l 208 1029 l 325 849 z "},"a":{"ha":656,"x_min":51,"x_max":600,"o":"m 460 0 q 447 59 452 33 q 440 111 441 85 q 363 21 411 57 q 254 -14 315 -14 q 103 44 156 -14 q 51 203 51 102 q 124 367 51 307 q 327 427 197 427 l 439 427 l 439 502 q 410 607 439 569 q 324 644 380 644 q 244 612 274 644 q 215 528 215 579 l 83 528 l 82 532 q 149 682 78 617 q 333 747 219 747 q 510 683 442 747 q 578 500 578 619 l 578 160 q 583 78 578 118 q 600 0 589 39 l 460 0 m 283 92 q 382 126 339 92 q 439 211 426 161 l 439 341 l 325 341 q 225 301 261 341 q 189 203 189 260 q 214 122 189 153 q 283 92 238 92 z "},"b":{"ha":684,"x_min":79,"x_max":631,"o":"m 631 344 q 567 83 631 181 q 385 -14 503 -14 q 281 13 326 -14 q 208 91 237 39 l 193 0 l 79 0 l 79 1058 l 218 1058 l 218 654 q 288 723 247 699 q 385 747 330 747 q 567 641 503 747 q 631 358 631 535 l 631 344 m 492 358 q 458 563 492 486 q 350 640 425 640 q 269 612 302 640 q 218 537 237 585 l 218 190 q 269 118 236 143 q 351 92 302 92 q 459 160 425 92 q 492 344 492 227 l 492 358 z "},"c":{"ha":629,"x_min":51,"x_max":582,"o":"m 334 90 q 419 130 385 90 q 454 236 454 169 l 578 236 l 579 232 q 509 57 582 128 q 334 -14 437 -14 q 125 89 199 -14 q 51 353 51 193 l 51 379 q 125 643 51 539 q 334 747 199 747 q 513 673 444 747 q 580 480 582 599 l 578 477 l 454 477 q 421 596 454 550 q 334 642 388 642 q 223 567 257 642 q 189 379 189 492 l 189 353 q 222 164 189 238 q 334 90 256 90 z "},"d":{"ha":684,"x_min":54,"x_max":602,"o":"m 54 358 q 118 641 54 534 q 299 747 182 747 q 393 724 351 747 q 464 656 434 701 l 464 1058 l 602 1058 l 602 0 l 488 0 l 473 88 q 399 12 443 38 q 298 -14 355 -14 q 118 84 182 -14 q 54 344 54 182 l 54 358 m 191 344 q 225 160 191 229 q 333 92 260 92 q 411 117 379 92 q 464 186 444 141 l 464 541 q 411 613 444 587 q 334 640 378 640 q 225 562 260 640 q 191 358 191 484 l 191 344 z "},"e":{"ha":633,"x_min":52,"x_max":588,"o":"m 345 -14 q 130 86 208 -14 q 52 347 52 186 l 52 379 q 130 644 52 541 q 332 747 207 747 q 523 659 457 747 q 588 420 588 570 l 588 342 l 190 342 q 230 160 190 230 q 354 90 271 90 q 454 108 412 90 q 533 161 497 126 l 578 75 q 481 12 541 37 q 345 -14 421 -14 m 332 642 q 237 586 272 642 q 193 440 201 531 l 452 440 l 452 456 q 423 590 452 538 q 332 642 393 642 z "},"f":{"ha":413,"x_min":28,"x_max":429,"o":"m 125 0 l 125 635 l 28 635 l 28 734 l 125 734 l 125 828 q 182 1008 125 945 q 340 1072 239 1072 q 382 1068 361 1072 q 429 1058 404 1065 l 416 957 q 389 962 403 960 q 357 964 374 964 q 287 929 311 964 q 263 828 263 894 l 263 734 l 385 734 l 385 635 l 263 635 l 263 0 l 125 0 z "},"g":{"ha":684,"x_min":56,"x_max":605,"o":"m 56 358 q 121 641 56 534 q 302 747 185 747 q 403 720 359 747 q 477 642 447 692 l 490 734 l 605 734 l 605 -1 q 530 -219 605 -142 q 317 -296 454 -296 q 217 -282 271 -296 q 121 -243 164 -268 l 144 -140 q 225 -173 181 -161 q 316 -185 269 -185 q 430 -139 393 -185 q 467 -1 467 -94 l 467 72 q 396 7 437 29 q 301 -14 355 -14 q 121 84 185 -14 q 56 344 56 182 l 56 358 m 195 344 q 229 160 195 228 q 336 92 262 92 q 415 116 382 92 q 467 183 447 140 l 467 544 q 415 614 447 589 q 337 640 382 640 q 229 562 264 640 q 195 358 195 484 l 195 344 z "},"h":{"ha":684,"x_min":77,"x_max":606,"o":"m 216 635 q 292 718 247 688 q 394 747 338 747 q 550 674 494 747 q 606 449 606 601 l 606 0 l 468 0 l 468 450 q 439 596 468 551 q 353 640 410 640 q 271 617 305 640 q 216 553 237 594 l 216 0 l 77 0 l 77 1058 l 216 1058 l 216 635 z "},"i":{"ha":315,"x_min":88,"x_max":227,"o":"m 227 0 l 88 0 l 88 734 l 227 734 l 227 0 m 227 926 l 88 926 l 88 1058 l 227 1058 l 227 926 z "},"j":{"ha":319,"x_min":-46,"x_max":232,"o":"m 232 734 l 232 -50 q 178 -232 232 -168 q 27 -296 123 -296 q -10 -293 7 -296 q -46 -284 -26 -290 l -38 -179 q -13 -186 -27 -183 q 14 -189 1 -189 q 73 -154 51 -189 q 94 -50 94 -120 l 94 734 l 232 734 m 229 928 l 90 928 l 90 1058 l 229 1058 l 229 928 z "},"k":{"ha":633,"x_min":80,"x_max":629,"o":"m 269 336 l 218 336 l 218 0 l 80 0 l 80 1058 l 218 1058 l 218 441 l 266 441 l 442 734 l 604 734 l 380 400 l 629 0 l 468 0 l 269 336 z "},"l":{"ha":315,"x_min":88,"x_max":227,"o":"m 227 0 l 88 0 l 88 1058 l 227 1058 l 227 0 z "},"m":{"ha":1049,"x_min":79,"x_max":970,"o":"m 205 734 l 213 634 q 291 718 243 688 q 400 747 338 747 q 506 714 461 747 q 573 612 551 680 q 651 711 602 675 q 765 747 699 747 q 915 670 861 747 q 970 433 970 592 l 970 0 l 831 0 l 831 434 q 803 594 831 549 q 718 640 774 640 q 638 605 671 640 q 591 512 606 570 q 593 487 592 500 q 593 460 593 473 l 593 0 l 456 0 l 456 434 q 427 592 456 545 q 342 640 397 640 q 266 616 297 640 q 217 549 235 591 l 217 0 l 79 0 l 79 734 l 205 734 z "},"n":{"ha":684,"x_min":78,"x_max":606,"o":"m 204 734 l 212 625 q 291 715 243 683 q 399 747 338 747 q 551 675 496 747 q 606 452 606 604 l 606 0 l 468 0 l 468 451 q 439 597 468 555 q 352 640 410 640 q 271 615 304 640 q 216 547 237 591 l 216 0 l 78 0 l 78 734 l 204 734 z "},"o":{"ha":684,"x_min":52,"x_max":631,"o":"m 52 375 q 129 643 52 538 q 341 747 206 747 q 554 643 476 747 q 631 375 631 538 l 631 357 q 554 89 631 193 q 342 -14 477 -14 q 129 89 206 -14 q 52 357 52 193 l 52 375 m 190 357 q 228 165 190 239 q 342 90 265 90 q 455 165 418 90 q 493 357 493 240 l 493 375 q 455 566 493 490 q 341 642 417 642 q 228 566 265 642 q 190 375 190 490 l 190 357 z "},"p":{"ha":684,"x_min":79,"x_max":630,"o":"m 630 344 q 565 83 630 181 q 385 -14 500 -14 q 289 7 330 -14 q 218 70 247 28 l 218 -282 l 79 -282 l 79 734 l 197 734 l 210 646 q 283 721 239 695 q 384 747 326 747 q 565 641 500 747 q 630 358 630 534 l 630 344 m 492 358 q 455 562 492 483 q 347 640 419 640 q 269 615 300 640 q 218 546 237 589 l 218 176 q 269 113 237 135 q 347 90 300 90 q 456 159 420 90 q 492 344 492 229 l 492 358 z "},"q":{"ha":684,"x_min":54,"x_max":598,"o":"m 54 358 q 118 641 54 534 q 299 747 182 747 q 397 722 355 747 q 470 648 440 696 l 485 734 l 598 734 l 598 -282 l 460 -282 l 460 66 q 390 6 431 26 q 298 -14 350 -14 q 118 84 182 -14 q 54 344 54 182 l 54 358 m 191 344 q 225 159 191 228 q 333 90 260 90 q 408 112 377 90 q 460 175 439 134 l 460 553 q 409 618 440 594 q 334 642 377 642 q 225 563 260 642 q 191 358 191 484 l 191 344 z "},"r":{"ha":427,"x_min":79,"x_max":410,"o":"m 394 619 l 334 623 q 262 596 291 623 q 218 523 233 570 l 218 0 l 79 0 l 79 734 l 206 734 l 216 625 q 278 715 240 683 q 366 747 316 747 q 390 745 378 747 q 410 739 401 743 l 394 619 z "},"s":{"ha":612,"x_min":43,"x_max":563,"o":"m 427 185 q 399 257 427 228 q 290 321 370 286 q 120 414 176 364 q 64 543 64 465 q 132 688 64 628 q 309 747 200 747 q 492 682 422 747 q 558 524 561 616 l 557 519 l 424 519 q 393 609 424 572 q 309 647 362 647 q 227 617 256 647 q 197 549 197 588 q 223 483 197 507 q 332 420 248 458 q 505 326 447 380 q 563 192 563 273 q 493 43 563 100 q 309 -14 422 -14 q 114 55 185 -14 q 47 216 43 123 l 48 220 l 176 220 q 217 117 179 149 q 311 85 254 85 q 396 114 366 85 q 427 185 427 142 z "},"t":{"ha":416,"x_min":21,"x_max":379,"o":"m 256 916 l 256 734 l 371 734 l 371 635 l 256 635 l 256 199 q 274 118 256 142 q 319 94 291 94 q 341 96 331 94 q 365 102 351 98 l 379 7 q 335 -8 359 -3 q 286 -14 311 -14 q 162 37 206 -14 q 118 199 118 88 l 118 635 l 21 635 l 21 734 l 118 734 l 118 916 l 256 916 z "},"u":{"ha":684,"x_min":76,"x_max":605,"o":"m 474 107 q 398 17 444 49 q 291 -14 352 -14 q 133 64 190 -14 q 76 306 76 142 l 76 734 l 214 734 l 214 304 q 241 139 214 186 q 324 92 269 92 q 411 116 375 92 q 467 184 446 140 l 467 734 l 605 734 l 605 0 l 488 0 l 474 107 z "},"v":{"ha":612,"x_min":22,"x_max":593,"o":"m 295 220 l 307 163 l 311 163 l 323 220 l 451 734 l 593 734 l 370 0 l 247 0 l 22 734 l 165 734 l 295 220 z "},"w":{"ha":901,"x_min":27,"x_max":869,"o":"m 633 239 l 637 239 l 731 734 l 869 734 l 699 0 l 585 0 l 449 476 l 445 476 l 313 0 l 199 0 l 27 734 l 165 734 l 261 245 l 265 245 l 399 734 l 498 734 l 633 239 z "},"x":{"ha":612,"x_min":24,"x_max":590,"o":"m 302 466 l 307 466 l 425 734 l 583 734 l 385 372 l 590 0 l 433 0 l 309 277 l 304 277 l 181 0 l 24 0 l 228 372 l 30 734 l 186 734 l 302 466 z "},"y":{"ha":612,"x_min":14,"x_max":598,"o":"m 288 253 l 299 203 l 303 203 l 447 734 l 598 734 l 336 -114 q 266 -243 311 -189 q 137 -296 221 -296 q 100 -293 120 -296 q 62 -284 81 -289 l 77 -182 q 97 -185 84 -184 q 118 -186 111 -186 q 182 -152 159 -186 q 220 -71 206 -118 l 245 5 l 14 734 l 164 734 l 288 253 z "},"z":{"ha":612,"x_min":54,"x_max":566,"o":"m 208 104 l 566 104 l 566 0 l 54 0 l 54 87 l 392 627 l 61 627 l 61 734 l 550 734 l 550 648 l 208 104 z "},"{":{"ha":408,"x_min":37,"x_max":387,"o":"m 359 -257 q 198 -139 246 -220 q 151 58 151 -58 l 151 201 q 123 320 151 277 q 37 363 95 363 l 37 462 q 123 504 95 462 q 151 622 151 545 l 151 768 q 198 965 151 884 q 359 1083 245 1046 l 387 1006 q 304 920 328 981 q 280 768 280 859 l 280 622 q 253 495 280 550 q 170 412 225 441 q 253 328 225 382 q 280 201 280 273 l 280 58 q 304 -93 280 -33 q 387 -179 329 -154 l 359 -257 z "},"|":{"ha":304,"x_min":90,"x_max":210,"o":"m 210 -183 l 90 -183 l 90 987 l 210 987 l 210 -183 z "},"}":{"ha":408,"x_min":20,"x_max":369,"o":"m 20 -179 q 102 -93 77 -154 q 127 58 127 -33 l 127 201 q 155 329 127 275 q 241 412 183 384 q 155 493 183 439 q 127 622 127 548 l 127 768 q 102 919 127 858 q 20 1006 77 981 l 47 1083 q 207 965 159 1046 q 255 768 255 884 l 255 622 q 283 504 255 546 q 369 462 311 462 l 369 363 q 283 320 311 363 q 255 201 255 277 l 255 58 q 207 -139 255 -58 q 47 -257 159 -220 l 20 -179 z "},"~":{"ha":802,"x_min":73,"x_max":728,"o":"m 728 505 q 677 341 728 409 q 550 273 627 273 q 457 296 499 273 q 366 369 415 319 q 308 419 333 403 q 255 435 283 435 q 195 397 220 435 q 171 302 171 359 l 73 316 q 123 478 73 412 q 251 545 173 545 q 343 520 300 545 q 435 449 387 496 q 491 398 466 414 q 545 382 517 382 q 605 422 580 382 q 630 519 630 461 l 728 505 z "}," ":{"ha":305,"x_min":0,"x_max":0,"o":"z "},"¡":{"ha":323,"x_min":88,"x_max":228,"o":"m 227 -254 l 89 -254 l 89 404 l 227 404 l 227 -254 m 228 589 l 88 589 l 88 734 l 228 734 l 228 589 z "},"¢":{"ha":681,"x_min":51,"x_max":583,"o":"m 334 90 q 419 130 385 90 q 454 236 454 169 l 583 236 q 532 84 583 149 q 404 -4 481 18 l 404 -166 l 292 -166 l 292 -11 q 113 105 176 5 q 51 353 51 206 l 51 379 q 113 626 51 525 q 292 744 176 727 l 292 894 l 404 894 l 404 739 q 534 647 486 716 q 583 477 583 577 l 454 477 q 421 596 454 550 q 334 642 388 642 q 223 567 257 642 q 189 379 189 492 l 189 353 q 222 164 189 238 q 334 90 256 90 z "},"£":{"ha":711,"x_min":52,"x_max":662,"o":"m 288 419 l 292 323 q 275 203 292 260 q 228 104 258 146 l 662 104 l 662 0 l 89 0 l 89 104 l 94 104 q 138 181 123 113 q 153 321 153 249 l 150 419 l 52 419 l 52 524 l 146 524 l 140 703 q 208 922 140 842 q 389 1002 275 1002 q 574 929 509 1002 q 637 738 640 857 l 635 734 l 503 734 q 471 857 503 817 q 389 896 439 896 q 308 845 338 896 q 279 703 279 794 l 285 524 l 511 524 l 511 419 l 288 419 z "},"¤":{"ha":888,"x_min":61,"x_max":833,"o":"m 670 77 q 565 10 623 33 q 446 -14 508 -14 q 326 9 383 -14 q 222 75 269 32 l 140 -18 l 61 62 l 150 163 q 100 279 117 216 q 83 412 83 342 q 101 549 83 484 q 155 669 119 614 l 61 776 l 140 857 l 230 755 q 331 815 275 794 q 446 837 386 837 q 561 815 506 837 q 663 754 616 793 l 753 858 l 833 776 l 737 667 q 789 548 770 613 q 808 412 808 484 q 790 281 808 344 q 742 165 773 218 l 833 62 l 753 -18 l 670 77 m 186 412 q 262 184 186 278 q 446 90 338 90 q 628 184 553 90 q 704 412 704 278 q 628 639 704 545 q 446 732 553 732 q 262 639 338 732 q 186 412 186 545 z "},"¥":{"ha":735,"x_min":20,"x_max":711,"o":"m 364 557 l 368 557 l 557 987 l 711 987 l 470 492 l 641 492 l 641 410 l 433 410 l 433 294 l 641 294 l 641 213 l 433 213 l 433 0 l 295 0 l 295 213 l 84 213 l 84 294 l 295 294 l 295 410 l 84 410 l 84 492 l 262 492 l 20 987 l 174 987 l 364 557 z "},"¦":{"ha":302,"x_min":85,"x_max":214,"o":"m 85 -183 l 85 349 l 214 349 l 214 -183 l 85 -183 m 214 473 l 85 473 l 85 987 l 214 987 l 214 473 z "},"§":{"ha":750,"x_min":59,"x_max":682,"o":"m 682 301 q 652 191 682 238 q 568 118 622 144 q 638 36 614 83 q 662 -80 662 -12 q 582 -262 662 -197 q 368 -328 503 -328 q 148 -259 237 -328 q 62 -42 59 -191 l 64 -38 l 196 -37 q 246 -179 196 -134 q 368 -223 296 -223 q 482 -183 441 -223 q 524 -81 524 -144 q 485 14 524 -20 q 336 87 446 48 q 127 192 195 131 q 60 370 60 254 q 89 479 60 433 q 172 554 118 526 q 103 636 126 589 q 81 752 81 684 q 161 933 81 865 q 374 1002 241 1002 q 590 926 513 1002 q 665 714 668 850 l 664 710 l 532 710 q 490 843 532 790 q 374 896 448 896 q 258 856 296 896 q 219 753 219 816 q 255 653 219 688 q 405 581 292 619 q 615 476 549 536 q 682 301 682 416 m 355 473 q 310 487 331 479 q 269 502 289 494 q 216 454 233 487 q 198 377 198 422 q 235 274 198 309 q 386 198 271 239 q 425 184 406 191 q 467 170 445 178 q 525 217 504 184 q 545 294 545 250 q 505 394 545 357 q 355 473 465 431 z "},"¨":{"ha":644,"x_min":103,"x_max":541,"o":"m 541 862 l 399 862 l 399 987 l 541 987 l 541 862 m 245 862 l 103 862 l 103 987 l 245 987 l 245 862 z "},"©":{"ha":991,"x_min":60,"x_max":926,"o":"m 681 404 l 683 400 q 632 245 685 298 q 485 191 579 191 q 331 263 388 191 q 274 454 274 336 l 274 534 q 331 724 274 652 q 485 797 388 797 q 632 743 579 797 q 684 588 686 689 l 682 584 l 599 584 q 570 686 599 653 q 485 718 542 718 q 393 667 425 718 q 361 535 361 616 l 361 454 q 393 320 361 370 q 485 269 425 269 q 570 301 542 269 q 598 404 598 333 l 681 404 m 130 494 q 235 184 130 311 q 493 58 341 58 q 749 184 643 58 q 855 494 855 311 q 749 802 855 676 q 493 927 643 927 q 235 802 341 927 q 130 494 130 676 m 60 494 q 186 854 60 708 q 493 1001 312 1001 q 799 854 673 1001 q 926 494 926 708 q 799 133 926 280 q 493 -14 672 -14 q 186 133 312 -14 q 60 494 60 280 z "},"ª":{"ha":541,"x_min":73,"x_max":460,"o":"m 361 479 q 354 511 357 494 q 349 547 351 528 q 297 491 330 513 q 218 469 264 469 q 111 511 149 469 q 73 624 73 553 q 122 737 73 697 q 264 777 171 777 l 348 777 l 348 815 q 330 890 348 863 q 277 916 311 916 q 214 895 236 916 q 192 835 192 873 l 102 843 l 100 847 q 146 958 97 913 q 277 1002 195 1002 q 399 954 354 1002 q 445 814 445 905 l 445 602 q 448 537 445 567 q 460 479 452 507 l 361 479 m 241 552 q 305 574 273 552 q 348 624 337 597 l 348 707 l 265 707 q 195 684 220 707 q 170 627 170 661 q 188 571 170 591 q 241 552 205 552 z "},"«":{"ha":588,"x_min":60,"x_max":549,"o":"m 177 351 l 322 83 l 227 83 l 60 345 l 60 357 l 227 618 l 322 618 l 177 351 m 404 351 l 549 83 l 454 83 l 287 345 l 287 357 l 454 618 l 549 618 l 404 351 z "},"¬":{"ha":668,"x_min":79,"x_max":563,"o":"m 563 256 l 453 256 l 453 440 l 79 440 l 79 537 l 563 537 l 563 256 z "},"­":{"ha":534,"x_min":93,"x_max":437,"o":"m 437 368 l 93 368 l 93 473 l 437 473 l 437 368 z "},"®":{"ha":991,"x_min":59,"x_max":925,"o":"m 59 494 q 185 854 59 708 q 492 1001 311 1001 q 798 854 671 1001 q 925 494 925 708 q 798 133 925 280 q 492 -14 671 -14 q 185 133 311 -14 q 59 494 59 280 m 130 494 q 235 184 130 311 q 492 58 341 58 q 748 184 642 58 q 854 494 854 311 q 749 802 854 676 q 492 927 643 927 q 235 802 341 927 q 130 494 130 676 m 402 448 l 402 214 l 317 214 l 317 791 l 485 791 q 629 746 577 791 q 681 618 681 702 q 661 544 681 575 q 602 491 640 512 q 660 436 642 473 q 678 349 678 400 l 678 311 q 680 261 678 283 q 688 225 682 239 l 688 214 l 600 214 q 593 256 595 229 q 592 312 592 283 l 592 349 q 571 424 592 400 q 502 448 550 448 l 402 448 m 402 526 l 493 526 q 566 550 536 526 q 595 616 595 574 q 571 691 595 669 q 485 713 546 713 l 402 713 l 402 526 z "},"¯":{"ha":603,"x_min":85,"x_max":522,"o":"m 522 898 l 85 898 l 85 987 l 522 987 l 522 898 z "},"°":{"ha":485,"x_min":84,"x_max":401,"o":"m 84 825 q 131 949 84 897 q 243 1002 178 1002 q 354 949 308 1002 q 401 825 401 897 q 355 701 401 751 q 243 650 309 650 q 131 701 177 650 q 84 825 84 751 m 163 825 q 186 758 163 785 q 243 731 210 731 q 299 758 277 731 q 321 825 321 784 q 299 893 321 865 q 243 920 276 920 q 186 893 210 920 q 163 825 163 865 z "},"±":{"ha":677,"x_min":61,"x_max":619,"o":"m 406 592 l 619 592 l 619 486 l 406 486 l 406 205 l 283 205 l 283 486 l 61 486 l 61 592 l 283 592 l 283 868 l 406 868 l 406 592 m 561 3 l 74 3 l 74 109 l 561 109 l 561 3 z "},"²":{"ha":511,"x_min":68,"x_max":425,"o":"m 425 452 l 73 452 l 73 534 l 252 715 q 302 783 290 756 q 314 840 314 809 q 298 898 314 876 q 250 920 282 920 q 193 896 213 920 q 174 834 174 872 l 73 834 l 71 838 q 118 955 68 906 q 251 1003 168 1003 q 376 960 332 1003 q 421 839 421 918 q 391 744 421 786 q 294 635 361 701 l 210 538 l 211 534 l 425 534 l 425 452 z "},"³":{"ha":513,"x_min":62,"x_max":438,"o":"m 431 848 q 410 779 431 810 q 352 730 389 747 q 416 682 393 714 q 438 602 438 650 q 386 486 438 528 q 248 444 334 444 q 116 484 169 444 q 66 600 62 524 l 67 604 l 168 604 q 189 548 168 569 q 248 526 210 526 q 308 547 286 526 q 331 605 331 568 q 310 669 331 648 q 246 690 288 690 l 176 690 l 176 766 l 246 766 q 304 787 286 766 q 323 844 323 807 q 304 898 323 877 q 247 919 285 919 q 195 900 214 919 q 176 851 176 882 l 75 851 l 73 855 q 119 962 69 921 q 245 1002 170 1002 q 381 962 331 1002 q 431 848 431 922 z "},"´":{"ha":420,"x_min":79,"x_max":358,"o":"m 198 1029 l 356 1029 l 358 1026 l 194 849 l 79 849 l 198 1029 z "},"µ":{"ha":715,"x_min":90,"x_max":619,"o":"m 227 734 l 227 309 q 258 137 227 184 q 345 91 288 91 q 431 116 398 91 q 482 191 465 142 l 482 734 l 619 734 l 619 0 l 493 0 l 489 61 q 427 5 463 24 q 345 -14 391 -14 q 279 -4 309 -14 q 227 30 250 7 l 227 -282 l 90 -282 l 90 734 l 227 734 z "},"¶":{"ha":615,"x_min":42,"x_max":517,"o":"m 379 0 l 379 353 l 329 353 q 118 440 193 353 q 42 670 42 528 q 118 899 42 810 q 329 987 193 987 l 517 987 l 517 0 l 379 0 z "},"·":{"ha":345,"x_min":98,"x_max":238,"o":"m 238 411 l 98 411 l 98 556 l 238 556 l 238 411 z "},"¸":{"ha":317,"x_min":68,"x_max":271,"o":"m 189 1 l 181 -38 q 245 -72 220 -45 q 271 -155 271 -100 q 221 -260 271 -221 q 79 -300 171 -300 l 75 -223 q 135 -206 112 -223 q 157 -155 157 -189 q 137 -107 157 -121 q 68 -90 117 -94 l 85 1 l 189 1 z "},"¹":{"ha":336,"x_min":54,"x_max":238,"o":"m 238 451 l 130 451 l 130 903 l 54 901 l 54 986 l 238 1002 l 238 451 z "},"º":{"ha":553,"x_min":75,"x_max":475,"o":"m 75 774 q 129 938 75 875 q 275 1002 183 1002 q 421 938 366 1002 q 475 774 475 875 l 475 695 q 421 531 475 594 q 276 469 367 469 q 129 531 184 469 q 75 695 75 594 l 75 774 m 172 695 q 198 591 172 631 q 276 552 224 552 q 352 591 326 552 q 378 695 378 631 l 378 774 q 352 877 378 837 q 275 916 325 916 q 198 877 224 916 q 172 774 172 837 l 172 695 z "},"»":{"ha":587,"x_min":81,"x_max":566,"o":"m 174 373 l 81 579 l 176 579 l 285 437 l 319 437 l 330 378 l 332 376 l 331 372 l 332 369 l 330 366 l 319 309 l 286 309 l 176 166 l 81 166 l 174 373 m 409 373 l 315 579 l 411 579 l 519 437 l 554 437 l 564 378 l 566 376 l 566 372 l 566 369 l 564 366 l 554 309 l 520 309 l 411 166 l 315 166 l 409 373 z "},"¼":{"ha":907,"x_min":115,"x_max":945,"o":"m 298 450 l 190 450 l 190 902 l 115 900 l 115 985 l 298 1001 l 298 450 m 291 82 l 220 125 l 635 897 l 706 854 l 291 82 m 877 188 l 945 188 l 945 105 l 877 105 l 877 0 l 770 0 l 770 105 l 528 105 l 522 170 l 769 543 l 877 543 l 877 188 m 634 188 l 770 188 l 770 406 l 766 406 l 758 393 l 634 188 z "},"½":{"ha":949,"x_min":115,"x_max":975,"o":"m 300 82 l 229 125 l 644 897 l 715 854 l 300 82 m 298 450 l 190 450 l 190 902 l 115 900 l 115 985 l 298 1001 l 298 450 m 975 0 l 623 0 l 623 82 l 802 263 q 852 330 840 304 q 864 387 864 357 q 848 445 864 423 q 800 467 832 467 q 743 444 763 467 q 724 382 724 420 l 623 382 l 621 386 q 668 502 618 454 q 801 551 718 551 q 926 508 882 551 q 971 387 971 465 q 941 291 971 334 q 844 183 911 249 l 760 85 l 761 82 l 975 82 l 975 0 z "},"¾":{"ha":1024,"x_min":73,"x_max":1073,"o":"m 415 82 l 344 125 l 759 897 l 830 854 l 415 82 m 1005 188 l 1073 188 l 1073 105 l 1005 105 l 1005 0 l 898 0 l 898 105 l 656 105 l 650 170 l 897 543 l 1005 543 l 1005 188 m 762 188 l 898 188 l 898 406 l 894 406 l 886 393 l 762 188 m 441 848 q 420 779 441 810 q 363 730 399 748 q 427 683 404 715 q 449 603 449 650 q 397 487 449 528 q 259 445 345 445 q 126 485 180 445 q 77 601 73 525 l 78 605 l 179 605 q 200 548 179 570 q 258 527 221 527 q 319 548 296 527 q 342 606 342 569 q 320 670 342 649 q 257 690 299 690 l 187 690 l 187 767 l 257 767 q 315 787 296 767 q 334 845 334 808 q 315 899 334 878 q 258 920 296 920 q 206 901 225 920 q 186 852 186 882 l 85 852 l 84 856 q 130 962 80 922 q 256 1003 180 1003 q 392 963 342 1003 q 441 848 441 922 z "},"¿":{"ha":603,"x_min":59,"x_max":572,"o":"m 400 456 q 380 326 399 366 q 298 224 361 287 q 222 114 248 162 q 197 0 197 65 q 228 -116 197 -75 q 318 -158 259 -158 q 401 -120 367 -158 q 436 -14 435 -82 l 569 -14 l 570 -18 q 500 -201 572 -134 q 318 -267 429 -267 q 127 -196 196 -267 q 59 -2 59 -125 q 100 157 59 85 q 210 298 141 229 q 253 364 243 332 q 262 456 262 395 l 400 456 m 259 734 l 401 734 l 401 599 l 259 599 l 259 734 z "},"À":{"ha":764,"x_min":22,"x_max":745,"o":"m 531 250 l 236 250 l 165 0 l 22 0 l 318 987 l 452 987 l 745 0 l 602 0 l 531 250 m 267 359 l 500 359 l 387 760 l 382 760 l 267 359 m 448 1086 l 328 1086 l 171 1263 l 172 1267 l 332 1267 l 448 1086 z "},"Á":{"ha":764,"x_min":22,"x_max":745,"o":"m 531 250 l 236 250 l 165 0 l 22 0 l 318 987 l 452 987 l 745 0 l 602 0 l 531 250 m 267 359 l 500 359 l 387 760 l 382 760 l 267 359 m 433 1264 l 591 1264 l 593 1261 l 429 1084 l 314 1084 l 433 1264 z "},"Â":{"ha":764,"x_min":22,"x_max":745,"o":"m 531 250 l 236 250 l 165 0 l 22 0 l 318 987 l 452 987 l 745 0 l 602 0 l 531 250 m 267 359 l 500 359 l 387 760 l 382 760 l 267 359 m 578 1099 l 578 1084 l 467 1084 l 382 1187 l 298 1084 l 188 1084 l 188 1100 l 340 1257 l 424 1257 l 578 1099 z "},"Ã":{"ha":764,"x_min":22,"x_max":745,"o":"m 531 250 l 236 250 l 165 0 l 22 0 l 318 987 l 452 987 l 745 0 l 602 0 l 531 250 m 267 359 l 500 359 l 387 760 l 382 760 l 267 359 m 590 1246 q 556 1141 590 1184 q 469 1099 522 1099 q 379 1132 427 1099 q 301 1165 331 1165 q 262 1142 277 1165 q 246 1086 246 1120 l 171 1105 q 205 1211 171 1166 q 292 1255 239 1255 q 378 1221 326 1255 q 460 1187 430 1187 q 499 1211 482 1187 q 515 1267 515 1234 l 590 1246 z "},"Ä":{"ha":764,"x_min":22,"x_max":745,"o":"m 531 250 l 236 250 l 165 0 l 22 0 l 318 987 l 452 987 l 745 0 l 602 0 l 531 250 m 267 359 l 500 359 l 387 760 l 382 760 l 267 359 m 602 1097 l 460 1097 l 460 1222 l 602 1222 l 602 1097 m 306 1097 l 164 1097 l 164 1222 l 306 1222 l 306 1097 z "},"Å":{"ha":764,"x_min":22,"x_max":745,"o":"m 531 250 l 236 250 l 165 0 l 22 0 l 318 987 l 452 987 l 745 0 l 602 0 l 531 250 m 267 359 l 500 359 l 387 760 l 382 760 l 267 359 m 274 1177 q 306 1256 274 1224 q 382 1289 337 1289 q 457 1256 427 1289 q 488 1177 488 1224 q 457 1099 488 1130 q 382 1069 427 1069 q 306 1100 337 1069 q 274 1177 274 1131 m 336 1177 q 350 1141 336 1155 q 382 1126 363 1126 q 413 1141 401 1126 q 425 1177 425 1155 q 413 1215 425 1200 q 382 1230 401 1230 q 350 1215 363 1230 q 336 1177 336 1200 z "},"Æ":{"ha":1152,"x_min":14,"x_max":1106,"o":"m 1106 0 l 588 0 l 579 245 l 291 245 l 178 0 l 14 0 l 498 987 l 1070 987 l 1070 881 l 694 881 l 705 564 l 1023 564 l 1023 459 l 709 459 l 722 105 l 1106 105 l 1106 0 m 345 360 l 575 360 l 558 812 l 555 813 l 345 360 z "},"Ç":{"ha":768,"x_min":68,"x_max":717,"o":"m 712 297 l 713 293 q 632 66 716 147 q 401 -14 548 -14 q 159 83 249 -14 q 68 356 68 180 l 68 630 q 157 903 68 805 q 396 1002 246 1002 q 632 923 547 1002 q 714 694 717 845 l 713 690 l 581 690 q 534 846 581 796 q 396 896 488 896 q 256 828 305 896 q 206 632 206 760 l 206 356 q 257 159 206 227 q 401 90 308 90 q 535 139 490 90 q 580 297 580 189 l 712 297 m 450 -3 l 442 -42 q 506 -76 481 -49 q 532 -159 532 -104 q 482 -264 532 -225 q 340 -304 432 -304 l 336 -227 q 396 -210 373 -227 q 418 -159 418 -193 q 398 -112 418 -125 q 329 -94 378 -98 l 347 -3 l 450 -3 z "},"È":{"ha":671,"x_min":94,"x_max":627,"o":"m 567 458 l 232 458 l 232 104 l 627 104 l 627 0 l 94 0 l 94 987 l 623 987 l 623 882 l 232 882 l 232 564 l 567 564 l 567 458 m 427 1086 l 307 1086 l 149 1263 l 151 1267 l 310 1267 l 427 1086 z "},"É":{"ha":671,"x_min":94,"x_max":627,"o":"m 567 458 l 232 458 l 232 104 l 627 104 l 627 0 l 94 0 l 94 987 l 623 987 l 623 882 l 232 882 l 232 564 l 567 564 l 567 458 m 412 1264 l 570 1264 l 572 1261 l 408 1084 l 292 1084 l 412 1264 z "},"Ê":{"ha":671,"x_min":94,"x_max":627,"o":"m 567 458 l 232 458 l 232 104 l 627 104 l 627 0 l 94 0 l 94 987 l 623 987 l 623 882 l 232 882 l 232 564 l 567 564 l 567 458 m 557 1099 l 557 1084 l 446 1084 l 360 1187 l 276 1084 l 166 1084 l 166 1100 l 319 1257 l 402 1257 l 557 1099 z "},"Ë":{"ha":671,"x_min":94,"x_max":627,"o":"m 567 458 l 232 458 l 232 104 l 627 104 l 627 0 l 94 0 l 94 987 l 623 987 l 623 882 l 232 882 l 232 564 l 567 564 l 567 458 m 580 1097 l 438 1097 l 438 1222 l 580 1222 l 580 1097 m 284 1097 l 142 1097 l 142 1222 l 284 1222 l 284 1097 z "},"Ì":{"ha":351,"x_min":-35,"x_max":244,"o":"m 244 0 l 106 0 l 106 987 l 244 987 l 244 0 m 242 1086 l 122 1086 l -35 1263 l -34 1267 l 125 1267 l 242 1086 z "},"Í":{"ha":351,"x_min":106,"x_max":387,"o":"m 244 0 l 106 0 l 106 987 l 244 987 l 244 0 m 227 1264 l 385 1264 l 387 1261 l 222 1084 l 107 1084 l 227 1264 z "},"Î":{"ha":351,"x_min":-18,"x_max":372,"o":"m 244 0 l 106 0 l 106 987 l 244 987 l 244 0 m 372 1099 l 372 1084 l 261 1084 l 176 1187 l 92 1084 l -18 1084 l -18 1100 l 134 1257 l 218 1257 l 372 1099 z "},"Ï":{"ha":351,"x_min":-42,"x_max":395,"o":"m 244 0 l 106 0 l 106 987 l 244 987 l 244 0 m 395 1097 l 254 1097 l 254 1222 l 395 1222 l 395 1097 m 100 1097 l -42 1097 l -42 1222 l 100 1222 l 100 1097 z "},"Ð":{"ha":808,"x_min":5,"x_max":737,"o":"m 94 0 l 94 454 l 5 454 l 5 550 l 94 550 l 94 987 l 374 987 q 636 869 534 987 q 737 564 737 750 l 737 423 q 636 118 737 236 q 374 0 534 0 l 94 0 m 387 454 l 232 454 l 232 104 l 374 104 q 537 194 476 104 q 598 423 598 283 l 598 565 q 537 792 598 703 q 374 882 476 882 l 232 882 l 232 550 l 387 550 l 387 454 z "},"Ñ":{"ha":851,"x_min":94,"x_max":757,"o":"m 757 0 l 618 0 l 236 728 l 232 727 l 232 0 l 94 0 l 94 987 l 232 987 l 614 261 l 618 262 l 618 987 l 757 987 l 757 0 m 632 1246 q 598 1141 632 1184 q 511 1099 564 1099 q 421 1132 469 1099 q 343 1165 373 1165 q 304 1142 319 1165 q 288 1086 288 1120 l 213 1105 q 247 1211 213 1166 q 334 1255 281 1255 q 420 1221 368 1255 q 502 1187 472 1187 q 541 1211 524 1187 q 557 1267 557 1234 l 632 1246 z "},"Ò":{"ha":826,"x_min":66,"x_max":759,"o":"m 759 357 q 664 84 759 182 q 410 -14 569 -14 q 159 84 252 -14 q 66 357 66 182 l 66 629 q 159 903 66 804 q 409 1002 252 1002 q 664 903 568 1002 q 759 629 759 804 l 759 357 m 622 631 q 567 826 622 760 q 409 893 511 893 q 257 826 310 893 q 203 631 203 760 l 203 357 q 257 160 203 227 q 410 93 311 93 q 567 160 512 93 q 622 357 622 227 l 622 631 m 478 1101 l 358 1101 l 201 1278 l 202 1281 l 361 1281 l 478 1101 z "},"Ó":{"ha":826,"x_min":66,"x_max":759,"o":"m 759 357 q 664 84 759 182 q 410 -14 569 -14 q 159 84 252 -14 q 66 357 66 182 l 66 629 q 159 903 66 804 q 409 1002 252 1002 q 664 903 568 1002 q 759 629 759 804 l 759 357 m 622 631 q 567 826 622 760 q 409 893 511 893 q 257 826 310 893 q 203 631 203 760 l 203 357 q 257 160 203 227 q 410 93 311 93 q 567 160 512 93 q 622 357 622 227 l 622 631 m 463 1278 l 621 1278 l 623 1275 l 459 1098 l 344 1098 l 463 1278 z "},"Ô":{"ha":826,"x_min":66,"x_max":759,"o":"m 759 357 q 664 84 759 182 q 410 -14 569 -14 q 159 84 252 -14 q 66 357 66 182 l 66 629 q 159 903 66 804 q 409 1002 252 1002 q 664 903 568 1002 q 759 629 759 804 l 759 357 m 622 631 q 567 826 622 760 q 409 893 511 893 q 257 826 310 893 q 203 631 203 760 l 203 357 q 257 160 203 227 q 410 93 311 93 q 567 160 512 93 q 622 357 622 227 l 622 631 m 608 1114 l 608 1099 l 497 1099 l 412 1201 l 328 1099 l 218 1099 l 218 1114 l 370 1272 l 454 1272 l 608 1114 z "},"Õ":{"ha":826,"x_min":66,"x_max":759,"o":"m 759 357 q 664 84 759 182 q 410 -14 569 -14 q 159 84 252 -14 q 66 357 66 182 l 66 629 q 159 903 66 804 q 409 1002 252 1002 q 664 903 568 1002 q 759 629 759 804 l 759 357 m 622 631 q 567 826 622 760 q 409 893 511 893 q 257 826 310 893 q 203 631 203 760 l 203 357 q 257 160 203 227 q 410 93 311 93 q 567 160 512 93 q 622 357 622 227 l 622 631 m 620 1261 q 586 1156 620 1198 q 499 1113 551 1113 q 409 1146 457 1113 q 331 1179 361 1179 q 292 1157 307 1179 q 276 1101 276 1134 l 201 1120 q 235 1225 201 1181 q 321 1269 269 1269 q 408 1235 355 1269 q 490 1202 460 1202 q 529 1225 512 1202 q 545 1282 545 1248 l 620 1261 z "},"Ö":{"ha":826,"x_min":66,"x_max":759,"o":"m 759 357 q 664 84 759 182 q 410 -14 569 -14 q 159 84 252 -14 q 66 357 66 182 l 66 629 q 159 903 66 804 q 409 1002 252 1002 q 664 903 568 1002 q 759 629 759 804 l 759 357 m 622 631 q 567 826 622 760 q 409 893 511 893 q 257 826 310 893 q 203 631 203 760 l 203 357 q 257 160 203 227 q 410 93 311 93 q 567 160 512 93 q 622 357 622 227 l 622 631 m 631 1111 l 490 1111 l 490 1236 l 631 1236 l 631 1111 m 336 1111 l 194 1111 l 194 1236 l 336 1236 l 336 1111 z "},"×":{"ha":672,"x_min":52,"x_max":613,"o":"m 52 233 l 254 463 l 54 691 l 138 772 l 332 551 l 526 772 l 611 691 l 410 463 l 613 233 l 529 153 l 332 375 l 136 153 l 52 233 z "},"Ø":{"ha":827,"x_min":66,"x_max":759,"o":"m 759 357 q 664 84 759 182 q 410 -14 569 -14 q 314 -4 359 -14 q 232 28 269 7 l 186 -61 l 104 -61 l 172 71 q 93 191 120 119 q 66 357 66 264 l 66 629 q 159 903 66 804 q 409 1002 252 1002 q 521 986 469 1002 q 616 943 574 971 l 659 1025 l 741 1025 l 673 892 q 736 778 714 844 q 759 629 759 711 l 759 357 m 203 357 q 211 268 203 307 q 233 201 218 228 l 237 200 l 561 833 q 495 878 533 863 q 409 893 457 893 q 257 826 310 893 q 203 631 203 760 l 203 357 m 622 631 q 617 697 622 667 q 604 749 612 728 l 601 750 l 285 132 q 340 102 309 112 q 410 93 372 93 q 567 160 512 93 q 622 357 622 227 l 622 631 z "},"Ù":{"ha":823,"x_min":83,"x_max":741,"o":"m 741 987 l 741 334 q 648 78 741 170 q 409 -14 556 -14 q 174 78 264 -14 q 83 334 83 171 l 83 987 l 221 987 l 221 334 q 273 155 221 220 q 409 90 325 90 q 549 155 496 90 q 602 334 602 219 l 602 987 l 741 987 m 479 1086 l 359 1086 l 202 1263 l 203 1267 l 363 1267 l 479 1086 z "},"Ú":{"ha":823,"x_min":83,"x_max":741,"o":"m 741 987 l 741 334 q 648 78 741 170 q 409 -14 556 -14 q 174 78 264 -14 q 83 334 83 171 l 83 987 l 221 987 l 221 334 q 273 155 221 220 q 409 90 325 90 q 549 155 496 90 q 602 334 602 219 l 602 987 l 741 987 m 465 1264 l 623 1264 l 625 1261 l 460 1084 l 345 1084 l 465 1264 z "},"Û":{"ha":823,"x_min":83,"x_max":741,"o":"m 741 987 l 741 334 q 648 78 741 170 q 409 -14 556 -14 q 174 78 264 -14 q 83 334 83 171 l 83 987 l 221 987 l 221 334 q 273 155 221 220 q 409 90 325 90 q 549 155 496 90 q 602 334 602 219 l 602 987 l 741 987 m 610 1099 l 610 1084 l 498 1084 l 413 1187 l 329 1084 l 219 1084 l 219 1100 l 372 1257 l 455 1257 l 610 1099 z "},"Ü":{"ha":823,"x_min":83,"x_max":741,"o":"m 741 987 l 741 334 q 648 78 741 170 q 409 -14 556 -14 q 174 78 264 -14 q 83 334 83 171 l 83 987 l 221 987 l 221 334 q 273 155 221 220 q 409 90 325 90 q 549 155 496 90 q 602 334 602 219 l 602 987 l 741 987 m 633 1097 l 491 1097 l 491 1222 l 633 1222 l 633 1097 m 337 1097 l 195 1097 l 195 1222 l 337 1222 l 337 1097 z "},"Ý":{"ha":764,"x_min":19,"x_max":744,"o":"m 379 506 l 383 506 l 589 987 l 744 987 l 448 355 l 448 0 l 310 0 l 310 366 l 19 987 l 172 987 l 379 506 m 434 1261 l 592 1261 l 594 1258 l 430 1081 l 315 1081 l 434 1261 z "},"Þ":{"ha":726,"x_min":92,"x_max":675,"o":"m 229 987 l 229 791 l 376 791 q 596 710 517 791 q 675 500 675 629 q 596 290 675 370 q 376 210 517 210 l 229 210 l 229 0 l 92 0 l 92 987 l 229 987 m 229 686 l 229 315 l 376 315 q 496 368 456 315 q 536 499 536 422 q 496 631 536 576 q 376 686 456 686 l 229 686 z "},"ß":{"ha":741,"x_min":85,"x_max":691,"o":"m 222 0 l 85 0 l 85 738 q 156 965 85 884 q 345 1046 227 1046 q 506 988 442 1046 q 570 821 570 929 q 536 674 570 745 q 502 557 502 604 q 596 409 502 505 q 691 217 691 313 q 627 44 691 102 q 448 -14 562 -14 q 352 -1 401 -14 q 280 33 303 13 l 307 138 q 368 104 332 119 q 441 90 404 90 q 525 123 496 90 q 553 212 553 157 q 459 366 553 271 q 364 555 364 460 q 400 687 364 615 q 435 812 435 760 q 407 906 435 870 q 341 942 378 942 q 255 888 288 942 q 222 736 222 834 l 222 0 z "},"à":{"ha":656,"x_min":51,"x_max":600,"o":"m 460 0 q 447 59 452 33 q 440 111 441 85 q 363 21 411 57 q 254 -14 315 -14 q 103 44 156 -14 q 51 203 51 102 q 124 367 51 307 q 327 427 197 427 l 439 427 l 439 502 q 410 607 439 569 q 324 644 380 644 q 244 612 274 644 q 215 528 215 579 l 83 528 l 82 532 q 149 682 78 617 q 333 747 219 747 q 510 683 442 747 q 578 500 578 619 l 578 160 q 583 78 578 118 q 600 0 589 39 l 460 0 m 283 92 q 382 126 339 92 q 439 211 426 161 l 439 341 l 325 341 q 225 301 261 341 q 189 203 189 260 q 214 122 189 153 q 283 92 238 92 m 391 868 l 271 868 l 114 1045 l 115 1048 l 275 1048 l 391 868 z "},"á":{"ha":656,"x_min":51,"x_max":600,"o":"m 460 0 q 447 59 452 33 q 440 111 441 85 q 363 21 411 57 q 254 -14 315 -14 q 103 44 156 -14 q 51 203 51 102 q 124 367 51 307 q 327 427 197 427 l 439 427 l 439 502 q 410 607 439 569 q 324 644 380 644 q 244 612 274 644 q 215 528 215 579 l 83 528 l 82 532 q 149 682 78 617 q 333 747 219 747 q 510 683 442 747 q 578 500 578 619 l 578 160 q 583 78 578 118 q 600 0 589 39 l 460 0 m 283 92 q 382 126 339 92 q 439 211 426 161 l 439 341 l 325 341 q 225 301 261 341 q 189 203 189 260 q 214 122 189 153 q 283 92 238 92 m 376 1046 l 534 1046 l 536 1042 l 372 865 l 257 865 l 376 1046 z "},"â":{"ha":656,"x_min":51,"x_max":600,"o":"m 460 0 q 447 59 452 33 q 440 111 441 85 q 363 21 411 57 q 254 -14 315 -14 q 103 44 156 -14 q 51 203 51 102 q 124 367 51 307 q 327 427 197 427 l 439 427 l 439 502 q 410 607 439 569 q 324 644 380 644 q 244 612 274 644 q 215 528 215 579 l 83 528 l 82 532 q 149 682 78 617 q 333 747 219 747 q 510 683 442 747 q 578 500 578 619 l 578 160 q 583 78 578 118 q 600 0 589 39 l 460 0 m 283 92 q 382 126 339 92 q 439 211 426 161 l 439 341 l 325 341 q 225 301 261 341 q 189 203 189 260 q 214 122 189 153 q 283 92 238 92 m 522 881 l 522 866 l 410 866 l 325 968 l 241 866 l 131 866 l 131 882 l 283 1039 l 367 1039 l 522 881 z "},"ã":{"ha":656,"x_min":51,"x_max":600,"o":"m 460 0 q 447 59 452 33 q 440 111 441 85 q 363 21 411 57 q 254 -14 315 -14 q 103 44 156 -14 q 51 203 51 102 q 124 367 51 307 q 327 427 197 427 l 439 427 l 439 502 q 410 607 439 569 q 324 644 380 644 q 244 612 274 644 q 215 528 215 579 l 83 528 l 82 532 q 149 682 78 617 q 333 747 219 747 q 510 683 442 747 q 578 500 578 619 l 578 160 q 583 78 578 118 q 600 0 589 39 l 460 0 m 283 92 q 382 126 339 92 q 439 211 426 161 l 439 341 l 325 341 q 225 301 261 341 q 189 203 189 260 q 214 122 189 153 q 283 92 238 92 m 533 1028 q 499 923 533 966 q 412 880 465 880 q 322 913 370 880 q 244 947 274 947 q 205 924 220 947 q 189 868 189 901 l 114 887 q 148 992 114 948 q 235 1036 182 1036 q 321 1003 269 1036 q 403 969 373 969 q 442 992 425 969 q 458 1049 458 1015 l 533 1028 z "},"ä":{"ha":656,"x_min":51,"x_max":600,"o":"m 460 0 q 447 59 452 33 q 440 111 441 85 q 363 21 411 57 q 254 -14 315 -14 q 103 44 156 -14 q 51 203 51 102 q 124 367 51 307 q 327 427 197 427 l 439 427 l 439 502 q 410 607 439 569 q 324 644 380 644 q 244 612 274 644 q 215 528 215 579 l 83 528 l 82 532 q 149 682 78 617 q 333 747 219 747 q 510 683 442 747 q 578 500 578 619 l 578 160 q 583 78 578 118 q 600 0 589 39 l 460 0 m 283 92 q 382 126 339 92 q 439 211 426 161 l 439 341 l 325 341 q 225 301 261 341 q 189 203 189 260 q 214 122 189 153 q 283 92 238 92 m 545 878 l 403 878 l 403 1004 l 545 1004 l 545 878 m 249 878 l 107 878 l 107 1004 l 249 1004 l 249 878 z "},"å":{"ha":656,"x_min":51,"x_max":600,"o":"m 460 0 q 447 59 452 33 q 440 111 441 85 q 363 21 411 57 q 254 -14 315 -14 q 103 44 156 -14 q 51 203 51 102 q 124 367 51 307 q 327 427 197 427 l 439 427 l 439 502 q 410 607 439 569 q 324 644 380 644 q 244 612 274 644 q 215 528 215 579 l 83 528 l 82 532 q 149 682 78 617 q 333 747 219 747 q 510 683 442 747 q 578 500 578 619 l 578 160 q 583 78 578 118 q 600 0 589 39 l 460 0 m 283 92 q 382 126 339 92 q 439 211 426 161 l 439 341 l 325 341 q 225 301 261 341 q 189 203 189 260 q 214 122 189 153 q 283 92 238 92 m 217 959 q 249 1038 217 1006 q 326 1070 280 1070 q 400 1038 370 1070 q 431 959 431 1006 q 400 881 431 911 q 326 850 370 850 q 249 881 280 850 q 217 959 217 912 m 279 959 q 293 922 279 937 q 326 908 306 908 q 356 922 344 908 q 368 959 368 937 q 356 996 368 981 q 326 1011 344 1011 q 293 996 306 1011 q 279 959 279 981 z "},"æ":{"ha":1048,"x_min":55,"x_max":996,"o":"m 754 -14 q 617 17 677 -14 q 519 104 557 47 q 423 20 485 54 q 275 -14 361 -14 q 112 45 170 -14 q 55 206 55 104 q 125 368 55 310 q 330 425 196 425 l 452 425 l 452 486 q 424 601 452 559 q 345 642 397 642 q 258 605 290 642 q 226 513 226 568 l 94 524 l 92 528 q 159 685 89 623 q 346 747 229 747 q 459 724 409 747 q 541 658 509 701 q 627 724 577 701 q 735 747 676 747 q 927 660 859 747 q 996 422 996 573 l 996 338 l 593 338 q 635 158 594 226 q 764 90 677 90 q 860 108 821 90 q 942 160 899 126 l 983 71 q 890 12 949 38 q 754 -14 831 -14 m 302 86 q 386 113 342 86 q 452 175 429 140 l 452 332 l 332 332 q 229 295 266 332 q 193 203 193 258 q 220 118 193 149 q 302 86 248 86 m 735 642 q 637 585 672 642 q 595 433 602 528 l 860 433 l 860 454 q 829 589 860 537 q 735 642 798 642 z "},"ç":{"ha":629,"x_min":51,"x_max":582,"o":"m 334 90 q 419 130 385 90 q 454 236 454 169 l 578 236 l 579 232 q 509 57 582 128 q 334 -14 437 -14 q 125 89 199 -14 q 51 353 51 193 l 51 379 q 125 643 51 539 q 334 747 199 747 q 513 673 444 747 q 580 480 582 599 l 578 477 l 454 477 q 421 596 454 550 q 334 642 388 642 q 223 567 257 642 q 189 379 189 492 l 189 353 q 222 164 189 238 q 334 90 256 90 m 379 -3 l 372 -42 q 436 -76 410 -49 q 461 -159 461 -104 q 411 -264 461 -225 q 269 -304 361 -304 l 266 -227 q 325 -210 302 -227 q 348 -159 348 -193 q 328 -112 348 -125 q 258 -94 307 -98 l 276 -3 l 379 -3 z "},"è":{"ha":633,"x_min":52,"x_max":588,"o":"m 345 -14 q 130 86 208 -14 q 52 347 52 186 l 52 379 q 130 644 52 541 q 332 747 207 747 q 523 659 457 747 q 588 420 588 570 l 588 342 l 190 342 q 230 160 190 230 q 354 90 271 90 q 454 108 412 90 q 533 161 497 126 l 578 75 q 481 12 541 37 q 345 -14 421 -14 m 332 642 q 237 586 272 642 q 193 440 201 531 l 452 440 l 452 456 q 423 590 452 538 q 332 642 393 642 m 386 869 l 266 869 l 109 1046 l 110 1049 l 269 1049 l 386 869 z "},"é":{"ha":633,"x_min":52,"x_max":588,"o":"m 345 -14 q 130 86 208 -14 q 52 347 52 186 l 52 379 q 130 644 52 541 q 332 747 207 747 q 523 659 457 747 q 588 420 588 570 l 588 342 l 190 342 q 230 160 190 230 q 354 90 271 90 q 454 108 412 90 q 533 161 497 126 l 578 75 q 481 12 541 37 q 345 -14 421 -14 m 332 642 q 237 586 272 642 q 193 440 201 531 l 452 440 l 452 456 q 423 590 452 538 q 332 642 393 642 m 371 1046 l 529 1046 l 531 1043 l 367 866 l 252 866 l 371 1046 z "},"ê":{"ha":633,"x_min":52,"x_max":588,"o":"m 345 -14 q 130 86 208 -14 q 52 347 52 186 l 52 379 q 130 644 52 541 q 332 747 207 747 q 523 659 457 747 q 588 420 588 570 l 588 342 l 190 342 q 230 160 190 230 q 354 90 271 90 q 454 108 412 90 q 533 161 497 126 l 578 75 q 481 12 541 37 q 345 -14 421 -14 m 332 642 q 237 586 272 642 q 193 440 201 531 l 452 440 l 452 456 q 423 590 452 538 q 332 642 393 642 m 516 882 l 516 867 l 405 867 l 319 969 l 235 867 l 125 867 l 125 882 l 278 1040 l 361 1040 l 516 882 z "},"ë":{"ha":633,"x_min":52,"x_max":588,"o":"m 345 -14 q 130 86 208 -14 q 52 347 52 186 l 52 379 q 130 644 52 541 q 332 747 207 747 q 523 659 457 747 q 588 420 588 570 l 588 342 l 190 342 q 230 160 190 230 q 354 90 271 90 q 454 108 412 90 q 533 161 497 126 l 578 75 q 481 12 541 37 q 345 -14 421 -14 m 332 642 q 237 586 272 642 q 193 440 201 531 l 452 440 l 452 456 q 423 590 452 538 q 332 642 393 642 m 540 879 l 398 879 l 398 1004 l 540 1004 l 540 879 m 244 879 l 102 879 l 102 1004 l 244 1004 l 244 879 z "},"ì":{"ha":319,"x_min":-52,"x_max":227,"o":"m 227 0 l 89 0 l 89 734 l 227 734 l 227 0 m 225 854 l 105 854 l -52 1031 l -51 1034 l 109 1034 l 225 854 z "},"í":{"ha":319,"x_min":89,"x_max":370,"o":"m 227 0 l 89 0 l 89 734 l 227 734 l 227 0 m 210 1031 l 368 1031 l 370 1028 l 205 851 l 90 851 l 210 1031 z "},"î":{"ha":319,"x_min":-35,"x_max":355,"o":"m 227 0 l 89 0 l 89 734 l 227 734 l 227 0 m 355 867 l 355 852 l 244 852 l 159 954 l 75 852 l -35 852 l -35 867 l 117 1025 l 201 1025 l 355 867 z "},"ï":{"ha":319,"x_min":-59,"x_max":378,"o":"m 227 0 l 89 0 l 89 734 l 227 734 l 227 0 m 378 864 l 237 864 l 237 989 l 378 989 l 378 864 m 83 864 l -59 864 l -59 989 l 83 989 l 83 864 z "},"ð":{"ha":714,"x_min":41,"x_max":648,"o":"m 519 883 q 614 718 581 812 q 648 509 648 624 l 648 365 q 560 92 648 198 q 341 -14 473 -14 q 125 80 209 -14 q 41 313 41 174 q 119 563 41 469 q 328 656 198 656 q 426 635 380 656 q 502 576 471 613 l 505 580 q 474 709 498 651 q 412 812 450 767 l 250 706 l 207 770 l 353 865 q 301 897 328 883 q 246 922 275 911 l 290 1029 q 381 991 337 1014 q 463 937 425 968 l 589 1021 l 632 957 l 519 883 m 344 91 q 464 168 418 91 q 510 365 510 245 l 510 460 q 446 527 490 500 q 342 554 403 554 q 222 486 266 554 q 178 313 178 417 q 223 157 178 224 q 344 91 269 91 z "},"ñ":{"ha":684,"x_min":78,"x_max":606,"o":"m 204 734 l 212 625 q 291 715 243 683 q 399 747 338 747 q 551 675 496 747 q 606 452 606 604 l 606 0 l 468 0 l 468 451 q 439 597 468 555 q 352 640 410 640 q 271 615 304 640 q 216 547 237 591 l 216 0 l 78 0 l 78 734 l 204 734 m 549 1028 q 514 923 549 966 q 428 880 480 880 q 338 913 386 880 q 260 947 290 947 q 220 924 236 947 q 205 868 205 901 l 130 887 q 164 992 130 948 q 250 1036 198 1036 q 336 1003 284 1036 q 418 969 389 969 q 457 992 441 969 q 474 1049 474 1015 l 549 1028 z "},"ò":{"ha":684,"x_min":52,"x_max":631,"o":"m 52 375 q 129 643 52 538 q 341 747 206 747 q 554 643 476 747 q 631 375 631 538 l 631 357 q 554 89 631 193 q 342 -14 477 -14 q 129 89 206 -14 q 52 357 52 193 l 52 375 m 190 357 q 228 165 190 239 q 342 90 265 90 q 455 165 418 90 q 493 357 493 240 l 493 375 q 455 566 493 490 q 341 642 417 642 q 228 566 265 642 q 190 375 190 490 l 190 357 m 409 868 l 289 868 l 132 1045 l 133 1048 l 292 1048 l 409 868 z "},"ó":{"ha":684,"x_min":52,"x_max":631,"o":"m 52 375 q 129 643 52 538 q 341 747 206 747 q 554 643 476 747 q 631 375 631 538 l 631 357 q 554 89 631 193 q 342 -14 477 -14 q 129 89 206 -14 q 52 357 52 193 l 52 375 m 190 357 q 228 165 190 239 q 342 90 265 90 q 455 165 418 90 q 493 357 493 240 l 493 375 q 455 566 493 490 q 341 642 417 642 q 228 566 265 642 q 190 375 190 490 l 190 357 m 394 1046 l 552 1046 l 554 1042 l 390 865 l 275 865 l 394 1046 z "},"ô":{"ha":684,"x_min":52,"x_max":631,"o":"m 52 375 q 129 643 52 538 q 341 747 206 747 q 554 643 476 747 q 631 375 631 538 l 631 357 q 554 89 631 193 q 342 -14 477 -14 q 129 89 206 -14 q 52 357 52 193 l 52 375 m 190 357 q 228 165 190 239 q 342 90 265 90 q 455 165 418 90 q 493 357 493 240 l 493 375 q 455 566 493 490 q 341 642 417 642 q 228 566 265 642 q 190 375 190 490 l 190 357 m 539 881 l 539 866 l 428 866 l 342 968 l 258 866 l 149 866 l 149 882 l 301 1039 l 385 1039 l 539 881 z "},"õ":{"ha":684,"x_min":52,"x_max":631,"o":"m 52 375 q 129 643 52 538 q 341 747 206 747 q 554 643 476 747 q 631 375 631 538 l 631 357 q 554 89 631 193 q 342 -14 477 -14 q 129 89 206 -14 q 52 357 52 193 l 52 375 m 190 357 q 228 165 190 239 q 342 90 265 90 q 455 165 418 90 q 493 357 493 240 l 493 375 q 455 566 493 490 q 341 642 417 642 q 228 566 265 642 q 190 375 190 490 l 190 357 m 551 1028 q 516 923 551 966 q 430 880 482 880 q 340 913 388 880 q 262 947 292 947 q 222 924 238 947 q 207 868 207 901 l 132 887 q 166 992 132 948 q 252 1036 200 1036 q 338 1003 286 1036 q 420 969 391 969 q 459 992 443 969 q 476 1049 476 1015 l 551 1028 z "},"ö":{"ha":684,"x_min":52,"x_max":631,"o":"m 52 375 q 129 643 52 538 q 341 747 206 747 q 554 643 476 747 q 631 375 631 538 l 631 357 q 554 89 631 193 q 342 -14 477 -14 q 129 89 206 -14 q 52 357 52 193 l 52 375 m 190 357 q 228 165 190 239 q 342 90 265 90 q 455 165 418 90 q 493 357 493 240 l 493 375 q 455 566 493 490 q 341 642 417 642 q 228 566 265 642 q 190 375 190 490 l 190 357 m 562 878 l 420 878 l 420 1004 l 562 1004 l 562 878 m 267 878 l 125 878 l 125 1004 l 267 1004 l 267 878 z "},"÷":{"ha":690,"x_min":43,"x_max":635,"o":"m 635 412 l 43 412 l 43 528 l 635 528 l 635 412 m 410 675 l 270 675 l 270 807 l 410 807 l 410 675 m 410 127 l 270 127 l 270 260 l 410 260 l 410 127 z "},"ø":{"ha":684,"x_min":52,"x_max":631,"o":"m 52 375 q 129 643 52 538 q 341 747 206 747 q 401 741 372 747 q 456 723 429 734 l 498 823 l 581 823 l 520 680 q 603 551 574 630 q 631 375 631 472 l 631 357 q 554 89 631 193 q 342 -14 477 -14 q 286 -9 313 -14 q 236 5 260 -4 l 194 -94 l 112 -94 l 171 45 q 82 174 113 94 q 52 357 52 255 l 52 375 m 190 357 q 198 255 190 302 q 222 179 205 209 l 227 179 l 412 618 q 378 635 396 629 q 341 642 361 642 q 228 566 265 642 q 190 375 190 490 l 190 357 m 493 375 q 486 467 493 425 q 465 539 479 510 l 461 540 l 279 108 q 308 95 292 99 q 342 90 324 90 q 455 165 418 90 q 493 357 493 240 l 493 375 z "},"ù":{"ha":684,"x_min":76,"x_max":605,"o":"m 474 107 q 398 17 444 49 q 291 -14 352 -14 q 133 64 190 -14 q 76 306 76 142 l 76 734 l 214 734 l 214 304 q 241 139 214 186 q 324 92 269 92 q 411 116 375 92 q 467 184 446 140 l 467 734 l 605 734 l 605 0 l 488 0 l 474 107 m 408 854 l 288 854 l 130 1031 l 132 1034 l 291 1034 l 408 854 z "},"ú":{"ha":684,"x_min":76,"x_max":605,"o":"m 474 107 q 398 17 444 49 q 291 -14 352 -14 q 133 64 190 -14 q 76 306 76 142 l 76 734 l 214 734 l 214 304 q 241 139 214 186 q 324 92 269 92 q 411 116 375 92 q 467 184 446 140 l 467 734 l 605 734 l 605 0 l 488 0 l 474 107 m 393 1031 l 551 1031 l 553 1028 l 389 851 l 273 851 l 393 1031 z "},"û":{"ha":684,"x_min":76,"x_max":605,"o":"m 474 107 q 398 17 444 49 q 291 -14 352 -14 q 133 64 190 -14 q 76 306 76 142 l 76 734 l 214 734 l 214 304 q 241 139 214 186 q 324 92 269 92 q 411 116 375 92 q 467 184 446 140 l 467 734 l 605 734 l 605 0 l 488 0 l 474 107 m 538 867 l 538 852 l 427 852 l 341 954 l 257 852 l 147 852 l 147 867 l 300 1025 l 383 1025 l 538 867 z "},"ü":{"ha":684,"x_min":76,"x_max":605,"o":"m 474 107 q 398 17 444 49 q 291 -14 352 -14 q 133 64 190 -14 q 76 306 76 142 l 76 734 l 214 734 l 214 304 q 241 139 214 186 q 324 92 269 92 q 411 116 375 92 q 467 184 446 140 l 467 734 l 605 734 l 605 0 l 488 0 l 474 107 m 561 864 l 419 864 l 419 989 l 561 989 l 561 864 m 265 864 l 123 864 l 123 989 l 265 989 l 265 864 z "},"ý":{"ha":612,"x_min":14,"x_max":598,"o":"m 288 253 l 299 203 l 303 203 l 447 734 l 598 734 l 336 -114 q 266 -243 311 -189 q 137 -296 221 -296 q 100 -293 120 -296 q 62 -284 81 -289 l 77 -182 q 97 -185 84 -184 q 118 -186 111 -186 q 182 -152 159 -186 q 220 -71 206 -118 l 245 5 l 14 734 l 164 734 l 288 253 m 357 1031 l 515 1031 l 517 1028 l 353 851 l 238 851 l 357 1031 z "},"þ":{"ha":691,"x_min":84,"x_max":637,"o":"m 637 344 q 572 83 637 181 q 391 -14 507 -14 q 295 7 337 -14 q 224 70 254 28 l 224 -282 l 86 -282 l 86 0 l 84 0 l 84 1058 l 222 1058 l 222 655 q 294 724 252 700 q 391 747 336 747 q 572 641 507 747 q 637 358 637 534 l 637 344 m 498 358 q 462 562 498 483 q 353 640 426 640 q 275 615 307 640 q 224 546 243 589 l 224 176 q 275 113 243 135 q 354 90 307 90 q 463 159 427 90 q 498 344 498 229 l 498 358 z "},"ÿ":{"ha":612,"x_min":14,"x_max":598,"o":"m 288 253 l 299 203 l 303 203 l 447 734 l 598 734 l 336 -114 q 266 -243 311 -189 q 137 -296 221 -296 q 100 -293 120 -296 q 62 -284 81 -289 l 77 -182 q 97 -185 84 -184 q 118 -186 111 -186 q 182 -152 159 -186 q 220 -71 206 -118 l 245 5 l 14 734 l 164 734 l 288 253 m 526 864 l 385 864 l 385 989 l 526 989 l 526 864 m 231 864 l 89 864 l 89 989 l 231 989 l 231 864 z "},"Ā":{"ha":764,"x_min":22,"x_max":745,"o":"m 531 250 l 236 250 l 165 0 l 22 0 l 318 987 l 452 987 l 745 0 l 602 0 l 531 250 m 267 359 l 500 359 l 387 760 l 382 760 l 267 359 m 602 1120 l 165 1120 l 165 1210 l 602 1210 l 602 1120 z "},"ā":{"ha":656,"x_min":51,"x_max":600,"o":"m 460 0 q 447 59 452 33 q 440 111 441 85 q 363 21 411 57 q 254 -14 315 -14 q 103 44 156 -14 q 51 203 51 102 q 124 367 51 307 q 327 427 197 427 l 439 427 l 439 502 q 410 607 439 569 q 324 644 380 644 q 244 612 274 644 q 215 528 215 579 l 83 528 l 82 532 q 149 682 78 617 q 333 747 219 747 q 510 683 442 747 q 578 500 578 619 l 578 160 q 583 78 578 118 q 600 0 589 39 l 460 0 m 283 92 q 382 126 339 92 q 439 211 426 161 l 439 341 l 325 341 q 225 301 261 341 q 189 203 189 260 q 214 122 189 153 q 283 92 238 92 m 545 902 l 108 902 l 108 991 l 545 991 l 545 902 z "},"Ă":{"ha":764,"x_min":22,"x_max":745,"o":"m 531 250 l 236 250 l 165 0 l 22 0 l 318 987 l 452 987 l 745 0 l 602 0 l 531 250 m 267 359 l 500 359 l 387 760 l 382 760 l 267 359 m 573 1270 l 574 1265 q 525 1135 577 1185 q 382 1085 472 1085 q 240 1135 292 1085 q 191 1265 187 1185 l 192 1270 l 295 1270 q 316 1196 295 1224 q 382 1168 337 1168 q 447 1196 426 1168 q 469 1270 469 1225 l 573 1270 z "},"ă":{"ha":656,"x_min":51,"x_max":600,"o":"m 460 0 q 447 59 452 33 q 440 111 441 85 q 363 21 411 57 q 254 -14 315 -14 q 103 44 156 -14 q 51 203 51 102 q 124 367 51 307 q 327 427 197 427 l 439 427 l 439 502 q 410 607 439 569 q 324 644 380 644 q 244 612 274 644 q 215 528 215 579 l 83 528 l 82 532 q 149 682 78 617 q 333 747 219 747 q 510 683 442 747 q 578 500 578 619 l 578 160 q 583 78 578 118 q 600 0 589 39 l 460 0 m 283 92 q 382 126 339 92 q 439 211 426 161 l 439 341 l 325 341 q 225 301 261 341 q 189 203 189 260 q 214 122 189 153 q 283 92 238 92 m 516 1051 l 517 1047 q 468 917 520 967 q 326 867 415 867 q 183 917 235 867 q 134 1047 130 967 l 135 1051 l 238 1051 q 259 978 238 1006 q 326 949 280 949 q 390 978 369 949 q 412 1051 412 1006 l 516 1051 z "},"Ą":{"ha":764,"x_min":22,"x_max":770,"o":"m 531 250 l 236 250 l 165 0 l 22 0 l 318 987 l 452 987 l 745 0 l 602 0 l 531 250 m 267 359 l 500 359 l 387 760 l 382 760 l 267 359 m 714 0 q 659 -68 677 -38 q 641 -134 641 -98 q 652 -173 641 -156 q 694 -189 663 -189 q 724 -184 711 -189 q 750 -171 738 -178 l 770 -250 q 724 -271 749 -262 q 664 -280 699 -280 q 569 -245 606 -280 q 532 -148 532 -210 q 562 -49 532 -96 q 655 33 593 -2 l 714 0 z "},"ą":{"ha":656,"x_min":51,"x_max":624,"o":"m 460 0 q 447 59 452 33 q 440 111 441 85 q 363 21 411 57 q 254 -14 315 -14 q 103 44 156 -14 q 51 203 51 102 q 124 367 51 307 q 327 427 197 427 l 439 427 l 439 502 q 410 607 439 569 q 324 644 380 644 q 244 612 274 644 q 215 528 215 579 l 83 528 l 82 532 q 149 682 78 617 q 333 747 219 747 q 510 683 442 747 q 578 500 578 619 l 578 160 q 583 78 578 118 q 600 0 589 39 l 460 0 m 283 92 q 382 126 339 92 q 439 211 426 161 l 439 341 l 325 341 q 225 301 261 341 q 189 203 189 260 q 214 122 189 153 q 283 92 238 92 m 568 0 q 513 -68 532 -38 q 495 -134 495 -98 q 506 -173 495 -156 q 548 -189 517 -189 q 578 -184 565 -189 q 604 -171 592 -178 l 624 -250 q 578 -271 604 -262 q 518 -280 553 -280 q 423 -245 460 -280 q 386 -148 386 -210 q 416 -49 386 -96 q 509 33 447 -2 l 568 0 z "},"Ć":{"ha":768,"x_min":68,"x_max":717,"o":"m 712 297 l 713 293 q 632 66 716 147 q 401 -14 548 -14 q 159 83 249 -14 q 68 356 68 180 l 68 630 q 157 903 68 805 q 396 1002 246 1002 q 632 923 547 1002 q 714 694 717 845 l 713 690 l 581 690 q 534 846 581 796 q 396 896 488 896 q 256 828 305 896 q 206 632 206 760 l 206 356 q 257 159 206 227 q 401 90 308 90 q 535 139 490 90 q 580 297 580 189 l 712 297 m 451 1278 l 609 1278 l 611 1275 l 447 1098 l 332 1098 l 451 1278 z "},"ć":{"ha":629,"x_min":51,"x_max":582,"o":"m 334 90 q 419 130 385 90 q 454 236 454 169 l 578 236 l 579 232 q 509 57 582 128 q 334 -14 437 -14 q 125 89 199 -14 q 51 353 51 193 l 51 379 q 125 643 51 539 q 334 747 199 747 q 513 673 444 747 q 580 480 582 599 l 578 477 l 454 477 q 421 596 454 550 q 334 642 388 642 q 223 567 257 642 q 189 379 189 492 l 189 353 q 222 164 189 238 q 334 90 256 90 m 371 1046 l 529 1046 l 531 1042 l 367 865 l 252 865 l 371 1046 z "},"Ĉ":{"ha":768,"x_min":68,"x_max":717,"o":"m 712 297 l 713 293 q 632 66 716 147 q 401 -14 548 -14 q 159 83 249 -14 q 68 356 68 180 l 68 630 q 157 903 68 805 q 396 1002 246 1002 q 632 923 547 1002 q 714 694 717 845 l 713 690 l 581 690 q 534 846 581 796 q 396 896 488 896 q 256 828 305 896 q 206 632 206 760 l 206 356 q 257 159 206 227 q 401 90 308 90 q 535 139 490 90 q 580 297 580 189 l 712 297 m 596 1114 l 596 1099 l 485 1099 l 399 1201 l 315 1099 l 205 1099 l 205 1114 l 358 1272 l 441 1272 l 596 1114 z "},"ĉ":{"ha":629,"x_min":51,"x_max":582,"o":"m 334 90 q 419 130 385 90 q 454 236 454 169 l 578 236 l 579 232 q 509 57 582 128 q 334 -14 437 -14 q 125 89 199 -14 q 51 353 51 193 l 51 379 q 125 643 51 539 q 334 747 199 747 q 513 673 444 747 q 580 480 582 599 l 578 477 l 454 477 q 421 596 454 550 q 334 642 388 642 q 223 567 257 642 q 189 379 189 492 l 189 353 q 222 164 189 238 q 334 90 256 90 m 516 881 l 516 866 l 405 866 l 319 968 l 235 866 l 125 866 l 125 882 l 278 1039 l 361 1039 l 516 881 z "},"Ċ":{"ha":768,"x_min":68,"x_max":717,"o":"m 712 297 l 713 293 q 632 66 716 147 q 401 -14 548 -14 q 159 83 249 -14 q 68 356 68 180 l 68 630 q 157 903 68 805 q 396 1002 246 1002 q 632 923 547 1002 q 714 694 717 845 l 713 690 l 581 690 q 534 846 581 796 q 396 896 488 896 q 256 828 305 896 q 206 632 206 760 l 206 356 q 257 159 206 227 q 401 90 308 90 q 535 139 490 90 q 580 297 580 189 l 712 297 m 477 1110 l 321 1110 l 321 1246 l 477 1246 l 477 1110 z "},"ċ":{"ha":629,"x_min":51,"x_max":582,"o":"m 334 90 q 419 130 385 90 q 454 236 454 169 l 578 236 l 579 232 q 509 57 582 128 q 334 -14 437 -14 q 125 89 199 -14 q 51 353 51 193 l 51 379 q 125 643 51 539 q 334 747 199 747 q 513 673 444 747 q 580 480 582 599 l 578 477 l 454 477 q 421 596 454 550 q 334 642 388 642 q 223 567 257 642 q 189 379 189 492 l 189 353 q 222 164 189 238 q 334 90 256 90 m 397 878 l 241 878 l 241 1013 l 397 1013 l 397 878 z "},"Č":{"ha":768,"x_min":68,"x_max":717,"o":"m 712 297 l 713 293 q 632 66 716 147 q 401 -14 548 -14 q 159 83 249 -14 q 68 356 68 180 l 68 630 q 157 903 68 805 q 396 1002 246 1002 q 632 923 547 1002 q 714 694 717 845 l 713 690 l 581 690 q 534 846 581 796 q 396 896 488 896 q 256 828 305 896 q 206 632 206 760 l 206 356 q 257 159 206 227 q 401 90 308 90 q 535 139 490 90 q 580 297 580 189 l 712 297 m 399 1173 l 477 1275 l 601 1275 l 601 1263 l 446 1101 l 354 1101 l 199 1263 l 199 1275 l 321 1275 l 399 1173 z "},"č":{"ha":629,"x_min":51,"x_max":582,"o":"m 334 90 q 419 130 385 90 q 454 236 454 169 l 578 236 l 579 232 q 509 57 582 128 q 334 -14 437 -14 q 125 89 199 -14 q 51 353 51 193 l 51 379 q 125 643 51 539 q 334 747 199 747 q 513 673 444 747 q 580 480 582 599 l 578 477 l 454 477 q 421 596 454 550 q 334 642 388 642 q 223 567 257 642 q 189 379 189 492 l 189 353 q 222 164 189 238 q 334 90 256 90 m 319 941 l 397 1042 l 521 1042 l 521 1031 l 366 868 l 274 868 l 119 1030 l 119 1042 l 241 1042 l 319 941 z "},"Ď":{"ha":808,"x_min":94,"x_max":737,"o":"m 94 0 l 94 987 l 374 987 q 636 869 534 987 q 737 564 737 750 l 737 423 q 636 118 737 236 q 374 0 534 0 l 94 0 m 232 882 l 232 104 l 374 104 q 537 194 476 104 q 598 423 598 283 l 598 565 q 537 792 598 703 q 374 882 476 882 l 232 882 m 355 1159 l 433 1261 l 556 1261 l 556 1249 l 401 1086 l 309 1086 l 155 1249 l 155 1261 l 277 1261 l 355 1159 z "},"ď":{"ha":684,"x_min":54,"x_max":781,"o":"m 54 358 q 118 641 54 534 q 299 747 182 747 q 393 724 351 747 q 464 656 434 701 l 464 1058 l 602 1058 l 602 0 l 488 0 l 473 88 q 399 12 443 38 q 298 -14 355 -14 q 118 84 182 -14 q 54 344 54 182 l 54 358 m 191 344 q 225 160 191 229 q 333 92 260 92 q 411 117 379 92 q 464 186 444 141 l 464 541 q 411 613 444 587 q 334 640 378 640 q 225 562 260 640 q 191 358 191 484 l 191 344 m 781 963 l 711 811 l 649 811 l 684 968 l 684 1057 l 781 1057 l 781 963 z "},"Đ":{"ha":808,"x_min":5,"x_max":737,"o":"m 94 0 l 94 454 l 5 454 l 5 550 l 94 550 l 94 987 l 374 987 q 636 869 534 987 q 737 564 737 750 l 737 423 q 636 118 737 236 q 374 0 534 0 l 94 0 m 387 454 l 232 454 l 232 104 l 374 104 q 537 194 476 104 q 598 423 598 283 l 598 565 q 537 792 598 703 q 374 882 476 882 l 232 882 l 232 550 l 387 550 l 387 454 z "},"đ":{"ha":684,"x_min":54,"x_max":699,"o":"m 699 840 l 602 840 l 602 0 l 488 0 l 473 88 q 399 12 443 38 q 298 -14 355 -14 q 118 84 182 -14 q 54 344 54 182 l 54 358 q 118 641 54 534 q 299 747 182 747 q 393 724 351 747 q 464 656 434 701 l 464 840 l 317 840 l 317 935 l 464 935 l 464 1058 l 602 1058 l 602 935 l 699 935 l 699 840 m 191 344 q 225 160 191 229 q 333 92 260 92 q 411 117 379 92 q 464 186 444 141 l 464 541 q 411 613 444 587 q 334 640 378 640 q 225 562 260 640 q 191 358 191 484 l 191 344 z "},"Ē":{"ha":671,"x_min":94,"x_max":627,"o":"m 567 458 l 232 458 l 232 104 l 627 104 l 627 0 l 94 0 l 94 987 l 623 987 l 623 882 l 232 882 l 232 564 l 567 564 l 567 458 m 580 1120 l 143 1120 l 143 1210 l 580 1210 l 580 1120 z "},"ē":{"ha":633,"x_min":52,"x_max":588,"o":"m 345 -14 q 130 86 208 -14 q 52 347 52 186 l 52 379 q 130 644 52 541 q 332 747 207 747 q 523 659 457 747 q 588 420 588 570 l 588 342 l 190 342 q 230 160 190 230 q 354 90 271 90 q 454 108 412 90 q 533 161 497 126 l 578 75 q 481 12 541 37 q 345 -14 421 -14 m 332 642 q 237 586 272 642 q 193 440 201 531 l 452 440 l 452 456 q 423 590 452 538 q 332 642 393 642 m 539 903 l 102 903 l 102 992 l 539 992 l 539 903 z "},"Ĕ":{"ha":671,"x_min":94,"x_max":627,"o":"m 567 458 l 232 458 l 232 104 l 627 104 l 627 0 l 94 0 l 94 987 l 623 987 l 623 882 l 232 882 l 232 564 l 567 564 l 567 458 m 551 1270 l 553 1265 q 503 1135 555 1185 q 361 1085 450 1085 q 218 1135 271 1085 q 169 1265 165 1185 l 170 1270 l 273 1270 q 294 1196 273 1224 q 361 1168 315 1168 q 426 1196 404 1168 q 447 1270 447 1225 l 551 1270 z "},"ĕ":{"ha":633,"x_min":52,"x_max":588,"o":"m 345 -14 q 130 86 208 -14 q 52 347 52 186 l 52 379 q 130 644 52 541 q 332 747 207 747 q 523 659 457 747 q 588 420 588 570 l 588 342 l 190 342 q 230 160 190 230 q 354 90 271 90 q 454 108 412 90 q 533 161 497 126 l 578 75 q 481 12 541 37 q 345 -14 421 -14 m 332 642 q 237 586 272 642 q 193 440 201 531 l 452 440 l 452 456 q 423 590 452 538 q 332 642 393 642 m 511 1052 l 512 1048 q 462 918 515 968 q 320 867 410 867 q 177 918 230 867 q 128 1048 125 968 l 130 1052 l 233 1052 q 254 978 233 1006 q 320 950 275 950 q 385 979 363 950 q 406 1052 406 1007 l 511 1052 z "},"Ė":{"ha":671,"x_min":94,"x_max":627,"o":"m 567 458 l 232 458 l 232 104 l 627 104 l 627 0 l 94 0 l 94 987 l 623 987 l 623 882 l 232 882 l 232 564 l 567 564 l 567 458 m 437 1096 l 282 1096 l 282 1232 l 437 1232 l 437 1096 z "},"ė":{"ha":633,"x_min":52,"x_max":588,"o":"m 345 -14 q 130 86 208 -14 q 52 347 52 186 l 52 379 q 130 644 52 541 q 332 747 207 747 q 523 659 457 747 q 588 420 588 570 l 588 342 l 190 342 q 230 160 190 230 q 354 90 271 90 q 454 108 412 90 q 533 161 497 126 l 578 75 q 481 12 541 37 q 345 -14 421 -14 m 332 642 q 237 586 272 642 q 193 440 201 531 l 452 440 l 452 456 q 423 590 452 538 q 332 642 393 642 m 397 878 l 241 878 l 241 1014 l 397 1014 l 397 878 z "},"Ę":{"ha":671,"x_min":94,"x_max":627,"o":"m 567 458 l 232 458 l 232 104 l 627 104 l 627 0 l 94 0 l 94 987 l 623 987 l 623 882 l 232 882 l 232 564 l 567 564 l 567 458 m 399 0 q 344 -68 362 -38 q 326 -134 326 -98 q 337 -173 326 -156 q 378 -189 348 -189 q 409 -184 395 -189 q 435 -171 422 -178 l 454 -250 q 409 -271 434 -262 q 349 -280 383 -280 q 254 -245 291 -280 q 216 -148 216 -210 q 247 -49 216 -96 q 340 33 277 -2 l 399 0 z "},"ę":{"ha":633,"x_min":52,"x_max":588,"o":"m 345 -14 q 130 86 208 -14 q 52 347 52 186 l 52 379 q 130 644 52 541 q 332 747 207 747 q 523 659 457 747 q 588 420 588 570 l 588 342 l 190 342 q 230 160 190 230 q 354 90 271 90 q 454 108 412 90 q 533 161 497 126 l 578 75 q 481 12 541 37 q 345 -14 421 -14 m 332 642 q 237 586 272 642 q 193 440 201 531 l 452 440 l 452 456 q 423 590 452 538 q 332 642 393 642 m 515 37 q 460 -31 478 -1 q 441 -97 441 -61 q 453 -136 441 -119 q 494 -153 464 -153 q 525 -147 511 -153 q 551 -134 538 -142 l 570 -214 q 525 -235 550 -226 q 465 -243 499 -243 q 370 -209 407 -243 q 332 -111 332 -174 q 363 -13 332 -60 q 456 70 393 35 l 515 37 z "},"Ě":{"ha":671,"x_min":94,"x_max":627,"o":"m 567 458 l 232 458 l 232 104 l 627 104 l 627 0 l 94 0 l 94 987 l 623 987 l 623 882 l 232 882 l 232 564 l 567 564 l 567 458 m 360 1159 l 438 1261 l 562 1261 l 562 1249 l 406 1086 l 315 1086 l 160 1249 l 160 1261 l 282 1261 l 360 1159 z "},"ě":{"ha":633,"x_min":52,"x_max":588,"o":"m 345 -14 q 130 86 208 -14 q 52 347 52 186 l 52 379 q 130 644 52 541 q 332 747 207 747 q 523 659 457 747 q 588 420 588 570 l 588 342 l 190 342 q 230 160 190 230 q 354 90 271 90 q 454 108 412 90 q 533 161 497 126 l 578 75 q 481 12 541 37 q 345 -14 421 -14 m 332 642 q 237 586 272 642 q 193 440 201 531 l 452 440 l 452 456 q 423 590 452 538 q 332 642 393 642 m 319 941 l 397 1043 l 521 1043 l 521 1031 l 366 869 l 274 869 l 119 1031 l 119 1043 l 241 1043 l 319 941 z "},"Ĝ":{"ha":812,"x_min":70,"x_max":724,"o":"m 724 129 q 612 29 689 73 q 414 -14 535 -14 q 164 80 259 -14 q 70 349 70 174 l 70 642 q 161 907 70 813 q 405 1002 253 1002 q 636 924 555 1002 q 715 713 718 847 l 713 709 l 584 709 q 539 847 584 798 q 408 896 494 896 q 261 831 315 896 q 208 643 208 766 l 208 349 q 263 156 208 222 q 414 90 319 90 q 525 112 484 90 q 586 165 567 134 l 586 395 l 404 395 l 404 495 l 724 495 l 724 129 m 593 1114 l 593 1099 l 481 1099 l 396 1201 l 312 1099 l 202 1099 l 202 1114 l 355 1272 l 438 1272 l 593 1114 z "},"ĝ":{"ha":684,"x_min":56,"x_max":605,"o":"m 56 358 q 121 641 56 534 q 302 747 185 747 q 403 720 359 747 q 477 642 447 692 l 490 734 l 605 734 l 605 -1 q 530 -219 605 -142 q 317 -296 454 -296 q 217 -282 271 -296 q 121 -243 164 -268 l 144 -140 q 225 -173 181 -161 q 316 -185 269 -185 q 430 -139 393 -185 q 467 -1 467 -94 l 467 72 q 396 7 437 29 q 301 -14 355 -14 q 121 84 185 -14 q 56 344 56 182 l 56 358 m 195 344 q 229 160 195 228 q 336 92 262 92 q 415 116 382 92 q 467 183 447 140 l 467 544 q 415 614 447 589 q 337 640 382 640 q 229 562 264 640 q 195 358 195 484 l 195 344 m 528 881 l 528 866 l 417 866 l 332 968 l 248 866 l 138 866 l 138 882 l 290 1039 l 374 1039 l 528 881 z "},"Ğ":{"ha":812,"x_min":70,"x_max":724,"o":"m 724 129 q 612 29 689 73 q 414 -14 535 -14 q 164 80 259 -14 q 70 349 70 174 l 70 642 q 161 907 70 813 q 405 1002 253 1002 q 636 924 555 1002 q 715 713 718 847 l 713 709 l 584 709 q 539 847 584 798 q 408 896 494 896 q 261 831 315 896 q 208 643 208 766 l 208 349 q 263 156 208 222 q 414 90 319 90 q 525 112 484 90 q 586 165 567 134 l 586 395 l 404 395 l 404 495 l 724 495 l 724 129 m 587 1284 l 589 1280 q 539 1149 591 1200 q 397 1099 486 1099 q 254 1149 307 1099 q 205 1280 201 1200 l 206 1284 l 309 1284 q 330 1210 309 1238 q 397 1182 351 1182 q 461 1211 440 1182 q 483 1284 483 1239 l 587 1284 z "},"ğ":{"ha":684,"x_min":56,"x_max":605,"o":"m 56 358 q 121 641 56 534 q 302 747 185 747 q 403 720 359 747 q 477 642 447 692 l 490 734 l 605 734 l 605 -1 q 530 -219 605 -142 q 317 -296 454 -296 q 217 -282 271 -296 q 121 -243 164 -268 l 144 -140 q 225 -173 181 -161 q 316 -185 269 -185 q 430 -139 393 -185 q 467 -1 467 -94 l 467 72 q 396 7 437 29 q 301 -14 355 -14 q 121 84 185 -14 q 56 344 56 182 l 56 358 m 195 344 q 229 160 195 228 q 336 92 262 92 q 415 116 382 92 q 467 183 447 140 l 467 544 q 415 614 447 589 q 337 640 382 640 q 229 562 264 640 q 195 358 195 484 l 195 344 m 523 1051 l 524 1047 q 474 917 527 967 q 332 867 422 867 q 190 917 242 867 q 140 1047 137 967 l 142 1051 l 245 1051 q 266 978 245 1006 q 332 949 287 949 q 397 978 376 949 q 418 1051 418 1006 l 523 1051 z "},"Ġ":{"ha":812,"x_min":70,"x_max":724,"o":"m 724 129 q 612 29 689 73 q 414 -14 535 -14 q 164 80 259 -14 q 70 349 70 174 l 70 642 q 161 907 70 813 q 405 1002 253 1002 q 636 924 555 1002 q 715 713 718 847 l 713 709 l 584 709 q 539 847 584 798 q 408 896 494 896 q 261 831 315 896 q 208 643 208 766 l 208 349 q 263 156 208 222 q 414 90 319 90 q 525 112 484 90 q 586 165 567 134 l 586 395 l 404 395 l 404 495 l 724 495 l 724 129 m 473 1110 l 318 1110 l 318 1246 l 473 1246 l 473 1110 z "},"ġ":{"ha":684,"x_min":56,"x_max":605,"o":"m 56 358 q 121 641 56 534 q 302 747 185 747 q 403 720 359 747 q 477 642 447 692 l 490 734 l 605 734 l 605 -1 q 530 -219 605 -142 q 317 -296 454 -296 q 217 -282 271 -296 q 121 -243 164 -268 l 144 -140 q 225 -173 181 -161 q 316 -185 269 -185 q 430 -139 393 -185 q 467 -1 467 -94 l 467 72 q 396 7 437 29 q 301 -14 355 -14 q 121 84 185 -14 q 56 344 56 182 l 56 358 m 195 344 q 229 160 195 228 q 336 92 262 92 q 415 116 382 92 q 467 183 447 140 l 467 544 q 415 614 447 589 q 337 640 382 640 q 229 562 264 640 q 195 358 195 484 l 195 344 m 409 878 l 254 878 l 254 1013 l 409 1013 l 409 878 z "},"Ģ":{"ha":812,"x_min":70,"x_max":724,"o":"m 724 129 q 612 29 689 73 q 414 -14 535 -14 q 164 80 259 -14 q 70 349 70 174 l 70 642 q 161 907 70 813 q 405 1002 253 1002 q 636 924 555 1002 q 715 713 718 847 l 713 709 l 584 709 q 539 847 584 798 q 408 896 494 896 q 261 831 315 896 q 208 643 208 766 l 208 349 q 263 156 208 222 q 414 90 319 90 q 525 112 484 90 q 586 165 567 134 l 586 395 l 404 395 l 404 495 l 724 495 l 724 129 m 448 -177 l 377 -329 l 315 -329 l 350 -172 l 350 -83 l 448 -83 l 448 -177 z "},"ģ":{"ha":684,"x_min":56,"x_max":605,"o":"m 56 358 q 121 641 56 534 q 302 747 185 747 q 403 720 359 747 q 477 642 447 692 l 490 734 l 605 734 l 605 -1 q 530 -219 605 -142 q 317 -296 454 -296 q 217 -282 271 -296 q 121 -243 164 -268 l 144 -140 q 225 -173 181 -161 q 316 -185 269 -185 q 430 -139 393 -185 q 467 -1 467 -94 l 467 72 q 396 7 437 29 q 301 -14 355 -14 q 121 84 185 -14 q 56 344 56 182 l 56 358 m 195 344 q 229 160 195 228 q 336 92 262 92 q 415 116 382 92 q 467 183 447 140 l 467 544 q 415 614 447 589 q 337 640 382 640 q 229 562 264 640 q 195 358 195 484 l 195 344 m 268 957 l 334 1118 l 408 1118 l 390 953 l 390 854 l 268 854 l 268 957 z "},"Ĥ":{"ha":850,"x_min":94,"x_max":756,"o":"m 756 0 l 618 0 l 618 435 l 232 435 l 232 0 l 94 0 l 94 987 l 232 987 l 232 541 l 618 541 l 618 987 l 756 987 l 756 0 m 618 1099 l 618 1084 l 507 1084 l 422 1187 l 338 1084 l 228 1084 l 228 1100 l 380 1257 l 464 1257 l 618 1099 z "},"ĥ":{"ha":684,"x_min":77,"x_max":606,"o":"m 216 635 q 292 718 247 688 q 394 747 338 747 q 550 674 494 747 q 606 449 606 601 l 606 0 l 468 0 l 468 450 q 439 596 468 551 q 353 640 410 640 q 271 617 305 640 q 216 553 237 594 l 216 0 l 77 0 l 77 1058 l 216 1058 l 216 635 m 499 1099 l 499 1084 l 388 1084 l 302 1186 l 218 1084 l 109 1084 l 109 1099 l 261 1257 l 345 1257 l 499 1099 z "},"Ħ":{"ha":848,"x_min":18,"x_max":836,"o":"m 762 786 l 836 786 l 836 696 l 762 696 l 762 0 l 624 0 l 624 435 l 237 435 l 237 0 l 100 0 l 100 696 l 18 696 l 18 786 l 100 786 l 100 987 l 237 987 l 237 786 l 624 786 l 624 987 l 762 987 l 762 786 m 237 541 l 624 541 l 624 696 l 237 696 l 237 541 z "},"ħ":{"ha":684,"x_min":-5,"x_max":606,"o":"m 376 839 l 216 839 l 216 635 q 292 718 247 688 q 394 747 338 747 q 550 674 494 747 q 606 449 606 601 l 606 0 l 468 0 l 468 450 q 439 596 468 551 q 353 640 410 640 q 271 617 305 640 q 216 553 237 594 l 216 0 l 77 0 l 77 839 l -5 839 l -5 935 l 77 935 l 77 1058 l 216 1058 l 216 935 l 376 935 l 376 839 z "},"Ĩ":{"ha":351,"x_min":-35,"x_max":384,"o":"m 244 0 l 106 0 l 106 987 l 244 987 l 244 0 m 384 1246 q 350 1141 384 1184 q 263 1099 315 1099 q 173 1132 221 1099 q 95 1165 125 1165 q 56 1142 71 1165 q 40 1086 40 1120 l -35 1105 q -1 1211 -35 1166 q 85 1255 33 1255 q 172 1221 119 1255 q 254 1187 224 1187 q 293 1211 276 1187 q 309 1267 309 1234 l 384 1246 z "},"ĩ":{"ha":319,"x_min":-52,"x_max":367,"o":"m 227 0 l 89 0 l 89 734 l 227 734 l 227 0 m 367 1014 q 333 909 367 951 q 246 866 298 866 q 156 899 204 866 q 78 932 108 932 q 39 910 54 932 q 23 854 23 887 l -52 873 q -18 978 -52 934 q 68 1022 16 1022 q 155 988 102 1022 q 237 955 207 955 q 276 978 259 955 q 292 1035 292 1001 l 367 1014 z "},"Ī":{"ha":351,"x_min":-41,"x_max":395,"o":"m 244 0 l 106 0 l 106 987 l 244 987 l 244 0 m 395 1120 l -41 1120 l -41 1210 l 395 1210 l 395 1120 z "},"ī":{"ha":319,"x_min":-58,"x_max":378,"o":"m 227 0 l 89 0 l 89 734 l 227 734 l 227 0 m 378 888 l -58 888 l -58 978 l 378 978 l 378 888 z "},"Ĭ":{"ha":351,"x_min":-19,"x_max":371,"o":"m 244 0 l 106 0 l 106 987 l 244 987 l 244 0 m 367 1270 l 368 1265 q 318 1135 371 1185 q 176 1085 266 1085 q 34 1135 86 1085 q -16 1265 -19 1185 l -14 1270 l 89 1270 q 110 1196 89 1224 q 176 1168 131 1168 q 241 1196 220 1168 q 262 1270 262 1225 l 367 1270 z "},"ĭ":{"ha":319,"x_min":-36,"x_max":354,"o":"m 227 0 l 89 0 l 89 734 l 227 734 l 227 0 m 350 1037 l 351 1033 q 301 903 354 953 q 159 852 249 852 q 17 903 69 852 q -33 1033 -36 953 l -31 1037 l 72 1037 q 93 963 72 991 q 159 935 114 935 q 224 964 203 935 q 245 1037 245 992 l 350 1037 z "},"Į":{"ha":351,"x_min":31,"x_max":269,"o":"m 244 0 l 106 0 l 106 987 l 244 987 l 244 0 m 213 0 q 158 -68 176 -38 q 140 -134 140 -98 q 151 -173 140 -156 q 193 -189 162 -189 q 223 -184 210 -189 q 249 -171 237 -178 l 269 -250 q 223 -271 248 -262 q 163 -280 197 -280 q 68 -245 105 -280 q 31 -148 31 -210 q 61 -49 31 -96 q 154 33 92 -2 l 213 0 z "},"į":{"ha":315,"x_min":13,"x_max":251,"o":"m 227 0 l 88 0 l 88 734 l 227 734 l 227 0 m 227 926 l 88 926 l 88 1058 l 227 1058 l 227 926 m 195 0 q 140 -68 159 -38 q 122 -134 122 -98 q 133 -173 122 -156 q 175 -189 144 -189 q 205 -184 192 -189 q 231 -171 219 -178 l 251 -250 q 205 -271 231 -262 q 145 -280 180 -280 q 50 -245 87 -280 q 13 -148 13 -210 q 43 -49 13 -96 q 136 33 74 -2 l 195 0 z "},"İ":{"ha":351,"x_min":97,"x_max":252,"o":"m 244 0 l 106 0 l 106 987 l 244 987 l 244 0 m 252 1096 l 97 1096 l 97 1232 l 252 1232 l 252 1096 z "},"ı":{"ha":319,"x_min":89,"x_max":227,"o":"m 227 0 l 89 0 l 89 734 l 227 734 l 227 0 z "},"Ĳ":{"ha":1019,"x_min":106,"x_max":927,"o":"m 244 0 l 106 0 l 106 987 l 244 987 l 244 0 m 789 987 l 927 987 l 927 292 q 852 69 927 152 q 661 -14 778 -14 q 460 59 534 -14 q 389 274 387 133 l 391 278 l 524 278 q 560 136 524 182 q 661 90 596 90 q 753 145 717 90 q 789 292 789 199 l 789 987 z "},"ĳ":{"ha":634,"x_min":88,"x_max":547,"o":"m 227 0 l 88 0 l 88 734 l 227 734 l 227 0 m 227 926 l 88 926 l 88 1058 l 227 1058 l 227 926 m 547 734 l 547 -50 q 493 -232 547 -168 q 342 -296 439 -296 q 306 -293 322 -296 q 269 -284 289 -290 l 277 -179 q 302 -186 288 -183 q 329 -189 317 -189 q 388 -154 366 -189 q 410 -50 410 -120 l 410 734 l 547 734 m 544 928 l 406 928 l 406 1058 l 544 1058 l 544 928 z "},"Ĵ":{"ha":668,"x_min":35,"x_max":696,"o":"m 437 987 l 576 987 l 576 292 q 501 69 576 152 q 309 -14 427 -14 q 109 59 183 -14 q 38 274 35 133 l 40 278 l 172 278 q 209 136 172 182 q 309 90 245 90 q 401 145 366 90 q 437 292 437 199 l 437 987 m 696 1090 l 696 1075 l 585 1075 l 500 1177 l 416 1075 l 306 1075 l 306 1090 l 458 1248 l 542 1248 l 696 1090 z "},"ĵ":{"ha":327,"x_min":-43,"x_max":358,"o":"m 236 734 l 236 -50 q 182 -232 236 -168 q 31 -296 127 -296 q -6 -293 11 -296 q -43 -284 -22 -290 l -35 -182 q -7 -188 -24 -185 q 22 -191 9 -191 q 78 -154 58 -191 q 98 -50 98 -117 l 98 734 l 236 734 m 358 857 l 358 842 l 247 842 l 161 944 l 77 842 l -33 842 l -33 857 l 120 1015 l 203 1015 l 358 857 z "},"Ķ":{"ha":766,"x_min":94,"x_max":758,"o":"m 300 444 l 232 444 l 232 0 l 94 0 l 94 987 l 232 987 l 232 555 l 290 555 l 566 987 l 732 987 l 407 524 l 758 0 l 583 0 l 300 444 m 419 -169 l 349 -321 l 287 -321 l 321 -164 l 321 -75 l 419 -75 l 419 -169 z "},"ķ":{"ha":633,"x_min":80,"x_max":629,"o":"m 269 336 l 218 336 l 218 0 l 80 0 l 80 1058 l 218 1058 l 218 441 l 266 441 l 442 734 l 604 734 l 380 400 l 629 0 l 468 0 l 269 336 m 370 -168 l 300 -319 l 238 -319 l 273 -163 l 273 -73 l 370 -73 l 370 -168 z "},"ĸ":{"ha":694,"x_min":87,"x_max":663,"o":"m 288 310 l 225 310 l 225 0 l 87 0 l 87 734 l 225 734 l 225 427 l 279 427 l 475 734 l 648 734 l 397 390 l 663 0 l 487 0 l 288 310 z "},"Ĺ":{"ha":669,"x_min":94,"x_max":631,"o":"m 232 104 l 631 104 l 631 0 l 94 0 l 94 987 l 232 987 l 232 104 m 214 1230 l 372 1230 l 374 1226 l 210 1049 l 95 1049 l 214 1230 z "},"ĺ":{"ha":315,"x_min":88,"x_max":369,"o":"m 227 0 l 88 0 l 88 1058 l 227 1058 l 227 0 m 209 1276 l 367 1276 l 369 1272 l 205 1095 l 90 1095 l 209 1276 z "},"Ļ":{"ha":669,"x_min":94,"x_max":631,"o":"m 232 104 l 631 104 l 631 0 l 94 0 l 94 987 l 232 987 l 232 104 m 406 -168 l 336 -319 l 274 -319 l 309 -163 l 309 -73 l 406 -73 l 406 -168 z "},"ļ":{"ha":315,"x_min":70,"x_max":227,"o":"m 227 0 l 88 0 l 88 1058 l 227 1058 l 227 0 m 202 -168 l 132 -319 l 70 -319 l 104 -163 l 104 -73 l 202 -73 l 202 -168 z "},"Ľ":{"ha":669,"x_min":94,"x_max":631,"o":"m 232 104 l 631 104 l 631 0 l 94 0 l 94 987 l 232 987 l 232 104 m 482 893 l 412 741 l 350 741 l 385 898 l 385 987 l 482 987 l 482 893 z "},"ľ":{"ha":315,"x_min":88,"x_max":419,"o":"m 227 0 l 88 0 l 88 1058 l 227 1058 l 227 0 m 419 963 l 349 811 l 287 811 l 321 968 l 321 1057 l 419 1057 l 419 963 z "},"Ŀ":{"ha":669,"x_min":94,"x_max":631,"o":"m 232 104 l 631 104 l 631 0 l 94 0 l 94 987 l 232 987 l 232 104 m 509 464 l 354 464 l 354 600 l 509 600 l 509 464 z "},"ŀ":{"ha":315,"x_min":88,"x_max":389,"o":"m 227 0 l 88 0 l 88 1058 l 227 1058 l 227 0 m 389 453 l 233 453 l 233 589 l 389 589 l 389 453 z "},"Ł":{"ha":626,"x_min":18,"x_max":627,"o":"m 227 578 l 380 631 l 380 529 l 227 475 l 227 104 l 627 104 l 627 0 l 90 0 l 90 427 l 18 402 l 18 505 l 90 530 l 90 987 l 227 987 l 227 578 z "},"ł":{"ha":344,"x_min":19,"x_max":326,"o":"m 240 600 l 326 635 l 326 533 l 240 497 l 240 0 l 102 0 l 102 440 l 19 406 l 19 509 l 102 543 l 102 1058 l 240 1058 l 240 600 z "},"Ń":{"ha":851,"x_min":94,"x_max":757,"o":"m 757 0 l 618 0 l 236 728 l 232 727 l 232 0 l 94 0 l 94 987 l 232 987 l 614 261 l 618 262 l 618 987 l 757 987 l 757 0 m 475 1264 l 633 1264 l 635 1261 l 471 1084 l 356 1084 l 475 1264 z "},"ń":{"ha":684,"x_min":78,"x_max":606,"o":"m 204 734 l 212 625 q 291 715 243 683 q 399 747 338 747 q 551 675 496 747 q 606 452 606 604 l 606 0 l 468 0 l 468 451 q 439 597 468 555 q 352 640 410 640 q 271 615 304 640 q 216 547 237 591 l 216 0 l 78 0 l 78 734 l 204 734 m 392 1046 l 550 1046 l 552 1042 l 388 865 l 273 865 l 392 1046 z "},"Ņ":{"ha":851,"x_min":94,"x_max":757,"o":"m 757 0 l 618 0 l 236 728 l 232 727 l 232 0 l 94 0 l 94 987 l 232 987 l 614 261 l 618 262 l 618 987 l 757 987 l 757 0 m 469 -168 l 398 -319 l 336 -319 l 371 -163 l 371 -73 l 469 -73 l 469 -168 z "},"ņ":{"ha":684,"x_min":78,"x_max":606,"o":"m 204 734 l 212 625 q 291 715 243 683 q 399 747 338 747 q 551 675 496 747 q 606 452 606 604 l 606 0 l 468 0 l 468 451 q 439 597 468 555 q 352 640 410 640 q 271 615 304 640 q 216 547 237 591 l 216 0 l 78 0 l 78 734 l 204 734 m 385 -168 l 315 -319 l 253 -319 l 288 -163 l 288 -73 l 385 -73 l 385 -168 z "},"Ň":{"ha":851,"x_min":94,"x_max":757,"o":"m 757 0 l 618 0 l 236 728 l 232 727 l 232 0 l 94 0 l 94 987 l 232 987 l 614 261 l 618 262 l 618 987 l 757 987 l 757 0 m 424 1159 l 502 1261 l 625 1261 l 625 1249 l 470 1086 l 378 1086 l 224 1249 l 224 1261 l 346 1261 l 424 1159 z "},"ň":{"ha":684,"x_min":78,"x_max":606,"o":"m 204 734 l 212 625 q 291 715 243 683 q 399 747 338 747 q 551 675 496 747 q 606 452 606 604 l 606 0 l 468 0 l 468 451 q 439 597 468 555 q 352 640 410 640 q 271 615 304 640 q 216 547 237 591 l 216 0 l 78 0 l 78 734 l 204 734 m 340 941 l 418 1042 l 542 1042 l 542 1031 l 387 868 l 295 868 l 140 1030 l 140 1042 l 262 1042 l 340 941 z "},"ŉ":{"ha":684,"x_min":-12,"x_max":606,"o":"m 204 734 l 212 625 q 291 715 243 683 q 399 747 338 747 q 551 675 496 747 q 606 452 606 604 l 606 0 l 468 0 l 468 451 q 439 597 468 555 q 352 640 410 640 q 271 615 304 640 q 216 547 237 591 l 216 0 l 78 0 l 78 734 l 204 734 m 120 962 l 50 810 l -12 810 l 22 967 l 22 1057 l 120 1057 l 120 962 z "},"Ŋ":{"ha":843,"x_min":91,"x_max":754,"o":"m 754 987 l 754 -50 q 700 -232 754 -168 q 549 -296 645 -296 q 510 -293 528 -296 q 473 -284 493 -290 l 481 -182 q 509 -188 492 -185 q 539 -191 526 -191 q 595 -154 575 -191 q 616 -50 616 -117 l 616 0 l 233 727 l 229 726 l 229 0 l 91 0 l 91 987 l 229 987 l 612 260 l 616 261 l 616 987 l 754 987 z "},"ŋ":{"ha":684,"x_min":78,"x_max":604,"o":"m 204 734 l 212 628 q 290 716 243 685 q 396 747 337 747 q 549 675 494 747 q 604 452 604 604 l 604 -50 q 549 -232 604 -168 q 398 -296 494 -296 q 359 -293 377 -296 q 323 -284 342 -290 l 330 -178 q 358 -184 341 -181 q 389 -187 376 -187 q 445 -152 425 -187 q 465 -50 465 -116 l 465 451 q 436 597 465 555 q 349 640 407 640 q 270 617 303 640 q 216 553 237 593 l 216 0 l 78 0 l 78 734 l 204 734 z "},"Ō":{"ha":826,"x_min":66,"x_max":759,"o":"m 759 357 q 664 84 759 182 q 410 -14 569 -14 q 159 84 252 -14 q 66 357 66 182 l 66 629 q 159 903 66 804 q 409 1002 252 1002 q 664 903 568 1002 q 759 629 759 804 l 759 357 m 622 631 q 567 826 622 760 q 409 893 511 893 q 257 826 310 893 q 203 631 203 760 l 203 357 q 257 160 203 227 q 410 93 311 93 q 567 160 512 93 q 622 357 622 227 l 622 631 m 631 1135 l 195 1135 l 195 1224 l 631 1224 l 631 1135 z "},"ō":{"ha":684,"x_min":52,"x_max":631,"o":"m 52 375 q 129 643 52 538 q 341 747 206 747 q 554 643 476 747 q 631 375 631 538 l 631 357 q 554 89 631 193 q 342 -14 477 -14 q 129 89 206 -14 q 52 357 52 193 l 52 375 m 190 357 q 228 165 190 239 q 342 90 265 90 q 455 165 418 90 q 493 357 493 240 l 493 375 q 455 566 493 490 q 341 642 417 642 q 228 566 265 642 q 190 375 190 490 l 190 357 m 562 902 l 125 902 l 125 991 l 562 991 l 562 902 z "},"Ŏ":{"ha":826,"x_min":66,"x_max":759,"o":"m 759 357 q 664 84 759 182 q 410 -14 569 -14 q 159 84 252 -14 q 66 357 66 182 l 66 629 q 159 903 66 804 q 409 1002 252 1002 q 664 903 568 1002 q 759 629 759 804 l 759 357 m 622 631 q 567 826 622 760 q 409 893 511 893 q 257 826 310 893 q 203 631 203 760 l 203 357 q 257 160 203 227 q 410 93 311 93 q 567 160 512 93 q 622 357 622 227 l 622 631 m 603 1284 l 604 1280 q 554 1149 607 1200 q 412 1099 502 1099 q 270 1149 322 1099 q 220 1280 217 1200 l 222 1284 l 325 1284 q 346 1210 325 1238 q 412 1182 367 1182 q 477 1211 456 1182 q 498 1284 498 1239 l 603 1284 z "},"ŏ":{"ha":684,"x_min":52,"x_max":631,"o":"m 52 375 q 129 643 52 538 q 341 747 206 747 q 554 643 476 747 q 631 375 631 538 l 631 357 q 554 89 631 193 q 342 -14 477 -14 q 129 89 206 -14 q 52 357 52 193 l 52 375 m 190 357 q 228 165 190 239 q 342 90 265 90 q 455 165 418 90 q 493 357 493 240 l 493 375 q 455 566 493 490 q 341 642 417 642 q 228 566 265 642 q 190 375 190 490 l 190 357 m 534 1051 l 535 1047 q 485 917 538 967 q 343 867 433 867 q 200 917 253 867 q 151 1047 148 967 l 153 1051 l 256 1051 q 277 978 256 1006 q 343 949 298 949 q 408 978 387 949 q 429 1051 429 1006 l 534 1051 z "},"Ő":{"ha":826,"x_min":66,"x_max":759,"o":"m 759 357 q 664 84 759 182 q 410 -14 569 -14 q 159 84 252 -14 q 66 357 66 182 l 66 629 q 159 903 66 804 q 409 1002 252 1002 q 664 903 568 1002 q 759 629 759 804 l 759 357 m 622 631 q 567 826 622 760 q 409 893 511 893 q 257 826 310 893 q 203 631 203 760 l 203 357 q 257 160 203 227 q 410 93 311 93 q 567 160 512 93 q 622 357 622 227 l 622 631 m 575 1280 l 718 1280 l 720 1276 l 549 1100 l 435 1100 l 433 1103 l 575 1280 m 369 1280 l 509 1280 l 366 1100 l 254 1100 l 369 1280 z "},"ő":{"ha":684,"x_min":52,"x_max":650,"o":"m 52 375 q 129 643 52 538 q 341 747 206 747 q 554 643 476 747 q 631 375 631 538 l 631 357 q 554 89 631 193 q 342 -14 477 -14 q 129 89 206 -14 q 52 357 52 193 l 52 375 m 190 357 q 228 165 190 239 q 342 90 265 90 q 455 165 418 90 q 493 357 493 240 l 493 375 q 455 566 493 490 q 341 642 417 642 q 228 566 265 642 q 190 375 190 490 l 190 357 m 506 1048 l 648 1048 l 650 1044 l 479 867 l 366 867 l 363 871 l 506 1048 m 300 1048 l 440 1048 l 297 867 l 185 867 l 300 1048 z "},"Œ":{"ha":1156,"x_min":64,"x_max":1125,"o":"m 1065 458 l 730 458 l 730 104 l 1125 104 l 1125 0 l 593 0 l 593 987 l 1122 987 l 1122 882 l 730 882 l 730 564 l 1065 564 l 1065 458 m 401 1002 q 484 998 442 1002 q 572 987 526 994 l 572 879 q 489 892 532 887 q 401 897 446 897 q 255 818 308 897 q 201 598 201 740 l 201 391 q 255 170 201 248 q 403 91 309 91 q 489 95 446 91 q 572 109 532 100 l 572 0 q 480 -11 519 -7 q 403 -14 441 -14 q 158 98 252 -14 q 64 391 64 210 l 64 597 q 157 889 64 777 q 401 1002 251 1002 z "},"œ":{"ha":1091,"x_min":52,"x_max":1117,"o":"m 873 -14 q 706 39 774 -14 q 605 187 637 93 q 505 39 572 93 q 342 -14 437 -14 q 129 89 206 -14 q 52 357 52 193 l 52 375 q 129 643 52 538 q 341 747 206 747 q 505 692 437 747 q 606 542 573 637 q 704 692 637 637 q 861 747 771 747 q 1052 659 986 747 q 1117 420 1117 570 l 1117 342 l 719 342 q 759 160 719 230 q 883 90 800 90 q 983 108 941 90 q 1062 161 1026 126 l 1107 75 q 1010 12 1070 37 q 873 -14 950 -14 m 190 357 q 228 165 190 239 q 342 90 265 90 q 455 165 418 90 q 493 357 493 240 l 493 375 q 455 566 493 490 q 341 642 417 642 q 228 566 265 642 q 190 375 190 490 l 190 357 m 861 642 q 766 586 801 642 q 722 440 730 531 l 981 440 l 981 456 q 952 590 981 538 q 861 642 922 642 z "},"Ŕ":{"ha":772,"x_min":94,"x_max":725,"o":"m 231 425 l 231 0 l 94 0 l 94 987 l 385 987 q 605 914 527 987 q 682 706 682 842 q 646 571 682 629 q 542 481 610 513 q 651 395 618 455 q 685 248 685 336 l 685 161 q 694 77 685 116 q 725 16 703 37 l 725 0 l 583 0 q 553 68 560 22 q 546 163 546 114 l 546 246 q 508 377 546 329 q 401 425 469 425 l 231 425 m 231 530 l 378 530 q 504 575 463 530 q 545 703 545 621 q 505 835 545 788 q 385 882 465 882 l 231 882 l 231 530 m 416 1264 l 574 1264 l 576 1261 l 412 1084 l 297 1084 l 416 1264 z "},"ŕ":{"ha":427,"x_min":79,"x_max":456,"o":"m 394 619 l 334 623 q 262 596 291 623 q 218 523 233 570 l 218 0 l 79 0 l 79 734 l 206 734 l 216 625 q 278 715 240 683 q 366 747 316 747 q 390 745 378 747 q 410 739 401 743 l 394 619 m 296 1046 l 454 1046 l 456 1042 l 292 865 l 176 865 l 296 1046 z "},"Ŗ":{"ha":772,"x_min":94,"x_max":725,"o":"m 231 425 l 231 0 l 94 0 l 94 987 l 385 987 q 605 914 527 987 q 682 706 682 842 q 646 571 682 629 q 542 481 610 513 q 651 395 618 455 q 685 248 685 336 l 685 161 q 694 77 685 116 q 725 16 703 37 l 725 0 l 583 0 q 553 68 560 22 q 546 163 546 114 l 546 246 q 508 377 546 329 q 401 425 469 425 l 231 425 m 231 530 l 378 530 q 504 575 463 530 q 545 703 545 621 q 505 835 545 788 q 385 882 465 882 l 231 882 l 231 530 m 410 -168 l 339 -319 l 277 -319 l 312 -163 l 312 -73 l 410 -73 l 410 -168 z "},"ŗ":{"ha":427,"x_min":68,"x_max":410,"o":"m 394 619 l 334 623 q 262 596 291 623 q 218 523 233 570 l 218 0 l 79 0 l 79 734 l 206 734 l 216 625 q 278 715 240 683 q 366 747 316 747 q 390 745 378 747 q 410 739 401 743 l 394 619 m 201 -167 l 130 -319 l 68 -319 l 103 -162 l 103 -73 l 201 -73 l 201 -167 z "},"Ř":{"ha":772,"x_min":94,"x_max":725,"o":"m 231 425 l 231 0 l 94 0 l 94 987 l 385 987 q 605 914 527 987 q 682 706 682 842 q 646 571 682 629 q 542 481 610 513 q 651 395 618 455 q 685 248 685 336 l 685 161 q 694 77 685 116 q 725 16 703 37 l 725 0 l 583 0 q 553 68 560 22 q 546 163 546 114 l 546 246 q 508 377 546 329 q 401 425 469 425 l 231 425 m 231 530 l 378 530 q 504 575 463 530 q 545 703 545 621 q 505 835 545 788 q 385 882 465 882 l 231 882 l 231 530 m 365 1159 l 443 1261 l 566 1261 l 566 1249 l 411 1086 l 319 1086 l 165 1249 l 165 1261 l 287 1261 l 365 1159 z "},"ř":{"ha":427,"x_min":45,"x_max":446,"o":"m 394 619 l 334 623 q 262 596 291 623 q 218 523 233 570 l 218 0 l 79 0 l 79 734 l 206 734 l 216 625 q 278 715 240 683 q 366 747 316 747 q 390 745 378 747 q 410 739 401 743 l 394 619 m 245 941 l 323 1042 l 446 1042 l 446 1031 l 291 868 l 199 868 l 45 1030 l 45 1042 l 167 1042 l 245 941 z "},"Ś":{"ha":742,"x_min":58,"x_max":682,"o":"m 545 248 q 506 360 545 316 q 370 439 467 404 q 156 551 231 483 q 81 734 81 620 q 164 926 81 850 q 375 1002 246 1002 q 595 918 512 1002 q 675 707 677 833 l 673 703 l 541 703 q 495 843 541 789 q 374 897 449 897 q 260 850 300 897 q 220 735 220 804 q 262 629 220 671 q 406 549 305 587 q 612 434 541 505 q 682 250 682 363 q 599 57 682 129 q 381 -14 516 -14 q 155 63 251 -14 q 62 285 58 140 l 63 289 l 196 289 q 249 139 196 189 q 381 90 302 90 q 501 133 458 90 q 545 248 545 176 m 422 1278 l 580 1278 l 582 1275 l 418 1098 l 302 1098 l 422 1278 z "},"ś":{"ha":612,"x_min":43,"x_max":563,"o":"m 427 185 q 399 257 427 228 q 290 321 370 286 q 120 414 176 364 q 64 543 64 465 q 132 688 64 628 q 309 747 200 747 q 492 682 422 747 q 558 524 561 616 l 557 519 l 424 519 q 393 609 424 572 q 309 647 362 647 q 227 617 256 647 q 197 549 197 588 q 223 483 197 507 q 332 420 248 458 q 505 326 447 380 q 563 192 563 273 q 493 43 563 100 q 309 -14 422 -14 q 114 55 185 -14 q 47 216 43 123 l 48 220 l 176 220 q 217 117 179 149 q 311 85 254 85 q 396 114 366 85 q 427 185 427 142 m 362 1046 l 520 1046 l 522 1042 l 358 865 l 243 865 l 362 1046 z "},"Ŝ":{"ha":742,"x_min":58,"x_max":682,"o":"m 545 248 q 506 360 545 316 q 370 439 467 404 q 156 551 231 483 q 81 734 81 620 q 164 926 81 850 q 375 1002 246 1002 q 595 918 512 1002 q 675 707 677 833 l 673 703 l 541 703 q 495 843 541 789 q 374 897 449 897 q 260 850 300 897 q 220 735 220 804 q 262 629 220 671 q 406 549 305 587 q 612 434 541 505 q 682 250 682 363 q 599 57 682 129 q 381 -14 516 -14 q 155 63 251 -14 q 62 285 58 140 l 63 289 l 196 289 q 249 139 196 189 q 381 90 302 90 q 501 133 458 90 q 545 248 545 176 m 567 1114 l 567 1099 l 456 1099 l 370 1201 l 286 1099 l 176 1099 l 176 1114 l 329 1272 l 412 1272 l 567 1114 z "},"ŝ":{"ha":612,"x_min":43,"x_max":563,"o":"m 427 185 q 399 257 427 228 q 290 321 370 286 q 120 414 176 364 q 64 543 64 465 q 132 688 64 628 q 309 747 200 747 q 492 682 422 747 q 558 524 561 616 l 557 519 l 424 519 q 393 609 424 572 q 309 647 362 647 q 227 617 256 647 q 197 549 197 588 q 223 483 197 507 q 332 420 248 458 q 505 326 447 380 q 563 192 563 273 q 493 43 563 100 q 309 -14 422 -14 q 114 55 185 -14 q 47 216 43 123 l 48 220 l 176 220 q 217 117 179 149 q 311 85 254 85 q 396 114 366 85 q 427 185 427 142 m 507 881 l 507 866 l 396 866 l 311 968 l 227 866 l 117 866 l 117 882 l 269 1039 l 353 1039 l 507 881 z "},"Ş":{"ha":742,"x_min":58,"x_max":682,"o":"m 545 248 q 506 360 545 316 q 370 439 467 404 q 156 551 231 483 q 81 734 81 620 q 164 926 81 850 q 375 1002 246 1002 q 595 918 512 1002 q 675 707 677 833 l 673 703 l 541 703 q 495 843 541 789 q 374 897 449 897 q 260 850 300 897 q 220 735 220 804 q 262 629 220 671 q 406 549 305 587 q 612 434 541 505 q 682 250 682 363 q 599 57 682 129 q 381 -14 516 -14 q 155 63 251 -14 q 62 285 58 140 l 63 289 l 196 289 q 249 139 196 189 q 381 90 302 90 q 501 133 458 90 q 545 248 545 176 m 424 -5 l 416 -44 q 480 -78 455 -51 q 506 -161 506 -106 q 456 -267 506 -227 q 314 -306 406 -306 l 311 -229 q 370 -212 347 -229 q 393 -161 393 -195 q 372 -114 393 -127 q 303 -96 352 -100 l 321 -5 l 424 -5 z "},"ş":{"ha":612,"x_min":43,"x_max":563,"o":"m 427 185 q 399 257 427 228 q 290 321 370 286 q 120 414 176 364 q 64 543 64 465 q 132 688 64 628 q 309 747 200 747 q 492 682 422 747 q 558 524 561 616 l 557 519 l 424 519 q 393 609 424 572 q 309 647 362 647 q 227 617 256 647 q 197 549 197 588 q 223 483 197 507 q 332 420 248 458 q 505 326 447 380 q 563 192 563 273 q 493 43 563 100 q 309 -14 422 -14 q 114 55 185 -14 q 47 216 43 123 l 48 220 l 176 220 q 217 117 179 149 q 311 85 254 85 q 396 114 366 85 q 427 185 427 142 m 364 -3 l 357 -43 q 421 -77 395 -50 q 446 -159 446 -104 q 396 -265 446 -226 q 254 -304 347 -304 l 251 -228 q 310 -211 288 -228 q 333 -159 333 -194 q 313 -112 333 -125 q 243 -94 292 -99 l 261 -3 l 364 -3 z "},"Š":{"ha":742,"x_min":58,"x_max":682,"o":"m 545 248 q 506 360 545 316 q 370 439 467 404 q 156 551 231 483 q 81 734 81 620 q 164 926 81 850 q 375 1002 246 1002 q 595 918 512 1002 q 675 707 677 833 l 673 703 l 541 703 q 495 843 541 789 q 374 897 449 897 q 260 850 300 897 q 220 735 220 804 q 262 629 220 671 q 406 549 305 587 q 612 434 541 505 q 682 250 682 363 q 599 57 682 129 q 381 -14 516 -14 q 155 63 251 -14 q 62 285 58 140 l 63 289 l 196 289 q 249 139 196 189 q 381 90 302 90 q 501 133 458 90 q 545 248 545 176 m 370 1173 l 448 1275 l 572 1275 l 572 1263 l 416 1101 l 325 1101 l 170 1263 l 170 1275 l 292 1275 l 370 1173 z "},"š":{"ha":612,"x_min":43,"x_max":563,"o":"m 427 185 q 399 257 427 228 q 290 321 370 286 q 120 414 176 364 q 64 543 64 465 q 132 688 64 628 q 309 747 200 747 q 492 682 422 747 q 558 524 561 616 l 557 519 l 424 519 q 393 609 424 572 q 309 647 362 647 q 227 617 256 647 q 197 549 197 588 q 223 483 197 507 q 332 420 248 458 q 505 326 447 380 q 563 192 563 273 q 493 43 563 100 q 309 -14 422 -14 q 114 55 185 -14 q 47 216 43 123 l 48 220 l 176 220 q 217 117 179 149 q 311 85 254 85 q 396 114 366 85 q 427 185 427 142 m 311 941 l 389 1042 l 512 1042 l 512 1031 l 357 868 l 265 868 l 111 1030 l 111 1042 l 233 1042 l 311 941 z "},"Ţ":{"ha":709,"x_min":25,"x_max":685,"o":"m 685 882 l 423 882 l 423 0 l 285 0 l 285 882 l 25 882 l 25 987 l 685 987 l 685 882 m 400 -168 l 330 -319 l 268 -319 l 302 -163 l 302 -73 l 400 -73 l 400 -168 z "},"ţ":{"ha":416,"x_min":21,"x_max":379,"o":"m 256 916 l 256 734 l 371 734 l 371 635 l 256 635 l 256 199 q 274 118 256 142 q 319 94 291 94 q 341 96 331 94 q 365 102 351 98 l 379 7 q 335 -8 359 -3 q 286 -14 311 -14 q 162 37 206 -14 q 118 199 118 88 l 118 635 l 21 635 l 21 734 l 118 734 l 118 916 l 256 916 m 312 -174 l 241 -326 l 180 -326 l 214 -170 l 214 -80 l 312 -80 l 312 -174 z "},"Ť":{"ha":709,"x_min":25,"x_max":685,"o":"m 685 882 l 423 882 l 423 0 l 285 0 l 285 882 l 25 882 l 25 987 l 685 987 l 685 882 m 355 1157 l 433 1259 l 557 1259 l 557 1247 l 401 1084 l 310 1084 l 155 1246 l 155 1259 l 277 1259 l 355 1157 z "},"ť":{"ha":416,"x_min":21,"x_max":466,"o":"m 256 916 l 256 734 l 371 734 l 371 635 l 256 635 l 256 199 q 274 118 256 142 q 319 94 291 94 q 341 96 331 94 q 365 102 351 98 l 379 7 q 335 -8 359 -3 q 286 -14 311 -14 q 162 37 206 -14 q 118 199 118 88 l 118 635 l 21 635 l 21 734 l 118 734 l 118 916 l 256 916 m 466 975 l 395 823 l 334 823 l 368 980 l 368 1069 l 466 1069 l 466 975 z "},"Ŧ":{"ha":709,"x_min":25,"x_max":685,"o":"m 545 546 l 423 546 l 423 0 l 285 0 l 285 546 l 163 546 l 163 642 l 285 642 l 285 882 l 25 882 l 25 987 l 685 987 l 685 882 l 423 882 l 423 642 l 545 642 l 545 546 z "},"ŧ":{"ha":416,"x_min":3,"x_max":385,"o":"m 256 916 l 256 734 l 371 734 l 371 635 l 256 635 l 256 494 l 385 494 l 385 398 l 256 398 l 256 199 q 274 118 256 142 q 319 94 291 94 q 341 96 331 94 q 365 102 351 98 l 379 7 q 335 -8 359 -3 q 286 -14 311 -14 q 162 37 206 -14 q 118 199 118 88 l 118 398 l 3 398 l 3 494 l 118 494 l 118 635 l 21 635 l 21 734 l 118 734 l 118 916 l 256 916 z "},"Ũ":{"ha":823,"x_min":83,"x_max":741,"o":"m 741 987 l 741 334 q 648 78 741 170 q 409 -14 556 -14 q 174 78 264 -14 q 83 334 83 171 l 83 987 l 221 987 l 221 334 q 273 155 221 220 q 409 90 325 90 q 549 155 496 90 q 602 334 602 219 l 602 987 l 741 987 m 621 1246 q 587 1141 621 1184 q 500 1099 553 1099 q 410 1132 458 1099 q 332 1165 362 1165 q 293 1142 309 1165 q 277 1086 277 1120 l 202 1105 q 236 1211 202 1166 q 323 1255 271 1255 q 409 1221 357 1255 q 491 1187 461 1187 q 530 1211 513 1187 q 547 1267 547 1234 l 621 1246 z "},"ũ":{"ha":684,"x_min":76,"x_max":605,"o":"m 474 107 q 398 17 444 49 q 291 -14 352 -14 q 133 64 190 -14 q 76 306 76 142 l 76 734 l 214 734 l 214 304 q 241 139 214 186 q 324 92 269 92 q 411 116 375 92 q 467 184 446 140 l 467 734 l 605 734 l 605 0 l 488 0 l 474 107 m 549 1014 q 515 909 549 951 q 429 866 481 866 q 338 899 387 866 q 260 932 290 932 q 221 910 237 932 q 205 854 205 887 l 130 873 q 164 978 130 934 q 251 1022 199 1022 q 337 988 285 1022 q 419 955 389 955 q 458 978 441 955 q 475 1035 475 1001 l 549 1014 z "},"Ū":{"ha":823,"x_min":83,"x_max":741,"o":"m 741 987 l 741 334 q 648 78 741 170 q 409 -14 556 -14 q 174 78 264 -14 q 83 334 83 171 l 83 987 l 221 987 l 221 334 q 273 155 221 220 q 409 90 325 90 q 549 155 496 90 q 602 334 602 219 l 602 987 l 741 987 m 633 1120 l 196 1120 l 196 1210 l 633 1210 l 633 1120 z "},"ū":{"ha":684,"x_min":76,"x_max":605,"o":"m 474 107 q 398 17 444 49 q 291 -14 352 -14 q 133 64 190 -14 q 76 306 76 142 l 76 734 l 214 734 l 214 304 q 241 139 214 186 q 324 92 269 92 q 411 116 375 92 q 467 184 446 140 l 467 734 l 605 734 l 605 0 l 488 0 l 474 107 m 561 888 l 124 888 l 124 978 l 561 978 l 561 888 z "},"Ŭ":{"ha":823,"x_min":83,"x_max":741,"o":"m 741 987 l 741 334 q 648 78 741 170 q 409 -14 556 -14 q 174 78 264 -14 q 83 334 83 171 l 83 987 l 221 987 l 221 334 q 273 155 221 220 q 409 90 325 90 q 549 155 496 90 q 602 334 602 219 l 602 987 l 741 987 m 604 1270 l 606 1265 q 556 1135 608 1185 q 414 1085 503 1085 q 271 1135 323 1085 q 222 1265 218 1185 l 223 1270 l 326 1270 q 347 1196 326 1224 q 414 1168 368 1168 q 478 1196 457 1168 q 500 1270 500 1225 l 604 1270 z "},"ŭ":{"ha":684,"x_min":76,"x_max":605,"o":"m 474 107 q 398 17 444 49 q 291 -14 352 -14 q 133 64 190 -14 q 76 306 76 142 l 76 734 l 214 734 l 214 304 q 241 139 214 186 q 324 92 269 92 q 411 116 375 92 q 467 184 446 140 l 467 734 l 605 734 l 605 0 l 488 0 l 474 107 m 532 1037 l 534 1033 q 484 903 536 953 q 342 852 431 852 q 199 903 252 852 q 150 1033 146 953 l 151 1037 l 254 1037 q 275 963 254 991 q 342 935 296 935 q 407 964 385 935 q 428 1037 428 992 l 532 1037 z "},"Ů":{"ha":823,"x_min":83,"x_max":741,"o":"m 741 987 l 741 334 q 648 78 741 170 q 409 -14 556 -14 q 174 78 264 -14 q 83 334 83 171 l 83 987 l 221 987 l 221 334 q 273 155 221 220 q 409 90 325 90 q 549 155 496 90 q 602 334 602 219 l 602 987 l 741 987 m 305 1177 q 337 1256 305 1224 q 414 1289 368 1289 q 489 1256 458 1289 q 519 1177 519 1224 q 489 1099 519 1130 q 414 1069 458 1069 q 337 1100 368 1069 q 305 1177 305 1131 m 368 1177 q 381 1141 368 1155 q 414 1126 394 1126 q 444 1141 432 1126 q 456 1177 456 1155 q 444 1215 456 1200 q 414 1230 432 1230 q 381 1215 394 1230 q 368 1177 368 1200 z "},"ů":{"ha":684,"x_min":76,"x_max":605,"o":"m 474 107 q 398 17 444 49 q 291 -14 352 -14 q 133 64 190 -14 q 76 306 76 142 l 76 734 l 214 734 l 214 304 q 241 139 214 186 q 324 92 269 92 q 411 116 375 92 q 467 184 446 140 l 467 734 l 605 734 l 605 0 l 488 0 l 474 107 m 233 945 q 265 1024 233 991 q 342 1056 296 1056 q 417 1024 386 1056 q 448 945 448 991 q 417 867 448 897 q 342 836 386 836 q 265 867 296 836 q 233 945 233 898 m 296 945 q 309 908 296 922 q 342 894 322 894 q 372 908 360 894 q 385 945 385 922 q 372 982 385 967 q 342 997 360 997 q 309 982 322 997 q 296 945 296 967 z "},"Ű":{"ha":823,"x_min":83,"x_max":741,"o":"m 741 987 l 741 334 q 648 78 741 170 q 409 -14 556 -14 q 174 78 264 -14 q 83 334 83 171 l 83 987 l 221 987 l 221 334 q 273 155 221 220 q 409 90 325 90 q 549 155 496 90 q 602 334 602 219 l 602 987 l 741 987 m 576 1266 l 719 1266 l 721 1262 l 550 1086 l 436 1086 l 434 1089 l 576 1266 m 370 1266 l 511 1266 l 368 1086 l 256 1086 l 370 1266 z "},"ű":{"ha":684,"x_min":76,"x_max":649,"o":"m 474 107 q 398 17 444 49 q 291 -14 352 -14 q 133 64 190 -14 q 76 306 76 142 l 76 734 l 214 734 l 214 304 q 241 139 214 186 q 324 92 269 92 q 411 116 375 92 q 467 184 446 140 l 467 734 l 605 734 l 605 0 l 488 0 l 474 107 m 505 1034 l 647 1034 l 649 1029 l 478 853 l 364 853 l 362 857 l 505 1034 m 298 1034 l 439 1034 l 296 853 l 184 853 l 298 1034 z "},"Ų":{"ha":823,"x_min":83,"x_max":741,"o":"m 741 987 l 741 334 q 648 78 741 170 q 409 -14 556 -14 q 174 78 264 -14 q 83 334 83 171 l 83 987 l 221 987 l 221 334 q 273 155 221 220 q 409 90 325 90 q 549 155 496 90 q 602 334 602 219 l 602 987 l 741 987 m 475 0 q 420 -68 438 -38 q 401 -134 401 -98 q 413 -173 401 -156 q 454 -189 424 -189 q 485 -184 471 -189 q 511 -171 498 -178 l 530 -250 q 485 -271 510 -262 q 425 -280 459 -280 q 330 -245 367 -280 q 292 -148 292 -210 q 323 -49 292 -96 q 416 33 353 -2 l 475 0 z "},"ų":{"ha":684,"x_min":76,"x_max":628,"o":"m 474 107 q 398 17 444 49 q 291 -14 352 -14 q 133 64 190 -14 q 76 306 76 142 l 76 734 l 214 734 l 214 304 q 241 139 214 186 q 324 92 269 92 q 411 116 375 92 q 467 184 446 140 l 467 734 l 605 734 l 605 0 l 488 0 l 474 107 m 572 0 q 517 -68 536 -38 q 499 -134 499 -98 q 510 -173 499 -156 q 552 -189 522 -189 q 583 -184 569 -189 q 608 -171 596 -178 l 628 -250 q 582 -271 608 -262 q 522 -280 557 -280 q 427 -245 465 -280 q 390 -148 390 -210 q 420 -49 390 -96 q 513 33 451 -2 l 572 0 z "},"Ŵ":{"ha":1053,"x_min":22,"x_max":1030,"o":"m 753 286 l 758 286 l 886 987 l 1030 987 l 827 0 l 701 0 l 528 701 l 524 701 l 351 0 l 224 0 l 22 987 l 167 987 l 296 287 l 300 287 l 466 987 l 586 987 l 753 286 m 722 1099 l 722 1084 l 611 1084 l 526 1187 l 441 1084 l 332 1084 l 332 1100 l 484 1257 l 568 1257 l 722 1099 z "},"ŵ":{"ha":901,"x_min":27,"x_max":869,"o":"m 633 239 l 637 239 l 731 734 l 869 734 l 699 0 l 585 0 l 449 476 l 445 476 l 313 0 l 199 0 l 27 734 l 165 734 l 261 245 l 265 245 l 399 734 l 498 734 l 633 239 m 645 867 l 645 852 l 534 852 l 448 954 l 364 852 l 254 852 l 254 867 l 407 1025 l 490 1025 l 645 867 z "},"Ŷ":{"ha":764,"x_min":19,"x_max":744,"o":"m 379 506 l 383 506 l 589 987 l 744 987 l 448 355 l 448 0 l 310 0 l 310 366 l 19 987 l 172 987 l 379 506 m 579 1097 l 579 1082 l 468 1082 l 382 1184 l 298 1082 l 189 1082 l 189 1097 l 341 1255 l 425 1255 l 579 1097 z "},"ŷ":{"ha":612,"x_min":14,"x_max":598,"o":"m 288 253 l 299 203 l 303 203 l 447 734 l 598 734 l 336 -114 q 266 -243 311 -189 q 137 -296 221 -296 q 100 -293 120 -296 q 62 -284 81 -289 l 77 -182 q 97 -185 84 -184 q 118 -186 111 -186 q 182 -152 159 -186 q 220 -71 206 -118 l 245 5 l 14 734 l 164 734 l 288 253 m 503 867 l 503 852 l 391 852 l 306 954 l 222 852 l 112 852 l 112 867 l 264 1025 l 348 1025 l 503 867 z "},"Ÿ":{"ha":764,"x_min":19,"x_max":744,"o":"m 379 506 l 383 506 l 589 987 l 744 987 l 448 355 l 448 0 l 310 0 l 310 366 l 19 987 l 172 987 l 379 506 m 602 1094 l 460 1094 l 460 1219 l 602 1219 l 602 1094 m 307 1094 l 165 1094 l 165 1219 l 307 1219 l 307 1094 z "},"Ź":{"ha":682,"x_min":53,"x_max":631,"o":"m 200 104 l 631 104 l 631 0 l 53 0 l 53 85 l 469 882 l 57 882 l 57 987 l 616 987 l 616 905 l 200 104 m 397 1264 l 555 1264 l 557 1261 l 393 1084 l 277 1084 l 397 1264 z "},"ź":{"ha":612,"x_min":54,"x_max":566,"o":"m 208 104 l 566 104 l 566 0 l 54 0 l 54 87 l 392 627 l 61 627 l 61 734 l 550 734 l 550 648 l 208 104 m 361 1031 l 519 1031 l 522 1028 l 357 851 l 242 851 l 361 1031 z "},"Ż":{"ha":682,"x_min":53,"x_max":631,"o":"m 200 104 l 631 104 l 631 0 l 53 0 l 53 85 l 469 882 l 57 882 l 57 987 l 616 987 l 616 905 l 200 104 m 422 1096 l 267 1096 l 267 1232 l 422 1232 l 422 1096 z "},"ż":{"ha":612,"x_min":54,"x_max":566,"o":"m 208 104 l 566 104 l 566 0 l 54 0 l 54 87 l 392 627 l 61 627 l 61 734 l 550 734 l 550 648 l 208 104 m 387 863 l 232 863 l 232 999 l 387 999 l 387 863 z "},"Ž":{"ha":682,"x_min":53,"x_max":631,"o":"m 200 104 l 631 104 l 631 0 l 53 0 l 53 85 l 469 882 l 57 882 l 57 987 l 616 987 l 616 905 l 200 104 m 345 1159 l 423 1261 l 547 1261 l 547 1249 l 391 1086 l 300 1086 l 145 1249 l 145 1261 l 267 1261 l 345 1159 z "},"ž":{"ha":612,"x_min":54,"x_max":566,"o":"m 208 104 l 566 104 l 566 0 l 54 0 l 54 87 l 392 627 l 61 627 l 61 734 l 550 734 l 550 648 l 208 104 m 310 926 l 388 1028 l 511 1028 l 511 1017 l 356 854 l 264 854 l 110 1016 l 110 1028 l 232 1028 l 310 926 z "},"ſ":{"ha":311,"x_min":85,"x_max":388,"o":"m 85 0 l 85 828 q 141 1008 85 945 q 300 1072 198 1072 q 341 1068 320 1072 q 388 1058 362 1065 l 374 959 q 348 964 360 962 q 319 966 335 966 q 247 930 272 966 q 222 828 222 894 l 222 0 l 85 0 z "},"ƒ":{"ha":427,"x_min":-18,"x_max":425,"o":"m 380 635 l 260 635 l 260 -50 q 205 -232 260 -168 q 55 -296 151 -296 q 17 -293 34 -296 q -18 -284 -1 -290 l -11 -182 q 16 -188 -1 -185 q 46 -191 33 -191 q 102 -154 82 -191 q 122 -50 122 -117 l 122 635 l 25 635 l 25 734 l 122 734 l 122 828 q 178 1008 122 945 q 337 1072 235 1072 q 379 1068 357 1072 q 425 1058 401 1065 l 412 957 q 385 962 399 960 q 354 964 371 964 q 284 929 307 964 q 260 828 260 894 l 260 734 l 380 734 l 380 635 z "},"Ơ":{"ha":839,"x_min":63,"x_max":907,"o":"m 755 357 q 661 84 755 182 q 406 -14 566 -14 q 156 84 249 -14 q 63 357 63 182 l 63 629 q 156 903 63 804 q 406 1002 249 1002 q 560 972 491 1002 q 675 886 629 942 q 763 961 732 905 q 793 1106 793 1017 l 907 1106 q 861 904 907 984 q 728 794 814 824 q 748 715 741 757 q 755 629 755 674 l 755 357 m 618 631 q 563 826 618 760 q 406 893 508 893 q 253 826 307 893 q 200 631 200 760 l 200 357 q 254 160 200 227 q 406 93 307 93 q 564 160 509 93 q 618 357 618 227 l 618 631 z "},"ơ":{"ha":697,"x_min":52,"x_max":738,"o":"m 52 375 q 129 643 52 538 q 341 747 206 747 q 455 723 404 747 q 544 655 506 699 q 608 719 587 673 q 629 836 629 766 l 738 836 q 700 675 738 739 q 589 585 661 611 q 620 487 609 541 q 631 375 631 434 l 631 357 q 554 89 631 193 q 342 -14 477 -14 q 129 89 206 -14 q 52 357 52 193 l 52 375 m 190 357 q 228 165 190 239 q 342 90 265 90 q 455 165 418 90 q 493 357 493 240 l 493 375 q 455 566 493 490 q 341 642 417 642 q 228 566 265 642 q 190 375 190 490 l 190 357 z "},"Ư":{"ha":850,"x_min":83,"x_max":963,"o":"m 741 987 l 741 866 l 745 865 q 822 936 797 880 q 848 1086 848 993 l 963 1086 q 907 864 963 947 q 741 763 851 782 l 741 334 q 648 78 741 170 q 409 -14 556 -14 q 174 78 264 -14 q 83 334 83 171 l 83 987 l 221 987 l 221 334 q 273 155 221 220 q 409 90 325 90 q 549 155 496 90 q 602 334 602 219 l 602 987 l 741 987 z "},"ư":{"ha":697,"x_min":76,"x_max":814,"o":"m 810 832 l 812 829 q 763 646 814 711 q 605 568 712 580 l 605 0 l 488 0 l 474 107 q 398 17 444 49 q 291 -14 352 -14 q 133 64 190 -14 q 76 306 76 142 l 76 734 l 214 734 l 214 304 q 241 139 214 186 q 324 92 269 92 q 411 116 375 92 q 467 184 446 140 l 467 734 l 605 734 l 605 654 l 609 653 q 687 704 663 660 q 710 832 710 748 l 810 832 z "},"ǰ":{"ha":327,"x_min":-43,"x_max":363,"o":"m 236 734 l 236 -50 q 182 -232 236 -168 q 31 -296 127 -296 q -6 -293 11 -296 q -43 -284 -22 -290 l -35 -182 q -7 -188 -24 -185 q 22 -191 9 -191 q 78 -154 58 -191 q 98 -50 98 -117 l 98 734 l 236 734 m 161 916 l 239 1018 l 363 1018 l 363 1006 l 208 844 l 116 844 l -39 1006 l -39 1018 l 83 1018 l 161 916 z "},"Ǻ":{"ha":764,"x_min":22,"x_max":745,"o":"m 531 250 l 236 250 l 165 0 l 22 0 l 318 987 l 452 987 l 745 0 l 602 0 l 531 250 m 267 359 l 500 359 l 387 760 l 382 760 l 267 359 m 443 1424 l 570 1424 l 572 1420 l 433 1289 l 345 1289 l 443 1424 m 274 1141 q 306 1222 274 1190 q 383 1255 337 1255 q 458 1222 427 1255 q 490 1141 490 1190 q 459 1061 490 1093 q 383 1030 428 1030 q 306 1061 337 1030 q 274 1141 274 1093 m 331 1141 q 346 1099 331 1116 q 383 1082 361 1082 q 418 1099 404 1082 q 433 1141 433 1116 q 418 1184 433 1166 q 383 1202 404 1202 q 346 1184 361 1202 q 331 1141 331 1166 z "},"ǻ":{"ha":656,"x_min":51,"x_max":600,"o":"m 460 0 q 447 59 452 33 q 440 111 441 85 q 363 21 411 57 q 254 -14 315 -14 q 103 44 156 -14 q 51 203 51 102 q 124 367 51 307 q 327 427 197 427 l 439 427 l 439 502 q 410 607 439 569 q 324 644 380 644 q 244 612 274 644 q 215 528 215 579 l 83 528 l 82 532 q 149 682 78 617 q 333 747 219 747 q 510 683 442 747 q 578 500 578 619 l 578 160 q 583 78 578 118 q 600 0 589 39 l 460 0 m 283 92 q 382 126 339 92 q 439 211 426 161 l 439 341 l 325 341 q 225 301 261 341 q 189 203 189 260 q 214 122 189 153 q 283 92 238 92 m 386 1206 l 513 1206 l 515 1202 l 376 1070 l 288 1070 l 386 1206 m 217 922 q 249 1004 217 971 q 326 1036 280 1036 q 401 1004 370 1036 q 433 922 433 971 q 402 843 433 874 q 326 812 371 812 q 249 843 280 812 q 217 922 217 874 m 274 922 q 289 881 274 897 q 326 864 304 864 q 361 881 347 864 q 376 922 376 897 q 361 966 376 948 q 326 983 347 983 q 289 966 304 983 q 274 922 274 948 z "},"Ǽ":{"ha":1152,"x_min":14,"x_max":1106,"o":"m 1106 0 l 588 0 l 579 245 l 291 245 l 178 0 l 14 0 l 498 987 l 1070 987 l 1070 881 l 694 881 l 705 564 l 1023 564 l 1023 459 l 709 459 l 722 105 l 1106 105 l 1106 0 m 345 360 l 575 360 l 558 812 l 555 813 l 345 360 m 613 1264 l 771 1264 l 773 1261 l 609 1084 l 494 1084 l 613 1264 z "},"ǽ":{"ha":1048,"x_min":55,"x_max":996,"o":"m 754 -14 q 617 17 677 -14 q 519 104 557 47 q 423 20 485 54 q 275 -14 361 -14 q 112 45 170 -14 q 55 206 55 104 q 125 368 55 310 q 330 425 196 425 l 452 425 l 452 486 q 424 601 452 559 q 345 642 397 642 q 258 605 290 642 q 226 513 226 568 l 94 524 l 92 528 q 159 685 89 623 q 346 747 229 747 q 459 724 409 747 q 541 658 509 701 q 627 724 577 701 q 735 747 676 747 q 927 660 859 747 q 996 422 996 573 l 996 338 l 593 338 q 635 158 594 226 q 764 90 677 90 q 860 108 821 90 q 942 160 899 126 l 983 71 q 890 12 949 38 q 754 -14 831 -14 m 302 86 q 386 113 342 86 q 452 175 429 140 l 452 332 l 332 332 q 229 295 266 332 q 193 203 193 258 q 220 118 193 149 q 302 86 248 86 m 735 642 q 637 585 672 642 q 595 433 602 528 l 860 433 l 860 454 q 829 589 860 537 q 735 642 798 642 m 576 1046 l 734 1046 l 736 1043 l 572 866 l 457 866 l 576 1046 z "},"Ǿ":{"ha":827,"x_min":66,"x_max":759,"o":"m 759 357 q 664 84 759 182 q 410 -14 569 -14 q 314 -4 359 -14 q 232 28 269 7 l 186 -61 l 104 -61 l 172 71 q 93 191 120 119 q 66 357 66 264 l 66 629 q 159 903 66 804 q 409 1002 252 1002 q 521 986 469 1002 q 616 943 574 971 l 659 1025 l 741 1025 l 673 892 q 736 778 714 844 q 759 629 759 711 l 759 357 m 203 357 q 211 268 203 307 q 233 201 218 228 l 237 200 l 561 833 q 495 878 533 863 q 409 893 457 893 q 257 826 310 893 q 203 631 203 760 l 203 357 m 622 631 q 617 697 622 667 q 604 749 612 728 l 601 750 l 285 132 q 340 102 309 112 q 410 93 372 93 q 567 160 512 93 q 622 357 622 227 l 622 631 m 468 1306 l 626 1306 l 628 1303 l 464 1126 l 349 1126 l 468 1306 z "},"ǿ":{"ha":684,"x_min":52,"x_max":631,"o":"m 52 375 q 129 643 52 538 q 341 747 206 747 q 401 741 372 747 q 456 723 429 734 l 498 823 l 581 823 l 520 680 q 603 551 574 630 q 631 375 631 472 l 631 357 q 554 89 631 193 q 342 -14 477 -14 q 286 -9 313 -14 q 236 5 260 -4 l 194 -94 l 112 -94 l 171 45 q 82 174 113 94 q 52 357 52 255 l 52 375 m 190 357 q 198 255 190 302 q 222 179 205 209 l 227 179 l 412 618 q 378 635 396 629 q 341 642 361 642 q 228 566 265 642 q 190 375 190 490 l 190 357 m 493 375 q 486 467 493 425 q 465 539 479 510 l 461 540 l 279 108 q 308 95 292 99 q 342 90 324 90 q 455 165 418 90 q 493 357 493 240 l 493 375 m 370 1044 l 528 1044 l 530 1041 l 366 864 l 250 864 l 370 1044 z "},"Ș":{"ha":742,"x_min":58,"x_max":682,"o":"m 545 248 q 506 360 545 316 q 370 439 467 404 q 156 551 231 483 q 81 734 81 620 q 164 926 81 850 q 375 1002 246 1002 q 595 918 512 1002 q 675 707 677 833 l 673 703 l 541 703 q 495 843 541 789 q 374 897 449 897 q 260 850 300 897 q 220 735 220 804 q 262 629 220 671 q 406 549 305 587 q 612 434 541 505 q 682 250 682 363 q 599 57 682 129 q 381 -14 516 -14 q 155 63 251 -14 q 62 285 58 140 l 63 289 l 196 289 q 249 139 196 189 q 381 90 302 90 q 501 133 458 90 q 545 248 545 176 m 415 -181 l 345 -333 l 283 -333 l 317 -176 l 317 -87 l 415 -87 l 415 -181 z "},"ș":{"ha":612,"x_min":43,"x_max":563,"o":"m 427 185 q 399 257 427 228 q 290 321 370 286 q 120 414 176 364 q 64 543 64 465 q 132 688 64 628 q 309 747 200 747 q 492 682 422 747 q 558 524 561 616 l 557 519 l 424 519 q 393 609 424 572 q 309 647 362 647 q 227 617 256 647 q 197 549 197 588 q 223 483 197 507 q 332 420 248 458 q 505 326 447 380 q 563 192 563 273 q 493 43 563 100 q 309 -14 422 -14 q 114 55 185 -14 q 47 216 43 123 l 48 220 l 176 220 q 217 117 179 149 q 311 85 254 85 q 396 114 366 85 q 427 185 427 142 m 355 -180 l 285 -332 l 223 -332 l 258 -175 l 258 -85 l 355 -85 l 355 -180 z "},"ȷ":{"ha":327,"x_min":-43,"x_max":236,"o":"m 236 734 l 236 -50 q 182 -232 236 -168 q 31 -296 127 -296 q -6 -293 11 -296 q -43 -284 -22 -290 l -35 -182 q -7 -188 -24 -185 q 22 -191 9 -191 q 78 -154 58 -191 q 98 -50 98 -117 l 98 734 l 236 734 z "},"ʼ":{"ha":319,"x_min":98,"x_max":224,"o":"m 224 846 l 166 635 l 98 635 l 100 845 l 100 987 l 224 987 l 224 846 z "},"ˆ":{"ha":584,"x_min":94,"x_max":484,"o":"m 484 864 l 484 849 l 373 849 l 288 951 l 203 849 l 94 849 l 94 865 l 246 1022 l 330 1022 l 484 864 z "},"ˇ":{"ha":554,"x_min":74,"x_max":475,"o":"m 274 922 l 352 1023 l 475 1023 l 475 1012 l 320 849 l 229 849 l 74 1011 l 74 1023 l 196 1023 l 274 922 z "},"˘":{"ha":552,"x_min":78,"x_max":468,"o":"m 464 987 l 465 983 q 415 853 468 903 q 273 803 363 803 q 131 853 183 803 q 81 983 78 903 l 83 987 l 186 987 q 207 914 186 942 q 273 886 228 886 q 338 914 317 886 q 359 987 359 943 l 464 987 z "},"˙":{"ha":350,"x_min":91,"x_max":246,"o":"m 246 854 l 91 854 l 91 989 l 246 989 l 246 854 z "},"˚":{"ha":427,"x_min":104,"x_max":319,"o":"m 104 890 q 136 969 104 937 q 213 1002 168 1002 q 288 969 257 1002 q 319 890 319 937 q 288 812 319 843 q 213 782 257 782 q 136 813 168 782 q 104 890 104 844 m 167 890 q 180 854 167 868 q 213 840 193 840 q 243 854 231 840 q 256 890 256 868 q 243 928 256 913 q 213 943 231 943 q 180 928 193 943 q 167 890 167 913 z "},"˛":{"ha":350,"x_min":50,"x_max":288,"o":"m 233 0 q 178 -68 196 -38 q 159 -134 159 -98 q 171 -173 159 -156 q 212 -189 182 -189 q 243 -184 229 -189 q 269 -171 256 -178 l 288 -250 q 242 -271 268 -262 q 182 -280 217 -280 q 87 -245 125 -280 q 50 -148 50 -210 q 81 -49 50 -96 q 174 33 111 -2 l 233 0 z "},"˜":{"ha":576,"x_min":76,"x_max":495,"o":"m 495 1006 q 461 901 495 944 q 374 859 427 859 q 284 892 332 859 q 206 925 236 925 q 167 902 182 925 q 151 846 151 880 l 76 865 q 110 970 76 926 q 197 1015 144 1015 q 283 981 231 1015 q 365 947 335 947 q 404 970 387 947 q 420 1027 420 994 l 495 1006 z "},"˝":{"ha":488,"x_min":77,"x_max":542,"o":"m 397 1029 l 540 1029 l 542 1025 l 371 849 l 257 849 l 255 852 l 397 1029 m 191 1029 l 332 1029 l 189 849 l 77 849 l 191 1029 z "},"˳":{"ha":397,"x_min":104,"x_max":299,"o":"m 104 -155 q 132 -83 104 -112 q 202 -54 161 -54 q 271 -83 243 -54 q 299 -155 299 -112 q 271 -224 299 -197 q 202 -252 243 -252 q 132 -224 161 -252 q 104 -155 104 -197 m 161 -155 q 173 -186 161 -173 q 202 -199 184 -199 q 230 -186 218 -199 q 241 -155 241 -174 q 230 -121 241 -134 q 202 -109 218 -109 q 173 -121 184 -109 q 161 -155 161 -134 z "},"̀":{"ha":9,"x_min":-545,"x_max":-351,"o":"m -351 857 l -434 857 l -544 1091 l -543 1095 l -432 1095 l -351 857 z "},"́":{"ha":9,"x_min":-440,"x_max":-250,"o":"m -359 1096 l -251 1096 l -249 1092 l -361 857 l -440 857 l -359 1096 z "},"̃":{"ha":9,"x_min":-615,"x_max":-196,"o":"m -196 1006 q -230 901 -196 944 q -317 859 -264 859 q -407 892 -359 859 q -485 925 -455 925 q -524 902 -509 925 q -540 846 -540 880 l -615 865 q -581 970 -615 926 q -494 1015 -547 1015 q -408 981 -460 1015 q -326 947 -356 947 q -287 970 -304 947 q -271 1027 -271 994 l -196 1006 z "},"̉":{"ha":9,"x_min":-407,"x_max":-203,"o":"m -395 844 l -399 937 q -335 952 -355 941 q -316 991 -316 964 q -340 1033 -316 1020 q -407 1046 -365 1046 l -403 1116 q -255 1083 -307 1116 q -203 991 -203 1049 q -229 919 -203 945 q -293 888 -254 894 l -293 844 l -395 844 z "},"̏":{"ha":9,"x_min":-583,"x_max":-117,"o":"m -296 852 l -298 849 l -412 849 l -583 1025 l -581 1029 l -438 1029 l -296 852 m -117 849 l -230 849 l -373 1029 l -232 1029 l -117 849 z "},"̣":{"ha":9,"x_min":-421,"x_max":-266,"o":"m -266 -226 l -421 -226 l -421 -90 l -266 -90 l -266 -226 z "},"΄":{"ha":366,"x_min":136,"x_max":300,"o":"m 163 1044 l 300 1044 l 200 871 l 136 871 l 163 1044 z "},"΅":{"ha":637,"x_min":96,"x_max":533,"o":"m 533 864 l 404 864 l 404 987 l 533 987 l 533 864 m 226 864 l 96 864 l 96 987 l 226 987 l 226 864 m 300 1168 l 443 1168 l 355 998 l 274 998 l 300 1168 z "},"Ά":{"ha":764,"x_min":22,"x_max":745,"o":"m 531 250 l 236 250 l 165 0 l 22 0 l 318 987 l 452 987 l 745 0 l 602 0 l 531 250 m 267 359 l 500 359 l 387 760 l 382 760 l 267 359 m 118 1044 l 256 1044 l 155 871 l 91 871 l 118 1044 z "},"·":{"ha":345,"x_min":98,"x_max":238,"o":"m 238 411 l 98 411 l 98 556 l 238 556 l 238 411 z "},"Έ":{"ha":671,"x_min":-100,"x_max":627,"o":"m 567 458 l 232 458 l 232 104 l 627 104 l 627 0 l 94 0 l 94 987 l 623 987 l 623 882 l 232 882 l 232 564 l 567 564 l 567 458 m -73 1046 l 65 1046 l -35 872 l -100 872 l -73 1046 z "},"Ή":{"ha":850,"x_min":-74,"x_max":756,"o":"m 756 0 l 618 0 l 618 435 l 232 435 l 232 0 l 94 0 l 94 987 l 232 987 l 232 541 l 618 541 l 618 987 l 756 987 l 756 0 m -47 1044 l 91 1044 l -9 871 l -74 871 l -47 1044 z "},"Ί":{"ha":351,"x_min":-67,"x_max":244,"o":"m 244 0 l 106 0 l 106 987 l 244 987 l 244 0 m -40 1044 l 98 1044 l -3 871 l -67 871 l -40 1044 z "},"Ό":{"ha":826,"x_min":17,"x_max":759,"o":"m 759 357 q 664 84 759 182 q 410 -14 569 -14 q 159 84 252 -14 q 66 357 66 182 l 66 629 q 159 903 66 804 q 409 1002 252 1002 q 664 903 568 1002 q 759 629 759 804 l 759 357 m 622 631 q 567 826 622 760 q 409 893 511 893 q 257 826 310 893 q 203 631 203 760 l 203 357 q 257 160 203 227 q 410 93 311 93 q 567 160 512 93 q 622 357 622 227 l 622 631 m 44 1044 l 182 1044 l 81 871 l 17 871 l 44 1044 z "},"Ύ":{"ha":764,"x_min":-134,"x_max":744,"o":"m 379 506 l 383 506 l 589 987 l 744 987 l 448 355 l 448 0 l 310 0 l 310 366 l 19 987 l 172 987 l 379 506 m -106 1044 l 31 1044 l -69 871 l -134 871 l -106 1044 z "},"Ώ":{"ha":806,"x_min":9,"x_max":727,"o":"m 434 111 q 541 232 503 136 q 580 500 580 328 l 580 575 q 531 810 580 726 q 397 895 481 895 q 264 810 313 895 q 216 575 216 726 l 216 500 q 255 231 216 328 q 365 111 295 135 l 365 0 l 76 0 l 76 105 l 238 105 q 115 271 161 166 q 68 500 68 376 l 68 574 q 159 883 68 764 q 397 1002 250 1002 q 635 883 544 1002 q 727 574 727 764 l 727 500 q 681 271 727 376 q 558 105 634 166 l 724 105 l 724 0 l 434 0 l 434 111 m 36 1044 l 174 1044 l 73 871 l 9 871 l 36 1044 z "},"ΐ":{"ha":399,"x_min":-46,"x_max":391,"o":"m 239 733 l 239 194 q 254 115 239 137 q 296 92 269 92 q 323 95 312 92 q 353 106 334 98 l 373 12 q 322 -8 347 -3 q 266 -14 297 -14 q 143 37 185 -14 q 100 199 100 87 l 100 733 l 239 733 m 391 816 l 261 816 l 261 939 l 391 939 l 391 816 m 83 816 l -46 816 l -46 939 l 83 939 l 83 816 m 157 1120 l 300 1120 l 213 950 l 132 950 l 157 1120 z "},"Α":{"ha":764,"x_min":22,"x_max":745,"o":"m 531 250 l 236 250 l 165 0 l 22 0 l 318 987 l 452 987 l 745 0 l 602 0 l 531 250 m 267 359 l 500 359 l 387 760 l 382 760 l 267 359 z "},"Β":{"ha":766,"x_min":94,"x_max":717,"o":"m 94 0 l 94 987 l 368 987 q 589 921 509 987 q 669 722 669 854 q 634 599 669 652 q 538 520 600 545 q 670 438 624 506 q 717 279 717 371 q 638 72 717 143 q 422 0 560 0 l 94 0 m 232 460 l 232 104 l 422 104 q 538 150 497 104 q 578 279 578 195 q 539 409 578 360 q 427 460 499 458 l 420 460 l 232 460 m 232 559 l 389 559 q 493 603 455 562 q 530 719 530 644 q 489 841 530 800 q 368 882 448 882 l 232 882 l 232 559 z "},"Γ":{"ha":668,"x_min":91,"x_max":627,"o":"m 627 882 l 229 882 l 229 0 l 91 0 l 91 987 l 627 987 l 627 882 z "},"Δ":{"ha":865,"x_min":20,"x_max":840,"o":"m 370 987 l 504 987 l 840 0 l 20 0 l 370 987 m 199 104 l 663 104 l 438 792 l 434 792 l 199 104 z "},"Ε":{"ha":671,"x_min":94,"x_max":627,"o":"m 567 458 l 232 458 l 232 104 l 627 104 l 627 0 l 94 0 l 94 987 l 623 987 l 623 882 l 232 882 l 232 564 l 567 564 l 567 458 z "},"Ζ":{"ha":682,"x_min":53,"x_max":631,"o":"m 200 104 l 631 104 l 631 0 l 53 0 l 53 85 l 469 882 l 57 882 l 57 987 l 616 987 l 616 905 l 200 104 z "},"Η":{"ha":850,"x_min":94,"x_max":756,"o":"m 756 0 l 618 0 l 618 435 l 232 435 l 232 0 l 94 0 l 94 987 l 232 987 l 232 541 l 618 541 l 618 987 l 756 987 l 756 0 z "},"Θ":{"ha":827,"x_min":66,"x_max":759,"o":"m 547 442 l 286 442 l 286 547 l 547 547 l 547 442 m 759 357 q 664 84 759 182 q 410 -14 569 -14 q 159 84 252 -14 q 66 357 66 182 l 66 629 q 159 903 66 804 q 409 1002 252 1002 q 664 903 568 1002 q 759 629 759 804 l 759 357 m 622 631 q 567 826 622 760 q 409 893 511 893 q 257 826 310 893 q 203 631 203 760 l 203 357 q 257 160 203 227 q 410 93 311 93 q 567 160 512 93 q 622 357 622 227 l 622 631 z "},"Ι":{"ha":351,"x_min":106,"x_max":244,"o":"m 244 0 l 106 0 l 106 987 l 244 987 l 244 0 z "},"Κ":{"ha":766,"x_min":94,"x_max":758,"o":"m 300 444 l 232 444 l 232 0 l 94 0 l 94 987 l 232 987 l 232 555 l 290 555 l 566 987 l 732 987 l 407 524 l 758 0 l 583 0 l 300 444 z "},"Λ":{"ha":787,"x_min":26,"x_max":758,"o":"m 393 808 l 389 808 l 169 0 l 26 0 l 325 987 l 459 987 l 758 0 l 615 0 l 393 808 z "},"Μ":{"ha":1013,"x_min":90,"x_max":923,"o":"m 506 182 l 510 182 l 747 987 l 923 987 l 923 0 l 786 0 l 786 711 l 782 712 l 555 0 l 461 0 l 231 723 l 227 722 l 227 0 l 90 0 l 90 987 l 270 987 l 506 182 z "},"Ν":{"ha":851,"x_min":94,"x_max":757,"o":"m 757 0 l 618 0 l 236 728 l 232 727 l 232 0 l 94 0 l 94 987 l 232 987 l 614 261 l 618 262 l 618 987 l 757 987 l 757 0 z "},"Ξ":{"ha":688,"x_min":68,"x_max":627,"o":"m 68 104 l 627 104 l 627 0 l 68 0 l 68 104 m 126 554 l 566 554 l 566 451 l 126 451 l 126 554 m 75 987 l 610 987 l 610 882 l 75 882 l 75 987 z "},"Ο":{"ha":826,"x_min":66,"x_max":759,"o":"m 759 357 q 664 84 759 182 q 410 -14 569 -14 q 159 84 252 -14 q 66 357 66 182 l 66 629 q 159 903 66 804 q 409 1002 252 1002 q 664 903 568 1002 q 759 629 759 804 l 759 357 m 622 631 q 567 826 622 760 q 409 893 511 893 q 257 826 310 893 q 203 631 203 760 l 203 357 q 257 160 203 227 q 410 93 311 93 q 567 160 512 93 q 622 357 622 227 l 622 631 z "},"Π":{"ha":850,"x_min":93,"x_max":756,"o":"m 756 0 l 618 0 l 618 882 l 231 882 l 231 0 l 93 0 l 93 987 l 756 987 l 756 0 z "},"Ρ":{"ha":766,"x_min":94,"x_max":715,"o":"m 232 389 l 232 0 l 94 0 l 94 987 l 415 987 q 635 905 555 987 q 715 688 715 823 q 635 471 715 553 q 415 389 555 389 l 232 389 m 232 495 l 415 495 q 536 550 495 495 q 578 687 578 604 q 537 826 578 770 q 415 882 496 882 l 232 882 l 232 495 z "},"Σ":{"ha":688,"x_min":45,"x_max":644,"o":"m 463 494 l 210 104 l 644 104 l 644 0 l 45 0 l 45 85 l 316 503 l 45 901 l 45 987 l 622 987 l 622 882 l 212 882 l 463 513 l 463 494 z "},"Τ":{"ha":709,"x_min":25,"x_max":685,"o":"m 685 882 l 423 882 l 423 0 l 285 0 l 285 882 l 25 882 l 25 987 l 685 987 l 685 882 z "},"Υ":{"ha":764,"x_min":19,"x_max":744,"o":"m 379 506 l 383 506 l 589 987 l 744 987 l 448 355 l 448 0 l 310 0 l 310 366 l 19 987 l 172 987 l 379 506 z "},"Φ":{"ha":868,"x_min":47,"x_max":826,"o":"m 507 838 q 736 734 646 831 q 826 489 826 637 q 736 244 826 341 q 507 140 646 147 l 507 0 l 368 0 l 368 140 q 137 243 227 146 q 47 488 47 339 q 137 734 47 636 q 368 838 227 831 l 368 987 l 507 987 l 507 838 m 183 488 q 232 318 183 382 q 364 253 280 255 l 368 254 l 368 724 l 364 726 q 232 657 280 722 q 183 488 183 593 m 690 489 q 641 657 690 593 q 511 726 593 722 l 507 724 l 507 254 l 511 253 q 641 320 593 256 q 690 489 690 384 z "},"Χ":{"ha":764,"x_min":32,"x_max":739,"o":"m 380 602 l 384 602 l 565 987 l 728 987 l 466 498 l 739 0 l 573 0 l 386 395 l 382 395 l 195 0 l 32 0 l 300 498 l 39 987 l 200 987 l 380 602 z "},"Ψ":{"ha":855,"x_min":48,"x_max":800,"o":"m 492 344 l 496 342 q 617 425 573 354 q 661 614 661 496 l 661 987 l 800 987 l 800 614 q 716 346 800 446 q 492 230 632 245 l 492 0 l 354 0 l 354 229 q 131 345 214 244 q 48 614 48 446 l 48 987 l 186 987 l 186 614 q 230 427 186 498 q 350 344 274 357 l 354 345 l 354 987 l 492 987 l 492 344 z "},"Ω":{"ha":806,"x_min":68,"x_max":727,"o":"m 434 111 q 541 232 503 136 q 580 500 580 328 l 580 575 q 531 810 580 726 q 397 895 481 895 q 264 810 313 895 q 216 575 216 726 l 216 500 q 255 231 216 328 q 365 111 295 135 l 365 0 l 76 0 l 76 105 l 238 105 q 115 271 161 166 q 68 500 68 376 l 68 574 q 159 883 68 764 q 397 1002 250 1002 q 635 883 544 1002 q 727 574 727 764 l 727 500 q 681 271 727 376 q 558 105 634 166 l 724 105 l 724 0 l 434 0 l 434 111 z "},"Ϊ":{"ha":351,"x_min":-42,"x_max":395,"o":"m 244 0 l 106 0 l 106 987 l 244 987 l 244 0 m 395 1097 l 254 1097 l 254 1222 l 395 1222 l 395 1097 m 100 1097 l -42 1097 l -42 1222 l 100 1222 l 100 1097 z "},"Ϋ":{"ha":764,"x_min":19,"x_max":744,"o":"m 379 506 l 383 506 l 589 987 l 744 987 l 448 355 l 448 0 l 310 0 l 310 366 l 19 987 l 172 987 l 379 506 m 602 1094 l 460 1094 l 460 1219 l 602 1219 l 602 1094 m 307 1094 l 165 1094 l 165 1219 l 307 1219 l 307 1094 z "},"ά":{"ha":684,"x_min":55,"x_max":680,"o":"m 595 733 l 595 191 q 606 117 595 138 q 640 96 617 96 q 653 97 647 96 q 667 101 660 98 l 680 4 q 644 -10 662 -6 q 604 -14 626 -14 q 521 8 555 -14 q 472 80 488 31 q 399 10 441 34 q 300 -14 356 -14 q 119 84 184 -14 q 55 344 55 182 l 55 358 q 119 641 55 534 q 301 747 184 747 q 400 722 357 747 q 473 648 443 696 l 499 733 l 595 733 m 193 344 q 227 159 193 228 q 334 90 261 90 q 408 112 377 90 q 457 174 438 134 l 457 191 l 457 554 q 408 618 438 595 q 335 642 377 642 q 228 563 262 642 q 193 358 193 484 l 193 344 m 349 1025 l 486 1025 l 386 852 l 321 852 l 349 1025 z "},"έ":{"ha":664,"x_min":61,"x_max":608,"o":"m 332 326 q 233 297 267 326 q 199 208 199 268 q 235 121 199 155 q 335 87 271 87 q 435 124 397 87 q 473 214 473 161 l 604 214 l 606 210 q 529 45 608 102 q 340 -13 449 -13 q 139 45 216 -13 q 61 205 61 104 q 93 312 61 268 q 185 377 125 356 q 102 443 132 401 q 73 535 73 484 q 145 691 73 635 q 340 746 217 746 q 524 687 449 746 q 595 534 599 628 l 594 530 l 463 530 q 426 612 463 580 q 336 644 389 644 q 242 612 273 644 q 210 531 210 579 q 240 451 210 480 q 332 422 271 422 l 446 422 l 446 326 l 332 326 m 317 1025 l 455 1025 l 355 851 l 290 851 l 317 1025 z "},"ή":{"ha":684,"x_min":78,"x_max":604,"o":"m 204 734 l 212 628 q 290 716 243 685 q 396 747 337 747 q 549 677 495 747 q 604 452 604 607 l 604 -281 l 465 -281 l 465 451 q 436 598 465 555 q 349 642 407 642 q 270 618 303 642 q 216 553 237 595 l 216 0 l 78 0 l 78 734 l 204 734 m 322 1025 l 460 1025 l 359 852 l 295 852 l 322 1025 z "},"ί":{"ha":399,"x_min":100,"x_max":373,"o":"m 239 733 l 239 194 q 254 115 239 137 q 296 92 269 92 q 323 95 312 92 q 353 106 334 98 l 373 12 q 322 -8 347 -3 q 266 -14 297 -14 q 143 37 185 -14 q 100 199 100 87 l 100 733 l 239 733 m 157 1010 l 295 1010 l 195 837 l 130 837 l 157 1010 z "},"ΰ":{"ha":684,"x_min":79,"x_max":626,"o":"m 217 734 l 217 321 q 252 145 217 201 q 348 90 288 90 q 454 172 420 90 q 488 373 488 254 q 469 553 486 464 q 423 734 452 643 l 559 734 q 608 571 589 659 q 626 373 626 483 q 561 92 626 199 q 353 -14 496 -14 q 151 68 223 -14 q 79 322 79 151 l 79 734 l 217 734 m 566 817 l 437 817 l 437 940 l 566 940 l 566 817 m 259 817 l 130 817 l 130 940 l 259 940 l 259 817 m 333 1120 l 476 1120 l 389 951 l 307 951 l 333 1120 z "},"α":{"ha":684,"x_min":55,"x_max":680,"o":"m 595 733 l 595 191 q 606 117 595 138 q 640 96 617 96 q 653 97 647 96 q 667 101 660 98 l 680 4 q 644 -10 662 -6 q 604 -14 626 -14 q 521 8 555 -14 q 472 80 488 31 q 399 10 441 34 q 300 -14 356 -14 q 119 84 184 -14 q 55 344 55 182 l 55 358 q 119 641 55 534 q 301 747 184 747 q 400 722 357 747 q 473 648 443 696 l 499 733 l 595 733 m 193 344 q 227 159 193 228 q 334 90 261 90 q 408 112 377 90 q 457 174 438 134 l 457 191 l 457 554 q 408 618 438 595 q 335 642 377 642 q 228 563 262 642 q 193 358 193 484 l 193 344 z "},"β":{"ha":722,"x_min":93,"x_max":664,"o":"m 363 1002 q 553 929 482 1002 q 625 736 625 856 q 594 616 625 671 q 509 530 563 562 q 623 435 583 501 q 664 280 664 369 q 592 63 664 141 q 401 -14 521 -14 q 311 0 355 -14 q 231 42 267 14 l 231 -268 l 93 -268 l 93 717 q 172 920 93 838 q 363 1002 251 1002 m 361 573 q 456 615 426 573 q 487 734 487 657 q 454 848 487 800 q 363 896 422 896 q 269 845 307 896 q 231 717 231 794 l 231 153 q 293 107 255 123 q 376 90 330 90 q 486 142 446 90 q 526 279 526 194 q 489 416 526 361 q 387 471 452 471 l 317 471 l 317 573 l 361 573 z "},"γ":{"ha":613,"x_min":22,"x_max":593,"o":"m 451 734 l 593 734 l 378 26 l 378 -283 l 239 -283 l 239 24 l 22 734 l 165 734 l 295 220 l 307 163 l 311 163 l 323 220 l 451 734 z "},"δ":{"ha":684,"x_min":52,"x_max":631,"o":"m 564 987 l 564 884 l 307 884 l 305 880 l 490 696 q 592 560 553 645 q 631 375 631 475 l 631 357 q 554 89 631 193 q 342 -14 477 -14 q 129 87 206 -14 q 52 351 52 189 l 52 370 q 115 615 52 515 q 282 731 178 715 l 287 731 l 288 735 l 113 904 l 113 987 l 564 987 m 341 642 q 228 566 265 642 q 190 375 190 490 l 190 357 q 228 165 190 239 q 342 90 265 90 q 455 165 418 90 q 493 357 493 240 l 493 375 q 455 566 493 490 q 341 642 417 642 z "},"ε":{"ha":664,"x_min":61,"x_max":608,"o":"m 332 326 q 233 297 267 326 q 199 208 199 268 q 235 121 199 155 q 335 87 271 87 q 435 124 397 87 q 473 214 473 161 l 604 214 l 606 210 q 529 45 608 102 q 340 -13 449 -13 q 139 45 216 -13 q 61 205 61 104 q 93 312 61 268 q 185 377 125 356 q 102 443 132 401 q 73 535 73 484 q 145 691 73 635 q 340 746 217 746 q 524 687 449 746 q 595 534 599 628 l 594 530 l 463 530 q 426 612 463 580 q 336 644 389 644 q 242 612 273 644 q 210 531 210 579 q 240 451 210 480 q 332 422 271 422 l 446 422 l 446 326 l 332 326 z "},"ζ":{"ha":619,"x_min":56,"x_max":568,"o":"m 566 987 l 566 913 l 358 598 q 260 423 290 496 q 230 263 230 349 q 261 145 230 186 q 354 103 292 103 l 381 103 q 518 60 468 103 q 568 -62 568 18 q 517 -197 566 -139 q 395 -281 469 -256 l 346 -193 q 409 -144 382 -175 q 435 -71 435 -114 q 414 -18 435 -36 q 347 0 393 0 l 315 0 q 149 72 206 0 q 92 253 92 144 q 131 438 92 338 q 252 654 170 538 l 414 882 l 56 882 l 56 987 l 566 987 z "},"η":{"ha":684,"x_min":78,"x_max":604,"o":"m 204 734 l 212 628 q 290 716 243 685 q 396 747 337 747 q 549 677 495 747 q 604 452 604 607 l 604 -281 l 465 -281 l 465 451 q 436 598 465 555 q 349 642 407 642 q 270 618 303 642 q 216 553 237 595 l 216 0 l 78 0 l 78 734 l 204 734 z "},"θ":{"ha":703,"x_min":72,"x_max":652,"o":"m 652 351 q 573 84 652 182 q 363 -14 494 -14 q 151 84 231 -14 q 72 351 72 182 l 72 635 q 151 903 72 804 q 361 1002 229 1002 q 573 903 494 1002 q 652 635 652 804 l 652 351 m 211 545 l 513 545 l 513 655 q 473 831 513 767 q 361 896 433 896 q 250 831 290 896 q 211 655 211 767 l 211 545 m 513 441 l 211 441 l 211 332 q 251 155 211 220 q 363 90 291 90 q 474 155 435 90 q 513 332 513 220 l 513 441 z "},"ι":{"ha":399,"x_min":100,"x_max":373,"o":"m 239 733 l 239 194 q 254 115 239 137 q 296 92 269 92 q 323 95 312 92 q 353 106 334 98 l 373 12 q 322 -8 347 -3 q 266 -14 297 -14 q 143 37 185 -14 q 100 199 100 87 l 100 733 l 239 733 z "},"κ":{"ha":694,"x_min":87,"x_max":663,"o":"m 288 310 l 225 310 l 225 0 l 87 0 l 87 734 l 225 734 l 225 427 l 279 427 l 475 734 l 648 734 l 397 390 l 663 0 l 487 0 l 288 310 z "},"λ":{"ha":667,"x_min":24,"x_max":662,"o":"m 174 0 l 24 0 l 250 713 l 216 805 q 176 890 201 857 q 118 924 151 924 q 99 922 111 924 q 79 920 87 921 l 77 1018 q 114 1026 96 1023 q 149 1029 132 1029 q 276 976 232 1029 q 346 847 321 922 l 557 210 q 589 131 570 161 q 633 100 608 101 q 645 100 640 99 q 662 102 650 100 l 656 0 q 628 -6 644 -4 q 600 -8 612 -9 q 487 45 529 -6 q 418 184 445 97 l 313 521 l 309 520 l 299 476 l 174 0 z "},"μ":{"ha":715,"x_min":90,"x_max":619,"o":"m 227 734 l 227 309 q 258 137 227 184 q 345 91 288 91 q 431 116 398 91 q 482 191 465 142 l 482 734 l 619 734 l 619 0 l 493 0 l 489 61 q 427 5 463 24 q 345 -14 391 -14 q 279 -4 309 -14 q 227 30 250 7 l 227 -282 l 90 -282 l 90 734 l 227 734 z "},"ν":{"ha":612,"x_min":22,"x_max":593,"o":"m 295 220 l 307 163 l 311 163 l 323 220 l 451 734 l 593 734 l 370 0 l 247 0 l 22 734 l 165 734 l 295 220 z "},"ξ":{"ha":633,"x_min":64,"x_max":609,"o":"m 559 987 l 559 880 l 386 880 q 286 834 319 875 q 253 731 253 793 q 290 631 253 667 q 408 595 328 595 l 493 595 l 493 489 l 410 489 q 256 436 309 489 q 203 279 203 384 q 246 145 203 196 q 366 95 290 95 l 419 95 q 559 52 509 95 q 609 -73 609 9 q 561 -209 608 -152 q 437 -292 513 -265 l 393 -208 q 455 -160 428 -189 q 482 -87 482 -131 q 462 -31 482 -51 q 400 -10 442 -10 l 361 -10 q 146 67 228 -10 q 64 282 64 144 q 112 447 64 380 q 250 543 160 513 q 150 614 186 568 q 115 720 115 661 q 135 814 115 774 q 195 880 156 854 l 66 880 l 66 987 l 559 987 z "},"ο":{"ha":684,"x_min":52,"x_max":631,"o":"m 52 375 q 129 643 52 538 q 341 747 206 747 q 554 643 476 747 q 631 375 631 538 l 631 357 q 554 89 631 193 q 342 -14 477 -14 q 129 89 206 -14 q 52 357 52 193 l 52 375 m 190 357 q 228 165 190 239 q 342 90 265 90 q 455 165 418 90 q 493 357 493 240 l 493 375 q 455 566 493 490 q 341 642 417 642 q 228 566 265 642 q 190 375 190 490 l 190 357 z "},"π":{"ha":752,"x_min":51,"x_max":781,"o":"m 688 631 l 646 631 l 646 194 q 661 115 646 137 q 704 92 676 92 q 731 95 720 92 q 760 106 742 98 l 781 12 q 729 -8 754 -3 q 673 -14 705 -14 q 550 37 593 -14 q 508 199 508 87 l 508 631 l 281 631 l 281 0 l 143 0 l 143 631 l 51 631 l 51 734 l 688 734 l 688 631 z "},"ρ":{"ha":684,"x_min":79,"x_max":629,"o":"m 629 344 q 565 83 629 181 q 385 -14 500 -14 q 289 6 331 -14 q 218 64 248 26 l 218 -282 l 79 -282 l 79 397 l 81 397 l 79 399 q 155 654 79 562 q 354 747 231 747 q 557 641 486 747 q 629 358 629 535 l 629 344 m 490 358 q 456 563 490 484 q 350 642 422 642 q 251 566 284 642 q 218 391 218 491 l 218 176 q 269 113 237 135 q 347 90 300 90 q 455 159 420 90 q 490 344 490 229 l 490 358 z "},"ς":{"ha":637,"x_min":52,"x_max":585,"o":"m 335 747 q 516 676 448 747 q 583 481 585 605 l 581 477 l 457 477 q 426 597 457 552 q 335 642 394 642 q 225 566 260 642 q 189 379 189 490 l 189 353 q 234 181 189 248 q 369 99 278 113 q 524 46 474 83 q 573 -71 573 8 q 523 -204 572 -146 q 401 -288 474 -261 l 351 -199 q 414 -152 387 -181 q 440 -79 440 -122 q 416 -28 440 -46 q 341 -1 392 -10 q 125 110 197 18 q 52 353 52 202 l 52 379 q 127 643 52 538 q 335 747 202 747 z "},"σ":{"ha":688,"x_min":52,"x_max":673,"o":"m 673 627 l 509 627 q 595 509 563 581 q 627 354 627 438 l 627 336 q 550 86 627 187 q 342 -14 473 -14 q 129 89 206 -14 q 52 357 52 193 l 52 375 q 129 633 52 533 q 340 734 206 734 l 673 734 l 673 627 m 189 357 q 227 165 189 239 q 342 90 264 90 q 451 165 414 90 q 488 357 488 240 l 488 375 q 451 556 488 484 q 340 627 414 627 q 227 555 264 627 q 189 375 189 484 l 189 357 z "},"τ":{"ha":633,"x_min":42,"x_max":592,"o":"m 592 629 l 385 629 l 385 0 l 246 0 l 246 629 l 42 629 l 42 734 l 592 734 l 592 629 z "},"υ":{"ha":684,"x_min":79,"x_max":626,"o":"m 217 734 l 217 321 q 252 145 217 201 q 348 90 288 90 q 454 172 420 90 q 488 373 488 254 q 469 553 486 464 q 423 734 452 643 l 559 734 q 608 571 589 659 q 626 373 626 483 q 561 92 626 199 q 353 -14 496 -14 q 151 68 223 -14 q 79 322 79 151 l 79 734 l 217 734 z "},"φ":{"ha":875,"x_min":45,"x_max":825,"o":"m 502 734 q 736 625 647 734 q 825 358 825 516 q 747 109 825 210 q 502 -10 668 7 l 502 -324 l 363 -324 l 363 -10 q 122 117 198 9 q 45 385 45 225 q 65 575 45 490 q 119 734 85 660 l 253 734 q 203 558 221 644 q 183 385 184 471 q 225 200 183 277 q 359 104 267 122 l 363 105 l 363 734 l 502 734 m 687 358 q 637 548 686 470 q 506 623 589 626 l 502 621 l 502 103 l 506 102 q 643 189 599 117 q 687 358 687 260 z "},"χ":{"ha":667,"x_min":37,"x_max":640,"o":"m 109 743 q 235 690 191 743 q 305 564 279 637 l 353 429 l 357 429 l 487 734 l 627 734 l 420 245 l 534 -73 q 568 -152 551 -124 q 610 -182 585 -180 q 625 -182 618 -182 q 640 -181 631 -182 l 633 -284 q 606 -290 622 -288 q 576 -292 590 -292 q 471 -240 511 -290 q 404 -99 432 -191 l 346 60 l 342 60 l 197 -281 l 58 -281 l 280 244 l 180 522 q 138 606 163 574 q 77 638 112 638 q 61 637 71 638 q 38 634 52 635 l 37 732 q 72 740 54 736 q 109 743 90 743 z "},"ψ":{"ha":871,"x_min":52,"x_max":822,"o":"m 498 733 l 498 105 l 503 104 q 640 202 596 121 q 684 393 684 282 q 664 562 682 477 q 615 734 646 646 l 749 734 q 802 580 782 663 q 822 393 822 496 q 744 117 822 227 q 498 -11 667 7 l 498 -313 l 360 -313 l 360 -9 q 133 111 213 9 q 52 401 52 212 l 52 734 l 191 734 l 191 400 q 235 194 191 267 q 356 105 280 121 l 360 106 l 360 733 l 498 733 z "},"ω":{"ha":1031,"x_min":61,"x_max":970,"o":"m 287 734 q 223 553 246 643 q 199 373 200 464 q 228 170 199 249 q 319 94 256 91 l 323 94 q 410 147 376 91 q 444 325 444 203 l 444 536 l 587 536 l 587 325 q 620 147 587 203 q 708 94 653 91 l 712 94 q 803 170 774 91 q 832 373 832 248 q 806 554 829 465 q 743 734 783 644 l 880 734 q 945 571 921 659 q 970 373 970 483 q 909 92 970 199 q 715 -14 848 -14 q 593 24 644 -14 q 515 138 542 62 q 437 24 488 62 q 315 -14 386 -14 q 121 92 182 -14 q 61 373 61 199 q 85 571 61 483 q 150 734 109 659 l 287 734 z "},"ϊ":{"ha":399,"x_min":-42,"x_max":395,"o":"m 239 733 l 239 194 q 254 115 239 137 q 296 92 269 92 q 323 95 312 92 q 353 106 334 98 l 373 12 q 322 -8 347 -3 q 266 -14 297 -14 q 143 37 185 -14 q 100 199 100 87 l 100 733 l 239 733 m 395 863 l 254 863 l 254 989 l 395 989 l 395 863 m 100 863 l -42 863 l -42 989 l 100 989 l 100 863 z "},"ϋ":{"ha":684,"x_min":79,"x_max":626,"o":"m 217 734 l 217 321 q 252 145 217 201 q 348 90 288 90 q 454 172 420 90 q 488 373 488 254 q 469 553 486 464 q 423 734 452 643 l 559 734 q 608 571 589 659 q 626 373 626 483 q 561 92 626 199 q 353 -14 496 -14 q 151 68 223 -14 q 79 322 79 151 l 79 734 l 217 734 m 571 864 l 429 864 l 429 989 l 571 989 l 571 864 m 275 864 l 134 864 l 134 989 l 275 989 l 275 864 z "},"ό":{"ha":684,"x_min":52,"x_max":631,"o":"m 52 375 q 129 643 52 538 q 341 747 206 747 q 554 643 476 747 q 631 375 631 538 l 631 357 q 554 89 631 193 q 342 -14 477 -14 q 129 89 206 -14 q 52 357 52 193 l 52 375 m 190 357 q 228 165 190 239 q 342 90 265 90 q 455 165 418 90 q 493 357 493 240 l 493 375 q 455 566 493 490 q 341 642 417 642 q 228 566 265 642 q 190 375 190 490 l 190 357 m 324 1025 l 462 1025 l 361 852 l 297 852 l 324 1025 z "},"ύ":{"ha":684,"x_min":79,"x_max":626,"o":"m 217 734 l 217 321 q 252 145 217 201 q 348 90 288 90 q 454 172 420 90 q 488 373 488 254 q 469 553 486 464 q 423 734 452 643 l 559 734 q 608 571 589 659 q 626 373 626 483 q 561 92 626 199 q 353 -14 496 -14 q 151 68 223 -14 q 79 322 79 151 l 79 734 l 217 734 m 333 1011 l 471 1011 l 370 838 l 306 838 l 333 1011 z "},"ώ":{"ha":1031,"x_min":61,"x_max":970,"o":"m 287 734 q 223 553 246 643 q 199 373 200 464 q 228 170 199 249 q 319 94 256 91 l 323 94 q 410 147 376 91 q 444 325 444 203 l 444 536 l 587 536 l 587 325 q 620 147 587 203 q 708 94 653 91 l 712 94 q 803 170 774 91 q 832 373 832 248 q 806 554 829 465 q 743 734 783 644 l 880 734 q 945 571 921 659 q 970 373 970 483 q 909 92 970 199 q 715 -14 848 -14 q 593 24 644 -14 q 515 138 542 62 q 437 24 488 62 q 315 -14 386 -14 q 121 92 182 -14 q 61 373 61 199 q 85 571 61 483 q 150 734 109 659 l 287 734 m 496 1011 l 634 1011 l 534 838 l 469 838 l 496 1011 z "},"ϑ":{"ha":785,"x_min":75,"x_max":732,"o":"m 317 688 l 317 739 q 375 930 317 858 q 527 1002 434 1002 q 677 931 622 1002 q 732 739 732 861 l 732 382 q 642 93 732 200 q 402 -14 551 -14 q 165 97 256 -14 q 75 382 75 208 l 75 849 l 217 850 l 217 382 q 267 174 217 253 q 402 94 317 94 q 540 170 490 94 q 590 382 590 245 l 590 388 q 393 480 469 396 q 317 688 317 564 l 317 688 m 590 745 q 573 853 590 817 q 523 889 555 889 q 470 852 489 889 q 450 745 450 816 l 450 687 q 487 554 450 608 q 586 497 523 501 l 590 498 l 590 745 z "},"ϒ":{"ha":678,"x_min":-7,"x_max":685,"o":"m 448 832 q 520 960 480 923 q 623 998 561 998 q 656 994 640 998 q 685 981 671 989 l 671 880 q 659 885 667 882 q 643 887 650 887 q 604 870 621 887 q 576 813 587 853 l 406 376 l 406 0 l 269 0 l 269 380 l 100 813 q 72 870 89 853 q 34 887 56 887 q 17 885 26 887 q 6 880 8 882 l -7 981 q 21 994 5 989 q 54 998 36 998 q 156 961 116 998 q 229 833 196 924 l 326 557 l 336 508 l 340 508 l 352 557 l 448 832 z "},"ϖ":{"ha":973,"x_min":31,"x_max":954,"o":"m 954 637 l 868 637 q 899 514 888 579 q 911 373 911 448 q 856 93 911 199 q 682 -14 801 -14 q 564 23 613 -14 q 488 134 514 60 q 411 23 460 60 q 295 -14 362 -14 q 120 93 175 -14 q 65 373 65 199 q 76 514 65 448 q 108 637 87 579 l 31 637 l 31 734 l 954 734 l 954 637 m 772 373 q 759 505 771 439 q 726 637 747 571 l 250 637 q 216 505 228 571 q 203 373 204 439 q 226 171 203 250 q 298 95 249 92 l 302 95 q 385 147 353 91 q 416 325 416 203 l 416 490 l 559 490 l 559 325 q 591 147 559 203 q 673 95 622 91 l 677 95 q 749 170 726 92 q 772 373 772 248 z "},"Ѐ":{"ha":671,"x_min":94,"x_max":627,"o":"m 567 458 l 232 458 l 232 104 l 627 104 l 627 0 l 94 0 l 94 987 l 623 987 l 623 882 l 232 882 l 232 564 l 567 564 l 567 458 m 427 1086 l 307 1086 l 149 1263 l 151 1267 l 310 1267 l 427 1086 z "},"Ё":{"ha":671,"x_min":94,"x_max":627,"o":"m 567 458 l 232 458 l 232 104 l 627 104 l 627 0 l 94 0 l 94 987 l 623 987 l 623 882 l 232 882 l 232 564 l 567 564 l 567 458 m 580 1097 l 438 1097 l 438 1222 l 580 1222 l 580 1097 m 284 1097 l 142 1097 l 142 1222 l 284 1222 l 284 1097 z "},"Ђ":{"ha":908,"x_min":39,"x_max":933,"o":"m 699 882 l 437 882 l 437 0 l 298 0 l 298 882 l 39 882 l 39 987 l 699 987 l 699 882 m 440 599 l 608 599 q 844 515 755 599 q 933 277 933 432 q 877 95 933 187 q 713 -25 821 2 l 664 67 q 763 148 730 92 q 795 277 795 204 q 745 435 795 380 q 608 490 694 490 l 440 490 l 440 599 z "},"Ѓ":{"ha":668,"x_min":91,"x_max":627,"o":"m 627 882 l 229 882 l 229 0 l 91 0 l 91 987 l 627 987 l 627 882 m 410 1264 l 568 1264 l 570 1261 l 406 1084 l 291 1084 l 410 1264 z "},"Є":{"ha":787,"x_min":80,"x_max":728,"o":"m 724 298 l 725 294 q 644 67 728 148 q 412 -14 559 -14 q 170 84 260 -14 q 80 357 80 181 l 80 631 q 169 904 80 806 q 408 1002 258 1002 q 644 924 559 1002 q 726 695 728 846 l 724 691 l 592 691 q 546 847 592 797 q 408 897 500 897 q 267 828 317 897 q 218 633 218 760 l 218 551 l 505 551 l 505 446 l 218 446 l 218 357 q 269 159 218 228 q 412 91 319 91 q 547 140 502 91 q 591 298 591 189 l 724 298 z "},"Ѕ":{"ha":742,"x_min":58,"x_max":682,"o":"m 545 248 q 506 360 545 316 q 370 439 467 404 q 156 551 231 483 q 81 734 81 620 q 164 926 81 850 q 375 1002 246 1002 q 595 918 512 1002 q 675 707 677 833 l 673 703 l 541 703 q 495 843 541 789 q 374 897 449 897 q 260 850 300 897 q 220 735 220 804 q 262 629 220 671 q 406 549 305 587 q 612 434 541 505 q 682 250 682 363 q 599 57 682 129 q 381 -14 516 -14 q 155 63 251 -14 q 62 285 58 140 l 63 289 l 196 289 q 249 139 196 189 q 381 90 302 90 q 501 133 458 90 q 545 248 545 176 z "},"І":{"ha":351,"x_min":106,"x_max":244,"o":"m 244 0 l 106 0 l 106 987 l 244 987 l 244 0 z "},"Ї":{"ha":351,"x_min":-42,"x_max":395,"o":"m 244 0 l 106 0 l 106 987 l 244 987 l 244 0 m 395 1097 l 254 1097 l 254 1222 l 395 1222 l 395 1097 m 100 1097 l -42 1097 l -42 1222 l 100 1222 l 100 1097 z "},"Ј":{"ha":668,"x_min":35,"x_max":576,"o":"m 437 987 l 576 987 l 576 292 q 501 69 576 152 q 309 -14 427 -14 q 109 59 183 -14 q 38 274 35 133 l 40 278 l 172 278 q 209 136 172 182 q 309 90 245 90 q 401 145 366 90 q 437 292 437 199 l 437 987 z "},"Љ":{"ha":1284,"x_min":31,"x_max":1236,"o":"m 756 987 l 756 603 l 934 603 q 1155 519 1074 603 q 1236 302 1236 435 q 1155 84 1236 168 q 934 0 1074 0 l 618 0 l 618 882 l 355 882 l 354 534 q 282 126 352 253 q 58 0 212 0 l 31 0 l 31 104 l 54 104 q 179 198 144 104 q 216 534 214 292 l 218 987 l 756 987 m 756 498 l 756 104 l 934 104 q 1056 162 1014 104 q 1098 303 1098 219 q 1056 441 1098 384 q 934 498 1014 498 l 756 498 z "},"Њ":{"ha":1283,"x_min":93,"x_max":1236,"o":"m 231 552 l 618 552 l 618 987 l 755 987 l 755 584 l 933 584 q 1155 504 1074 584 q 1236 294 1236 423 q 1155 82 1236 163 q 933 0 1074 0 l 618 0 l 618 447 l 231 447 l 231 0 l 93 0 l 93 987 l 231 987 l 231 552 m 755 479 l 755 109 l 933 109 q 1056 162 1014 109 q 1098 295 1098 215 q 1056 426 1098 373 q 933 479 1014 479 l 755 479 z "},"Ћ":{"ha":970,"x_min":50,"x_max":887,"o":"m 709 882 l 448 882 l 448 649 l 585 649 q 809 572 732 649 q 887 329 887 495 l 887 0 l 749 0 l 749 329 q 710 495 749 447 q 585 544 671 544 l 448 544 l 448 0 l 309 0 l 309 882 l 50 882 l 50 987 l 709 987 l 709 882 z "},"Ќ":{"ha":766,"x_min":94,"x_max":758,"o":"m 300 444 l 232 444 l 232 0 l 94 0 l 94 987 l 232 987 l 232 555 l 290 555 l 566 987 l 732 987 l 407 524 l 758 0 l 583 0 l 300 444 m 407 1204 l 565 1204 l 567 1201 l 403 1024 l 288 1024 l 407 1204 z "},"Ѝ":{"ha":846,"x_min":92,"x_max":755,"o":"m 616 987 l 755 987 l 755 0 l 616 0 l 616 724 l 612 724 l 229 0 l 92 0 l 92 987 l 229 987 l 229 264 l 233 263 l 616 987 m 490 1086 l 370 1086 l 213 1263 l 214 1267 l 374 1267 l 490 1086 z "},"Ў":{"ha":771,"x_min":29,"x_max":738,"o":"m 357 500 l 382 425 l 387 425 l 586 987 l 738 987 l 425 172 q 339 36 389 85 q 200 -14 290 -14 q 133 -7 163 -14 q 76 14 102 1 l 93 111 q 138 96 113 102 q 185 90 163 90 q 262 120 234 90 q 307 203 290 151 l 326 257 l 29 987 l 180 987 l 357 500 m 574 1270 l 576 1265 q 526 1135 578 1185 q 384 1085 473 1085 q 241 1135 294 1085 q 192 1265 189 1185 l 193 1270 l 296 1270 q 317 1196 296 1224 q 384 1168 338 1168 q 449 1196 427 1168 q 470 1270 470 1225 l 574 1270 z "},"Џ":{"ha":846,"x_min":89,"x_max":752,"o":"m 89 987 l 227 987 l 227 104 l 614 104 l 614 987 l 752 987 l 752 0 l 495 0 l 495 -241 l 357 -241 l 357 0 l 89 0 l 89 987 z "},"А":{"ha":764,"x_min":22,"x_max":745,"o":"m 531 250 l 236 250 l 165 0 l 22 0 l 318 987 l 452 987 l 745 0 l 602 0 l 531 250 m 267 359 l 500 359 l 387 760 l 382 760 l 267 359 z "},"Б":{"ha":760,"x_min":91,"x_max":709,"o":"m 627 882 l 229 882 l 229 600 l 407 600 q 628 517 547 600 q 709 302 709 434 q 628 84 709 168 q 407 0 547 0 l 91 0 l 91 987 l 627 987 l 627 882 m 229 494 l 229 104 l 407 104 q 530 162 488 104 q 572 303 572 219 q 530 439 572 384 q 407 494 488 494 l 229 494 z "},"В":{"ha":766,"x_min":94,"x_max":717,"o":"m 94 0 l 94 987 l 368 987 q 589 921 509 987 q 669 722 669 854 q 634 599 669 652 q 538 520 600 545 q 670 438 624 506 q 717 279 717 371 q 638 72 717 143 q 422 0 560 0 l 94 0 m 232 460 l 232 104 l 422 104 q 538 150 497 104 q 578 279 578 195 q 539 409 578 360 q 427 460 499 458 l 420 460 l 232 460 m 232 559 l 389 559 q 493 603 455 562 q 530 719 530 644 q 489 841 530 800 q 368 882 448 882 l 232 882 l 232 559 z "},"Г":{"ha":668,"x_min":91,"x_max":627,"o":"m 627 882 l 229 882 l 229 0 l 91 0 l 91 987 l 627 987 l 627 882 z "},"Д":{"ha":890,"x_min":24,"x_max":871,"o":"m 871 -241 l 732 -241 l 732 0 l 161 0 l 161 -241 l 24 -241 l 24 104 l 76 104 q 183 228 149 104 q 229 604 218 351 l 248 987 l 765 987 l 765 104 l 871 104 l 871 -241 m 367 604 q 332 305 359 431 q 256 104 305 179 l 627 104 l 627 882 l 380 882 l 367 604 z "},"Е":{"ha":671,"x_min":94,"x_max":627,"o":"m 567 458 l 232 458 l 232 104 l 627 104 l 627 0 l 94 0 l 94 987 l 623 987 l 623 882 l 232 882 l 232 564 l 567 564 l 567 458 z "},"Ж":{"ha":1045,"x_min":14,"x_max":1031,"o":"m 636 448 l 594 448 l 594 0 l 456 0 l 456 448 l 410 448 l 186 0 l 14 0 l 300 529 l 32 987 l 199 987 l 414 559 l 456 559 l 456 987 l 594 987 l 594 559 l 633 559 l 845 987 l 1012 987 l 746 530 l 1031 0 l 859 0 l 636 448 z "},"З":{"ha":803,"x_min":64,"x_max":731,"o":"m 397 555 q 536 600 491 555 q 581 724 581 644 q 532 848 581 800 q 389 896 484 896 q 264 848 314 896 q 214 726 214 801 l 82 726 l 80 730 q 167 926 77 851 q 389 1002 257 1002 q 629 929 541 1002 q 718 722 718 857 q 677 595 718 652 q 566 506 636 537 q 688 419 646 478 q 731 273 731 359 q 636 62 731 138 q 389 -14 542 -14 q 160 58 256 -14 q 68 270 64 131 l 69 274 l 201 274 q 254 143 201 195 q 389 90 307 90 q 539 140 485 90 q 593 271 593 189 q 544 407 593 363 q 397 451 494 451 l 287 451 l 287 555 l 397 555 z "},"И":{"ha":846,"x_min":92,"x_max":755,"o":"m 616 987 l 755 987 l 755 0 l 616 0 l 616 724 l 612 724 l 229 0 l 92 0 l 92 987 l 229 987 l 229 264 l 233 263 l 616 987 z "},"Й":{"ha":846,"x_min":92,"x_max":755,"o":"m 616 987 l 755 987 l 755 0 l 616 0 l 616 724 l 612 724 l 229 0 l 92 0 l 92 987 l 229 987 l 229 264 l 233 263 l 616 987 m 615 1270 l 616 1265 q 567 1135 619 1185 q 425 1085 514 1085 q 282 1135 334 1085 q 233 1265 229 1185 l 234 1270 l 337 1270 q 358 1196 337 1224 q 425 1168 379 1168 q 489 1196 468 1168 q 511 1270 511 1225 l 615 1270 z "},"К":{"ha":766,"x_min":94,"x_max":758,"o":"m 300 444 l 232 444 l 232 0 l 94 0 l 94 987 l 232 987 l 232 555 l 290 555 l 566 987 l 732 987 l 407 524 l 758 0 l 583 0 l 300 444 z "},"Л":{"ha":849,"x_min":31,"x_max":756,"o":"m 756 987 l 756 0 l 618 0 l 618 882 l 338 882 l 336 534 q 269 126 336 253 q 57 0 203 0 l 31 0 l 31 104 l 54 104 q 166 198 135 104 q 198 534 197 291 l 200 987 l 756 987 z "},"М":{"ha":1013,"x_min":90,"x_max":923,"o":"m 506 182 l 510 182 l 747 987 l 923 987 l 923 0 l 786 0 l 786 711 l 782 712 l 555 0 l 461 0 l 231 723 l 227 722 l 227 0 l 90 0 l 90 987 l 270 987 l 506 182 z "},"Н":{"ha":850,"x_min":94,"x_max":756,"o":"m 756 0 l 618 0 l 618 435 l 232 435 l 232 0 l 94 0 l 94 987 l 232 987 l 232 541 l 618 541 l 618 987 l 756 987 l 756 0 z "},"О":{"ha":826,"x_min":66,"x_max":759,"o":"m 759 357 q 664 84 759 182 q 410 -14 569 -14 q 159 84 252 -14 q 66 357 66 182 l 66 629 q 159 903 66 804 q 409 1002 252 1002 q 664 903 568 1002 q 759 629 759 804 l 759 357 m 622 631 q 567 826 622 760 q 409 893 511 893 q 257 826 310 893 q 203 631 203 760 l 203 357 q 257 160 203 227 q 410 93 311 93 q 567 160 512 93 q 622 357 622 227 l 622 631 z "},"П":{"ha":850,"x_min":93,"x_max":756,"o":"m 756 0 l 618 0 l 618 882 l 231 882 l 231 0 l 93 0 l 93 987 l 756 987 l 756 0 z "},"Р":{"ha":766,"x_min":94,"x_max":715,"o":"m 232 389 l 232 0 l 94 0 l 94 987 l 415 987 q 635 905 555 987 q 715 688 715 823 q 635 471 715 553 q 415 389 555 389 l 232 389 m 232 495 l 415 495 q 536 550 495 495 q 578 687 578 604 q 537 826 578 770 q 415 882 496 882 l 232 882 l 232 495 z "},"С":{"ha":768,"x_min":68,"x_max":717,"o":"m 712 297 l 713 293 q 632 66 716 147 q 401 -14 548 -14 q 159 83 249 -14 q 68 356 68 180 l 68 630 q 157 903 68 805 q 396 1002 246 1002 q 632 923 547 1002 q 714 694 717 845 l 713 690 l 581 690 q 534 846 581 796 q 396 896 488 896 q 256 828 305 896 q 206 632 206 760 l 206 356 q 257 159 206 227 q 401 90 308 90 q 535 139 490 90 q 580 297 580 189 l 712 297 z "},"Т":{"ha":709,"x_min":25,"x_max":685,"o":"m 685 882 l 423 882 l 423 0 l 285 0 l 285 882 l 25 882 l 25 987 l 685 987 l 685 882 z "},"У":{"ha":771,"x_min":29,"x_max":738,"o":"m 357 500 l 382 425 l 387 425 l 586 987 l 738 987 l 425 172 q 339 36 389 85 q 200 -14 290 -14 q 133 -7 163 -14 q 76 14 102 1 l 93 111 q 138 96 113 102 q 185 90 163 90 q 262 120 234 90 q 307 203 290 151 l 326 257 l 29 987 l 180 987 l 357 500 z "},"Ф":{"ha":868,"x_min":47,"x_max":826,"o":"m 507 838 q 736 734 646 831 q 826 489 826 637 q 736 244 826 341 q 507 140 646 147 l 507 0 l 368 0 l 368 140 q 137 243 227 146 q 47 488 47 339 q 137 734 47 636 q 368 838 227 831 l 368 987 l 507 987 l 507 838 m 183 488 q 232 318 183 382 q 364 253 280 255 l 368 254 l 368 724 l 364 726 q 232 657 280 722 q 183 488 183 593 m 690 489 q 641 657 690 593 q 511 726 593 722 l 507 724 l 507 254 l 511 253 q 641 320 593 256 q 690 489 690 384 z "},"Х":{"ha":764,"x_min":32,"x_max":739,"o":"m 380 602 l 384 602 l 565 987 l 728 987 l 466 498 l 739 0 l 573 0 l 386 395 l 382 395 l 195 0 l 32 0 l 300 498 l 39 987 l 200 987 l 380 602 z "},"Ц":{"ha":907,"x_min":215,"x_max":878,"o":"m 215 987 l 353 987 l 353 106 l 720 106 l 720 111 l 740 111 l 740 987 l 878 987 l 878 0 l 858 0 l 858 -242 l 720 -242 l 720 0 l 215 0 l 215 987 z "},"Ч":{"ha":828,"x_min":90,"x_max":734,"o":"m 734 987 l 734 0 l 597 0 l 597 415 q 499 391 551 399 q 395 383 448 383 q 168 457 247 383 q 90 693 90 531 l 90 987 l 227 987 l 227 693 q 268 534 227 579 q 395 488 308 488 q 497 497 444 488 q 597 520 550 505 l 597 987 l 734 987 z "},"Ш":{"ha":1232,"x_min":90,"x_max":1146,"o":"m 229 987 l 229 104 l 551 104 l 551 987 l 688 987 l 688 104 l 1008 104 l 1008 987 l 1146 987 l 1146 0 l 90 0 l 90 987 l 229 987 z "},"Щ":{"ha":1296,"x_min":90,"x_max":1258,"o":"m 229 987 l 229 104 l 551 104 l 551 987 l 688 987 l 688 104 l 1008 104 l 1008 987 l 1146 987 l 1146 106 l 1258 106 l 1258 -240 l 1120 -240 l 1120 0 l 90 0 l 90 987 l 229 987 z "},"Ъ":{"ha":869,"x_min":5,"x_max":820,"o":"m 5 987 l 340 987 l 340 600 l 517 600 q 739 517 658 600 q 820 302 820 434 q 739 84 820 168 q 517 0 658 0 l 201 0 l 201 882 l 5 882 l 5 987 m 340 494 l 340 104 l 517 104 q 640 162 598 104 q 682 303 682 219 q 640 439 682 384 q 517 494 598 494 l 340 494 z "},"Ы":{"ha":1034,"x_min":91,"x_max":1057,"o":"m 229 600 l 407 600 q 628 517 547 600 q 709 302 709 434 q 628 84 709 168 q 407 0 547 0 l 91 0 l 91 987 l 229 987 l 229 600 m 1057 0 l 919 0 l 919 987 l 1057 987 l 1057 0 m 229 494 l 229 104 l 407 104 q 530 162 488 104 q 572 303 572 219 q 530 439 572 384 q 407 494 488 494 l 229 494 z "},"Ь":{"ha":756,"x_min":91,"x_max":709,"o":"m 229 600 l 407 600 q 628 517 547 600 q 709 302 709 434 q 628 84 709 168 q 407 0 547 0 l 91 0 l 91 987 l 229 987 l 229 600 m 229 494 l 229 104 l 407 104 q 530 162 488 104 q 572 303 572 219 q 530 439 572 384 q 407 494 488 494 l 229 494 z "},"Э":{"ha":785,"x_min":80,"x_max":720,"o":"m 85 671 l 83 675 q 165 912 81 823 q 395 1002 250 1002 q 630 884 540 1002 q 720 582 720 766 l 720 406 q 630 104 720 221 q 395 -14 540 -14 q 164 73 248 -14 q 83 312 80 159 l 85 316 l 218 316 q 262 149 218 207 q 395 91 307 91 q 532 179 481 91 q 583 404 583 267 l 583 456 l 285 456 l 285 561 l 583 561 l 583 582 q 532 808 583 720 q 395 897 481 897 q 262 839 307 897 q 218 671 218 781 l 85 671 z "},"Ю":{"ha":1109,"x_min":106,"x_max":1084,"o":"m 1084 357 q 989 84 1084 182 q 735 -14 895 -14 q 485 84 578 -14 q 392 357 392 182 l 392 431 l 244 431 l 244 0 l 106 0 l 106 987 l 244 987 l 244 536 l 392 536 l 392 629 q 485 903 392 804 q 734 1002 578 1002 q 989 903 894 1002 q 1084 629 1084 804 l 1084 357 m 947 631 q 892 826 947 760 q 734 893 837 893 q 582 826 635 893 q 529 631 529 760 l 529 357 q 583 160 529 227 q 735 93 636 93 q 892 160 838 93 q 947 357 947 227 l 947 631 z "},"Я":{"ha":713,"x_min":9,"x_max":636,"o":"m 157 0 l 9 0 l 203 452 q 89 550 127 488 q 50 701 50 613 q 131 912 50 837 q 355 987 212 987 l 636 987 l 636 0 l 498 0 l 498 410 l 329 410 l 157 0 m 498 882 l 355 882 q 230 833 272 882 q 188 699 188 785 q 230 564 188 615 q 352 513 273 513 l 498 513 l 498 882 z "},"а":{"ha":656,"x_min":51,"x_max":600,"o":"m 460 0 q 447 59 452 33 q 440 111 441 85 q 363 21 411 57 q 254 -14 315 -14 q 103 44 156 -14 q 51 203 51 102 q 124 367 51 307 q 327 427 197 427 l 439 427 l 439 502 q 410 607 439 569 q 324 644 380 644 q 244 612 274 644 q 215 528 215 579 l 83 528 l 82 532 q 149 682 78 617 q 333 747 219 747 q 510 683 442 747 q 578 500 578 619 l 578 160 q 583 78 578 118 q 600 0 589 39 l 460 0 m 283 92 q 382 126 339 92 q 439 211 426 161 l 439 341 l 325 341 q 225 301 261 341 q 189 203 189 260 q 214 122 189 153 q 283 92 238 92 z "},"б":{"ha":673,"x_min":52,"x_max":631,"o":"m 358 747 q 558 643 485 747 q 631 375 631 538 l 631 357 q 554 89 631 193 q 342 -14 476 -14 q 129 89 207 -14 q 52 357 52 193 l 52 375 q 52 384 52 380 q 52 393 52 388 l 52 560 q 125 864 52 767 q 344 968 197 961 q 463 990 422 971 q 503 1054 503 1009 l 610 1054 l 610 1050 q 549 903 614 945 q 356 858 485 861 q 212 804 262 855 q 166 654 162 752 l 168 650 q 251 720 201 693 q 358 747 301 747 m 340 642 q 227 566 264 642 q 189 375 189 490 l 189 357 q 227 165 189 240 q 342 90 265 90 q 455 165 417 90 q 494 357 494 240 l 494 375 q 455 566 494 490 q 340 642 417 642 z "},"в":{"ha":684,"x_min":85,"x_max":630,"o":"m 85 0 l 85 734 l 339 734 q 533 683 463 734 q 602 533 602 633 q 572 439 602 480 q 487 377 542 397 q 593 315 555 361 q 630 207 630 269 q 565 52 630 104 q 380 0 499 0 l 85 0 m 222 323 l 222 103 l 380 103 q 464 131 435 103 q 492 214 492 159 q 464 294 492 265 q 380 323 436 323 l 222 323 m 222 420 l 348 420 q 435 446 406 420 q 464 523 464 472 q 433 603 464 576 q 339 629 401 629 l 222 629 l 222 420 z "},"г":{"ha":507,"x_min":78,"x_max":494,"o":"m 494 627 l 216 627 l 216 0 l 78 0 l 78 734 l 494 734 l 494 627 z "},"д":{"ha":779,"x_min":45,"x_max":734,"o":"m 104 104 q 171 190 150 104 q 199 454 191 275 l 213 734 l 652 734 l 652 104 l 734 104 l 734 -241 l 596 -241 l 596 0 l 183 0 l 183 -241 l 45 -241 l 45 104 l 104 104 m 337 454 q 316 246 331 332 q 274 104 302 160 l 513 104 l 513 621 l 345 621 l 337 454 z "},"е":{"ha":633,"x_min":52,"x_max":588,"o":"m 345 -14 q 130 86 208 -14 q 52 347 52 186 l 52 379 q 130 644 52 541 q 332 747 207 747 q 523 659 457 747 q 588 420 588 570 l 588 342 l 190 342 q 230 160 190 230 q 354 90 271 90 q 454 108 412 90 q 533 161 497 126 l 578 75 q 481 12 541 37 q 345 -14 421 -14 m 332 642 q 237 586 272 642 q 193 440 201 531 l 452 440 l 452 456 q 423 590 452 538 q 332 642 393 642 z "},"ж":{"ha":926,"x_min":18,"x_max":907,"o":"m 572 313 l 530 313 l 530 0 l 393 0 l 393 313 l 353 313 l 193 0 l 18 0 l 245 396 l 33 734 l 205 734 l 358 431 l 393 431 l 393 734 l 530 734 l 530 431 l 567 431 l 720 734 l 891 734 l 680 396 l 907 0 l 731 0 l 572 313 z "},"з":{"ha":664,"x_min":59,"x_max":604,"o":"m 334 423 q 425 452 395 423 q 454 531 454 480 q 424 612 454 580 q 331 644 393 644 q 241 612 277 644 q 205 530 205 580 l 73 530 l 72 534 q 142 687 68 628 q 327 746 216 746 q 521 691 449 746 q 593 535 593 635 q 563 443 593 484 q 481 377 533 401 q 572 312 541 356 q 604 205 604 268 q 527 45 604 103 q 327 -13 450 -13 q 138 45 216 -13 q 62 210 59 102 l 64 214 l 195 214 q 232 124 195 161 q 332 87 269 87 q 431 121 395 87 q 466 208 466 155 q 432 296 466 268 q 334 325 399 325 l 224 325 l 224 423 l 334 423 z "},"и":{"ha":684,"x_min":78,"x_max":606,"o":"m 467 734 l 606 734 l 606 0 l 467 0 l 467 498 l 463 499 l 216 0 l 78 0 l 78 734 l 216 734 l 216 234 l 220 233 l 467 734 z "},"й":{"ha":684,"x_min":78,"x_max":606,"o":"m 467 734 l 606 734 l 606 0 l 467 0 l 467 498 l 463 499 l 216 0 l 78 0 l 78 734 l 216 734 l 216 234 l 220 233 l 467 734 m 532 1037 l 534 1033 q 484 903 536 953 q 342 852 431 852 q 199 903 252 852 q 150 1033 146 953 l 151 1037 l 254 1037 q 275 963 254 991 q 342 935 296 935 q 407 964 385 935 q 428 1037 428 992 l 532 1037 z "},"к":{"ha":673,"x_min":87,"x_max":658,"o":"m 288 310 l 225 310 l 225 0 l 87 0 l 87 734 l 225 734 l 225 427 l 279 427 l 465 734 l 637 734 l 396 391 l 658 0 l 477 0 l 288 310 z "},"л":{"ha":674,"x_min":18,"x_max":606,"o":"m 606 734 l 606 0 l 467 0 l 467 627 l 279 627 l 279 416 q 227 100 279 199 q 47 0 174 0 l 18 0 l 18 110 l 39 111 q 120 177 99 111 q 142 416 142 243 l 142 734 l 606 734 z "},"м":{"ha":907,"x_min":87,"x_max":814,"o":"m 448 168 l 452 168 l 641 734 l 814 734 l 814 0 l 675 0 l 675 484 l 671 484 l 498 0 l 404 0 l 229 488 l 225 487 l 225 0 l 87 0 l 87 734 l 261 734 l 448 168 z "},"н":{"ha":684,"x_min":78,"x_max":604,"o":"m 604 0 l 466 0 l 466 313 l 216 313 l 216 0 l 78 0 l 78 734 l 216 734 l 216 418 l 466 418 l 466 734 l 604 734 l 604 0 z "},"о":{"ha":684,"x_min":52,"x_max":631,"o":"m 52 375 q 129 643 52 538 q 341 747 206 747 q 554 643 476 747 q 631 375 631 538 l 631 357 q 554 89 631 193 q 342 -14 477 -14 q 129 89 206 -14 q 52 357 52 193 l 52 375 m 190 357 q 228 165 190 239 q 342 90 265 90 q 455 165 418 90 q 493 357 493 240 l 493 375 q 455 566 493 490 q 341 642 417 642 q 228 566 265 642 q 190 375 190 490 l 190 357 z "},"п":{"ha":684,"x_min":78,"x_max":606,"o":"m 606 0 l 467 0 l 467 627 l 216 627 l 216 0 l 78 0 l 78 734 l 606 734 l 606 0 z "},"р":{"ha":684,"x_min":79,"x_max":630,"o":"m 630 344 q 565 83 630 181 q 385 -14 500 -14 q 289 7 330 -14 q 218 70 247 28 l 218 -282 l 79 -282 l 79 734 l 197 734 l 210 646 q 283 721 239 695 q 384 747 326 747 q 565 641 500 747 q 630 358 630 534 l 630 344 m 492 358 q 455 562 492 483 q 347 640 419 640 q 269 615 300 640 q 218 546 237 589 l 218 176 q 269 113 237 135 q 347 90 300 90 q 456 159 420 90 q 492 344 492 229 l 492 358 z "},"с":{"ha":629,"x_min":51,"x_max":582,"o":"m 334 90 q 419 130 385 90 q 454 236 454 169 l 578 236 l 579 232 q 509 57 582 128 q 334 -14 437 -14 q 125 89 199 -14 q 51 353 51 193 l 51 379 q 125 643 51 539 q 334 747 199 747 q 513 673 444 747 q 580 480 582 599 l 578 477 l 454 477 q 421 596 454 550 q 334 642 388 642 q 223 567 257 642 q 189 379 189 492 l 189 353 q 222 164 189 238 q 334 90 256 90 z "},"т":{"ha":626,"x_min":39,"x_max":589,"o":"m 589 629 l 381 629 l 381 0 l 243 0 l 243 629 l 39 629 l 39 734 l 589 734 l 589 629 z "},"у":{"ha":612,"x_min":14,"x_max":598,"o":"m 288 253 l 299 203 l 303 203 l 447 734 l 598 734 l 336 -114 q 266 -243 311 -189 q 137 -296 221 -296 q 100 -293 120 -296 q 62 -284 81 -289 l 77 -182 q 97 -185 84 -184 q 118 -186 111 -186 q 182 -152 159 -186 q 220 -71 206 -118 l 245 5 l 14 734 l 164 734 l 288 253 z "},"ф":{"ha":1064,"x_min":52,"x_max":1009,"o":"m 52 358 q 117 641 52 534 q 298 747 181 747 q 389 727 349 747 q 458 669 429 707 l 458 1058 l 596 1058 l 596 664 q 667 726 626 704 q 762 747 709 747 q 944 641 880 747 q 1009 358 1009 534 l 1009 344 q 944 83 1009 181 q 764 -14 880 -14 q 668 6 709 -14 q 596 64 626 26 l 596 -282 l 458 -282 l 458 61 q 388 5 429 24 q 296 -14 347 -14 q 116 84 180 -14 q 52 344 52 182 l 52 358 m 871 358 q 834 562 871 483 q 725 642 798 642 q 647 616 679 642 q 596 546 614 590 l 596 178 q 647 113 615 136 q 726 90 680 90 q 835 160 799 90 q 871 344 871 229 l 871 358 m 189 344 q 224 159 189 228 q 332 90 258 90 q 407 112 376 90 q 458 175 438 134 l 458 553 q 407 618 439 594 q 332 642 376 642 q 224 563 259 642 q 189 358 189 484 l 189 344 z "},"х":{"ha":612,"x_min":24,"x_max":590,"o":"m 302 466 l 307 466 l 425 734 l 583 734 l 385 372 l 590 0 l 433 0 l 309 277 l 304 277 l 181 0 l 24 0 l 228 372 l 30 734 l 186 734 l 302 466 z "},"ц":{"ha":725,"x_min":78,"x_max":687,"o":"m 78 734 l 216 734 l 216 104 l 467 104 l 467 734 l 606 734 l 606 104 l 687 104 l 687 -239 l 549 -239 l 549 0 l 78 0 l 78 734 z "},"ч":{"ha":673,"x_min":73,"x_max":595,"o":"m 595 0 l 456 0 l 456 266 q 398 253 428 257 q 340 248 369 248 q 142 315 212 248 q 73 526 73 382 l 73 734 l 211 734 l 211 526 q 242 392 211 431 q 340 353 273 353 q 398 358 370 353 q 456 373 427 363 l 456 734 l 595 734 l 595 0 z "},"ш":{"ha":980,"x_min":78,"x_max":898,"o":"m 216 734 l 216 104 l 419 104 l 419 734 l 557 734 l 557 104 l 760 104 l 760 734 l 898 734 l 898 0 l 78 0 l 78 734 l 216 734 z "},"щ":{"ha":1051,"x_min":78,"x_max":1008,"o":"m 216 734 l 216 104 l 419 104 l 419 734 l 557 734 l 557 104 l 760 104 l 760 734 l 898 734 l 898 43 l 1008 43 l 1008 -174 l 876 -174 l 876 0 l 78 0 l 78 734 l 216 734 z "},"ъ":{"ha":762,"x_min":21,"x_max":755,"o":"m 21 734 l 360 734 l 360 462 l 500 462 q 687 398 618 462 q 755 233 755 334 q 687 65 755 130 q 500 0 618 0 l 222 0 l 222 629 l 21 629 l 21 734 m 360 356 l 360 104 l 500 104 q 588 140 559 104 q 616 230 616 175 q 588 319 616 282 q 500 356 559 356 l 360 356 z "},"ы":{"ha":973,"x_min":101,"x_max":960,"o":"m 239 462 l 379 462 q 566 398 498 462 q 634 233 634 334 q 566 65 634 130 q 379 0 498 0 l 101 0 l 101 734 l 239 734 l 239 462 m 960 0 l 823 0 l 823 734 l 960 734 l 960 0 m 239 356 l 239 104 l 379 104 q 467 140 438 104 q 496 230 496 175 q 467 319 496 282 q 379 356 438 356 l 239 356 z "},"ь":{"ha":666,"x_min":87,"x_max":621,"o":"m 226 462 l 366 462 q 552 398 484 462 q 621 233 621 334 q 552 65 621 130 q 366 0 484 0 l 87 0 l 87 734 l 226 734 l 226 462 m 226 356 l 226 104 l 366 104 q 453 140 425 104 q 482 230 482 175 q 453 319 482 282 q 366 356 425 356 l 226 356 z "},"э":{"ha":640,"x_min":53,"x_max":587,"o":"m 302 642 q 216 602 251 642 q 182 496 182 562 l 58 496 l 56 500 q 126 675 53 603 q 302 747 199 747 q 511 643 436 747 q 587 379 587 538 l 587 353 q 511 90 587 194 q 304 -14 436 -14 q 122 60 192 -14 q 56 252 53 134 l 58 256 l 182 256 q 215 136 182 182 q 304 90 249 90 q 408 156 372 90 q 448 324 444 222 l 243 324 l 243 418 l 448 418 q 406 579 441 517 q 302 642 370 642 z "},"ю":{"ha":981,"x_min":89,"x_max":975,"o":"m 227 422 l 396 422 q 483 657 407 568 q 684 747 559 747 q 897 643 819 747 q 975 375 975 538 l 975 357 q 897 89 975 193 q 686 -14 820 -14 q 481 77 558 -14 q 396 317 405 169 l 227 317 l 227 0 l 89 0 l 89 734 l 227 734 l 227 422 m 533 357 q 571 165 533 239 q 686 90 608 90 q 799 165 761 90 q 836 357 836 240 l 836 375 q 798 566 836 490 q 684 642 760 642 q 571 566 608 642 q 533 375 533 490 l 533 357 z "},"я":{"ha":683,"x_min":44,"x_max":595,"o":"m 595 734 l 595 0 l 457 0 l 457 280 l 330 280 l 187 0 l 44 0 l 199 302 q 103 382 136 328 q 69 505 69 435 q 138 670 69 606 q 324 734 206 734 l 595 734 m 208 503 q 235 415 208 452 q 316 379 263 379 l 457 379 l 457 629 l 324 629 q 237 592 267 629 q 208 503 208 555 z "},"ѐ":{"ha":633,"x_min":52,"x_max":588,"o":"m 345 -14 q 130 86 208 -14 q 52 347 52 186 l 52 379 q 130 644 52 541 q 332 747 207 747 q 523 659 457 747 q 588 420 588 570 l 588 342 l 190 342 q 230 160 190 230 q 354 90 271 90 q 454 108 412 90 q 533 161 497 126 l 578 75 q 481 12 541 37 q 345 -14 421 -14 m 332 642 q 237 586 272 642 q 193 440 201 531 l 452 440 l 452 456 q 423 590 452 538 q 332 642 393 642 m 386 869 l 266 869 l 109 1046 l 110 1049 l 269 1049 l 386 869 z "},"ё":{"ha":633,"x_min":52,"x_max":588,"o":"m 345 -14 q 130 86 208 -14 q 52 347 52 186 l 52 379 q 130 644 52 541 q 332 747 207 747 q 523 659 457 747 q 588 420 588 570 l 588 342 l 190 342 q 230 160 190 230 q 354 90 271 90 q 454 108 412 90 q 533 161 497 126 l 578 75 q 481 12 541 37 q 345 -14 421 -14 m 332 642 q 237 586 272 642 q 193 440 201 531 l 452 440 l 452 456 q 423 590 452 538 q 332 642 393 642 m 540 879 l 398 879 l 398 1004 l 540 1004 l 540 879 m 244 879 l 102 879 l 102 1004 l 244 1004 l 244 879 z "},"ђ":{"ha":684,"x_min":-30,"x_max":607,"o":"m 314 836 l 216 836 l 216 635 q 292 718 247 688 q 394 747 338 747 q 550 674 494 747 q 606 449 606 601 l 606 306 l 607 306 l 607 -50 q 553 -232 607 -168 q 401 -296 498 -296 q 363 -293 380 -296 q 326 -284 345 -290 l 334 -182 q 362 -188 345 -185 q 393 -191 379 -191 q 449 -154 429 -191 q 469 -50 469 -117 l 469 0 l 468 0 l 468 450 q 439 596 468 551 q 353 640 410 640 q 271 617 305 640 q 216 553 237 594 l 216 0 l 77 0 l 77 836 l -30 836 l -30 920 l 77 920 l 77 1058 l 216 1058 l 216 920 l 314 920 l 314 836 z "},"ѓ":{"ha":507,"x_min":78,"x_max":494,"o":"m 494 627 l 216 627 l 216 0 l 78 0 l 78 734 l 494 734 l 494 627 m 302 1031 l 460 1031 l 462 1028 l 298 851 l 182 851 l 302 1031 z "},"є":{"ha":640,"x_min":51,"x_max":582,"o":"m 334 90 q 419 130 385 90 q 454 236 454 169 l 578 236 l 579 232 q 509 57 582 128 q 334 -14 437 -14 q 125 89 199 -14 q 51 353 51 193 l 51 379 q 125 643 51 539 q 334 747 199 747 q 513 673 444 747 q 580 480 582 599 l 578 477 l 454 477 q 421 596 454 550 q 334 642 388 642 q 228 577 263 642 q 189 412 193 513 l 400 412 l 400 317 l 189 317 q 228 153 194 216 q 334 90 262 90 z "},"ѕ":{"ha":612,"x_min":43,"x_max":563,"o":"m 427 185 q 399 257 427 228 q 290 321 370 286 q 120 414 176 364 q 64 543 64 465 q 132 688 64 628 q 309 747 200 747 q 492 682 422 747 q 558 524 561 616 l 557 519 l 424 519 q 393 609 424 572 q 309 647 362 647 q 227 617 256 647 q 197 549 197 588 q 223 483 197 507 q 332 420 248 458 q 505 326 447 380 q 563 192 563 273 q 493 43 563 100 q 309 -14 422 -14 q 114 55 185 -14 q 47 216 43 123 l 48 220 l 176 220 q 217 117 179 149 q 311 85 254 85 q 396 114 366 85 q 427 185 427 142 z "},"і":{"ha":315,"x_min":88,"x_max":227,"o":"m 227 0 l 88 0 l 88 734 l 227 734 l 227 0 m 227 926 l 88 926 l 88 1058 l 227 1058 l 227 926 z "},"ї":{"ha":319,"x_min":-59,"x_max":378,"o":"m 227 0 l 89 0 l 89 734 l 227 734 l 227 0 m 378 864 l 237 864 l 237 989 l 378 989 l 378 864 m 83 864 l -59 864 l -59 989 l 83 989 l 83 864 z "},"ј":{"ha":319,"x_min":-46,"x_max":232,"o":"m 232 734 l 232 -50 q 178 -232 232 -168 q 27 -296 123 -296 q -10 -293 7 -296 q -46 -284 -26 -290 l -38 -179 q -13 -186 -27 -183 q 14 -189 1 -189 q 73 -154 51 -189 q 94 -50 94 -120 l 94 734 l 232 734 m 229 928 l 90 928 l 90 1058 l 229 1058 l 229 928 z "},"љ":{"ha":1044,"x_min":30,"x_max":1000,"o":"m 606 734 l 606 462 l 745 462 q 932 398 865 462 q 1000 233 1000 334 q 932 65 1000 130 q 745 0 865 0 l 467 0 l 467 627 l 299 627 l 299 416 q 243 101 299 201 q 59 0 187 0 l 30 0 l 30 106 l 51 106 q 135 179 109 106 q 161 416 161 251 l 161 734 l 606 734 m 606 357 l 606 103 l 745 103 q 833 141 804 103 q 862 234 862 179 q 833 321 862 286 q 745 357 804 357 l 606 357 z "},"њ":{"ha":1043,"x_min":78,"x_max":999,"o":"m 216 449 l 466 449 l 466 734 l 604 734 l 604 462 l 744 462 q 931 398 863 462 q 999 233 999 334 q 931 65 999 130 q 744 0 863 0 l 466 0 l 466 345 l 216 345 l 216 0 l 78 0 l 78 734 l 216 734 l 216 449 m 604 357 l 604 103 l 744 103 q 832 141 803 103 q 861 234 861 179 q 832 321 861 286 q 744 357 804 357 l 604 357 z "},"ћ":{"ha":684,"x_min":4,"x_max":606,"o":"m 386 831 l 216 831 l 216 635 q 292 718 247 688 q 394 747 338 747 q 550 674 494 747 q 606 449 606 601 l 606 0 l 468 0 l 468 450 q 439 596 468 551 q 353 640 410 640 q 271 617 305 640 q 216 553 237 594 l 216 0 l 77 0 l 77 831 l 4 831 l 4 927 l 77 927 l 77 1058 l 216 1058 l 216 927 l 386 927 l 386 831 z "},"ќ":{"ha":673,"x_min":87,"x_max":658,"o":"m 288 310 l 225 310 l 225 0 l 87 0 l 87 734 l 225 734 l 225 427 l 279 427 l 465 734 l 637 734 l 396 391 l 658 0 l 477 0 l 288 310 m 379 1031 l 537 1031 l 539 1027 l 375 850 l 260 850 l 379 1031 z "},"ѝ":{"ha":684,"x_min":78,"x_max":606,"o":"m 467 734 l 606 734 l 606 0 l 467 0 l 467 498 l 463 499 l 216 0 l 78 0 l 78 734 l 216 734 l 216 234 l 220 233 l 467 734 m 408 854 l 288 854 l 130 1031 l 132 1034 l 291 1034 l 408 854 z "},"ў":{"ha":612,"x_min":14,"x_max":598,"o":"m 288 253 l 299 203 l 303 203 l 447 734 l 598 734 l 336 -114 q 266 -243 311 -189 q 137 -296 221 -296 q 100 -293 120 -296 q 62 -284 81 -289 l 77 -182 q 97 -185 84 -184 q 118 -186 111 -186 q 182 -152 159 -186 q 220 -71 206 -118 l 245 5 l 14 734 l 164 734 l 288 253 m 497 1037 l 498 1033 q 449 903 501 953 q 307 852 396 852 q 164 903 216 852 q 115 1033 111 953 l 116 1037 l 219 1037 q 240 963 219 991 q 307 935 261 935 q 371 964 350 935 q 393 1037 393 992 l 497 1037 z "},"џ":{"ha":684,"x_min":78,"x_max":606,"o":"m 216 734 l 216 104 l 467 104 l 467 734 l 606 734 l 606 0 l 412 0 l 412 -241 l 273 -241 l 273 0 l 78 0 l 78 734 l 216 734 z "},"Ѡ":{"ha":1146,"x_min":67,"x_max":1086,"o":"m 644 970 q 714 994 677 985 q 793 1002 752 1002 q 1003 887 921 1002 q 1086 593 1086 773 l 1086 397 q 1001 100 1086 215 q 784 -14 916 -14 q 666 3 718 -14 q 576 50 614 20 q 487 3 538 20 q 370 -14 435 -14 q 152 100 237 -14 q 67 397 67 215 l 67 593 q 149 887 67 773 q 360 1002 231 1002 q 438 994 401 1002 q 509 970 475 985 l 475 867 q 424 888 453 881 q 362 896 395 896 q 249 811 292 896 q 205 594 205 726 l 205 397 q 251 176 205 262 q 370 90 296 90 q 457 111 425 90 q 507 161 490 132 l 507 393 l 391 393 l 391 494 l 762 494 l 762 393 l 646 393 l 646 161 q 695 111 663 132 q 784 90 727 90 q 902 176 856 90 q 947 397 947 262 l 947 594 q 904 811 947 726 q 791 896 861 896 q 728 888 757 896 q 677 867 700 881 l 644 970 z "},"ѡ":{"ha":845,"x_min":22,"x_max":815,"o":"m 295 220 l 309 146 l 313 146 l 332 220 l 397 469 l 327 734 l 467 734 l 568 220 l 581 154 l 585 154 l 589 169 q 656 423 637 274 q 673 734 675 572 l 815 734 q 763 351 808 534 q 640 0 718 168 l 520 0 l 450 267 l 446 267 l 365 0 l 247 0 l 22 734 l 165 734 l 295 220 z "},"Ѣ":{"ha":756,"x_min":-6,"x_max":709,"o":"m 376 751 l 229 751 l 229 600 l 407 600 q 628 517 547 600 q 709 302 709 434 q 628 84 709 168 q 407 0 547 0 l 91 0 l 91 751 l -6 751 l -6 847 l 91 847 l 91 987 l 229 987 l 229 847 l 376 847 l 376 751 m 229 494 l 229 104 l 407 104 q 530 162 488 104 q 572 303 572 219 q 530 439 572 384 q 407 494 488 494 l 229 494 z "},"ѣ":{"ha":666,"x_min":-9,"x_max":621,"o":"m 393 743 l 226 743 l 226 462 l 366 462 q 552 398 484 462 q 621 233 621 334 q 552 65 621 130 q 366 0 484 0 l 87 0 l 87 743 l -9 743 l -9 839 l 87 839 l 87 1059 l 226 1059 l 226 839 l 393 839 l 393 743 m 226 356 l 226 104 l 366 104 q 453 140 425 104 q 482 230 482 175 q 453 319 482 282 q 366 356 425 356 l 226 356 z "},"Ѥ":{"ha":1078,"x_min":107,"x_max":1034,"o":"m 732 436 l 523 436 l 523 357 q 574 159 523 228 q 718 91 625 91 q 852 140 807 91 q 897 298 897 189 l 1029 298 l 1030 294 q 949 67 1033 148 q 718 -14 865 -14 q 475 84 566 -14 q 385 357 385 181 l 385 436 l 245 436 l 245 0 l 107 0 l 107 987 l 245 987 l 245 541 l 385 541 l 385 631 q 474 904 385 806 q 713 1002 563 1002 q 949 924 864 1002 q 1031 695 1034 846 l 1029 691 l 897 691 q 851 847 897 797 q 713 897 805 897 q 572 828 622 897 q 523 633 523 760 l 523 541 l 732 541 l 732 436 z "},"ѥ":{"ha":906,"x_min":87,"x_max":871,"o":"m 637 323 l 478 323 q 516 154 481 218 q 623 90 551 90 q 708 130 674 90 q 743 236 743 169 l 867 236 l 868 232 q 798 57 871 128 q 623 -14 726 -14 q 421 80 494 -14 q 340 323 347 174 l 225 323 l 225 0 l 87 0 l 87 734 l 225 734 l 225 418 l 341 418 q 423 655 350 564 q 623 747 496 747 q 802 673 733 747 q 869 480 871 599 l 867 477 l 743 477 q 710 596 743 550 q 623 642 677 642 q 518 579 553 642 q 478 418 484 517 l 637 418 l 637 323 z "},"Ѧ":{"ha":762,"x_min":22,"x_max":759,"o":"m 530 296 l 449 296 l 449 0 l 326 0 l 326 296 l 252 296 l 165 0 l 22 0 l 325 987 l 459 987 l 759 0 l 616 0 l 530 296 m 282 400 l 500 400 l 393 766 l 389 766 l 282 400 z "},"ѧ":{"ha":662,"x_min":12,"x_max":641,"o":"m 435 209 l 379 209 l 379 0 l 271 0 l 271 209 l 216 209 l 152 0 l 12 0 l 259 734 l 392 734 l 641 0 l 500 0 l 435 209 m 245 306 l 405 306 l 341 511 l 327 572 l 323 572 l 308 511 l 245 306 z "},"Ѩ":{"ha":1095,"x_min":119,"x_max":1118,"o":"m 257 400 l 503 400 l 684 987 l 818 987 l 1118 0 l 975 0 l 888 296 l 808 296 l 808 0 l 684 0 l 684 296 l 610 296 l 524 0 l 380 0 l 471 297 l 257 297 l 257 0 l 119 0 l 119 987 l 257 987 l 257 400 m 641 400 l 859 400 l 752 766 l 748 766 l 641 400 z "},"ѩ":{"ha":939,"x_min":111,"x_max":944,"o":"m 249 306 l 418 306 l 562 734 l 695 734 l 944 0 l 804 0 l 739 209 l 682 209 l 682 0 l 574 0 l 574 209 l 519 209 l 455 0 l 315 0 l 385 210 l 249 210 l 249 0 l 111 0 l 111 734 l 249 734 l 249 306 m 548 306 l 708 306 l 644 511 l 630 572 l 626 572 l 611 511 l 548 306 z "},"Ѫ":{"ha":1036,"x_min":81,"x_max":955,"o":"m 651 541 l 659 541 q 880 471 804 541 q 955 248 955 402 l 955 0 l 817 0 l 817 248 q 780 393 817 352 q 659 435 742 435 l 595 435 l 592 427 l 592 0 l 454 0 l 454 435 l 377 435 q 257 393 294 435 q 220 248 220 352 l 220 0 l 81 0 l 81 248 q 156 471 81 402 q 377 541 231 541 l 398 541 l 164 987 l 885 987 l 651 541 m 525 561 l 681 882 l 369 882 l 525 561 z "},"ѫ":{"ha":884,"x_min":80,"x_max":804,"o":"m 80 0 l 80 122 q 142 334 80 266 q 323 408 204 401 l 151 734 l 741 734 l 568 407 q 743 331 683 399 q 804 122 804 262 l 804 0 l 665 0 l 665 122 q 634 265 665 224 q 534 306 603 306 l 515 306 l 513 302 l 513 0 l 375 0 l 375 306 l 349 306 q 249 265 280 306 q 218 122 218 224 l 218 0 l 80 0 m 444 428 l 448 429 l 543 636 l 347 636 l 444 428 z "},"Ѭ":{"ha":1375,"x_min":106,"x_max":1339,"o":"m 751 435 l 202 435 l 202 541 l 751 541 l 751 435 m 244 0 l 106 0 l 106 987 l 244 987 l 244 0 m 1036 541 l 1044 541 q 1264 471 1189 541 q 1339 248 1339 402 l 1339 0 l 1202 0 l 1202 248 q 1164 393 1202 352 q 1044 435 1126 435 l 980 435 l 977 427 l 977 0 l 838 0 l 838 435 l 762 435 q 642 393 679 435 q 604 248 604 352 l 604 0 l 466 0 l 466 248 q 541 471 466 402 q 762 541 616 541 l 783 541 l 549 987 l 1270 987 l 1036 541 m 909 561 l 1065 882 l 753 882 l 909 561 z "},"ѭ":{"ha":1192,"x_min":89,"x_max":1147,"o":"m 723 308 l 145 308 l 145 409 l 723 409 l 723 308 m 227 0 l 89 0 l 89 734 l 227 734 l 227 0 m 423 0 l 423 122 q 485 334 423 266 q 667 408 547 401 l 494 734 l 1084 734 l 911 407 q 1086 331 1026 399 q 1147 122 1147 262 l 1147 0 l 1008 0 l 1008 122 q 977 265 1008 224 q 878 306 946 306 l 858 306 l 856 302 l 856 0 l 718 0 l 718 306 l 692 306 q 592 265 623 306 q 562 122 562 224 l 562 0 l 423 0 m 787 428 l 791 429 l 886 636 l 690 636 l 787 428 z "},"Ѯ":{"ha":625,"x_min":30,"x_max":555,"o":"m 241 559 q 360 603 321 559 q 398 723 398 646 q 359 837 398 793 q 244 881 320 881 l 79 881 l 79 987 l 244 987 q 456 919 376 987 q 536 726 536 850 q 497 594 536 651 q 389 508 458 537 q 513 421 470 481 q 555 273 555 361 q 476 64 555 140 q 267 -11 397 -11 l 235 -11 q 176 -31 195 -11 q 158 -87 158 -51 q 185 -161 158 -132 q 247 -208 212 -191 l 202 -292 q 78 -212 125 -268 q 30 -77 31 -155 q 83 52 30 7 q 230 96 136 96 l 262 96 q 376 144 334 96 q 418 271 418 192 q 372 407 418 361 q 239 452 326 452 l 156 452 l 156 559 l 241 559 m 330 1187 l 408 1289 l 531 1289 l 531 1277 l 376 1114 l 284 1114 l 130 1276 l 130 1289 l 252 1289 l 330 1187 z "},"ѯ":{"ha":599,"x_min":35,"x_max":532,"o":"m 242 416 q 342 446 310 416 q 374 529 374 475 q 340 604 374 575 q 241 633 307 633 l 78 633 l 78 734 l 241 734 q 438 681 364 734 q 512 532 512 627 q 481 437 512 479 q 396 371 451 395 q 497 307 462 349 q 532 206 532 265 q 459 47 532 104 q 269 -11 387 -11 l 240 -11 q 178 -31 197 -11 q 159 -87 159 -51 q 184 -161 159 -132 q 243 -208 210 -191 l 199 -290 q 83 -207 130 -263 q 35 -77 36 -151 q 86 47 35 4 q 226 90 136 90 l 254 90 q 356 121 319 90 q 394 206 394 153 q 355 292 394 264 q 240 321 315 321 l 153 321 l 153 416 l 242 416 m 281 954 l 359 1055 l 482 1055 l 482 1044 l 327 881 l 235 881 l 81 1043 l 81 1055 l 203 1055 l 281 954 z "},"Ѱ":{"ha":855,"x_min":48,"x_max":800,"o":"m 492 344 l 496 342 q 617 425 573 354 q 661 614 661 496 l 661 987 l 800 987 l 800 614 q 716 346 800 446 q 492 230 632 245 l 492 0 l 354 0 l 354 229 q 131 345 214 244 q 48 614 48 446 l 48 987 l 186 987 l 186 614 q 230 427 186 498 q 350 344 274 357 l 354 345 l 354 987 l 492 987 l 492 344 z "},"ѱ":{"ha":871,"x_min":52,"x_max":822,"o":"m 498 733 l 498 105 l 503 104 q 640 202 596 121 q 684 393 684 282 q 664 562 682 477 q 615 734 646 646 l 749 734 q 802 580 782 663 q 822 393 822 496 q 744 117 822 227 q 498 -11 667 7 l 498 -313 l 360 -313 l 360 -9 q 133 111 213 9 q 52 401 52 212 l 52 734 l 191 734 l 191 400 q 235 194 191 267 q 356 105 280 121 l 360 106 l 360 733 l 498 733 z "},"Ѳ":{"ha":827,"x_min":66,"x_max":759,"o":"m 759 357 q 664 84 759 182 q 410 -14 569 -14 q 159 84 252 -14 q 66 357 66 182 l 66 629 q 159 903 66 804 q 409 1002 252 1002 q 664 903 568 1002 q 759 629 759 804 l 759 357 m 530 479 q 582 495 557 479 q 622 535 607 510 l 622 631 q 567 826 622 760 q 409 893 511 893 q 257 826 310 893 q 203 631 203 760 l 203 525 q 249 561 222 548 q 307 574 275 574 q 421 527 353 574 q 530 479 488 479 m 622 422 q 576 391 602 401 q 522 380 551 380 q 402 428 464 380 q 298 475 340 475 q 240 453 267 475 q 203 399 214 431 l 203 357 q 257 160 203 227 q 410 93 311 93 q 567 160 512 93 q 622 357 622 227 l 622 422 z "},"ѳ":{"ha":686,"x_min":52,"x_max":631,"o":"m 52 375 q 129 643 52 538 q 341 747 206 747 q 554 643 476 747 q 631 375 631 538 l 631 357 q 554 89 631 193 q 342 -14 477 -14 q 129 89 206 -14 q 52 357 52 193 l 52 375 m 428 367 q 467 382 449 367 q 491 423 485 398 q 446 581 484 520 q 341 642 408 642 q 231 573 268 642 q 194 402 194 504 l 197 399 q 226 426 207 415 q 268 436 245 436 q 350 401 301 436 q 428 367 398 367 m 256 353 q 215 336 233 353 q 193 293 197 319 q 239 145 201 201 q 342 90 276 90 q 448 153 412 90 q 488 313 485 216 l 485 316 q 456 292 475 301 q 416 283 437 283 q 331 318 375 283 q 256 353 286 353 z "},"Ѵ":{"ha":768,"x_min":15,"x_max":773,"o":"m 361 227 l 375 167 l 379 167 l 393 226 l 523 800 q 597 951 551 903 q 711 1000 644 1000 q 744 996 729 1000 q 773 984 759 992 l 760 882 q 748 887 757 884 q 732 889 739 889 q 682 866 702 889 q 650 785 662 842 l 444 0 l 311 0 l 15 987 l 162 987 l 361 227 z "},"ѵ":{"ha":613,"x_min":22,"x_max":618,"o":"m 282 220 l 293 165 l 297 165 l 309 220 l 381 566 q 450 703 407 659 q 557 747 494 747 q 589 743 574 747 q 618 730 604 739 l 604 629 q 592 634 601 631 q 576 636 584 636 q 536 616 553 636 q 510 555 518 596 l 356 0 l 235 0 l 22 734 l 165 734 l 282 220 z "},"Ѷ":{"ha":768,"x_min":15,"x_max":773,"o":"m 361 227 l 375 167 l 379 167 l 393 226 l 523 800 q 597 951 551 903 q 711 1000 644 1000 q 744 996 729 1000 q 773 984 759 992 l 760 882 q 748 887 757 884 q 732 889 739 889 q 682 866 702 889 q 650 785 662 842 l 444 0 l 311 0 l 15 987 l 162 987 l 361 227 m 334 1083 l 332 1080 l 218 1080 l 48 1256 l 50 1260 l 193 1260 l 334 1083 m 513 1080 l 401 1080 l 258 1260 l 399 1260 l 513 1080 z "},"ѷ":{"ha":613,"x_min":-10,"x_max":618,"o":"m 282 220 l 293 165 l 297 165 l 309 220 l 381 566 q 450 703 407 659 q 557 747 494 747 q 589 743 574 747 q 618 730 604 739 l 604 629 q 592 634 601 631 q 576 636 584 636 q 536 616 553 636 q 510 555 518 596 l 356 0 l 235 0 l 22 734 l 165 734 l 282 220 m 276 890 l 274 887 l 160 887 l -10 1063 l -8 1067 l 134 1067 l 276 890 m 455 887 l 342 887 l 199 1067 l 340 1067 l 455 887 z "},"Ѹ":{"ha":1438,"x_min":66,"x_max":1424,"o":"m 759 357 q 664 84 759 182 q 410 -14 569 -14 q 159 84 252 -14 q 66 357 66 182 l 66 629 q 159 903 66 804 q 409 1002 252 1002 q 664 903 568 1002 q 759 629 759 804 l 759 357 m 622 631 q 567 826 622 760 q 409 893 511 893 q 257 826 310 893 q 203 631 203 760 l 203 357 q 257 160 203 227 q 410 93 311 93 q 567 160 512 93 q 622 357 622 227 l 622 631 m 1114 253 l 1125 203 l 1129 203 l 1273 734 l 1424 734 l 1162 -114 q 1092 -243 1137 -189 q 963 -296 1047 -296 q 926 -293 946 -296 q 888 -284 907 -289 l 903 -182 q 923 -185 910 -184 q 944 -186 937 -186 q 1008 -152 985 -186 q 1046 -71 1032 -118 l 1071 5 l 840 734 l 990 734 l 1114 253 z "},"ѹ":{"ha":1296,"x_min":52,"x_max":1282,"o":"m 52 375 q 129 643 52 538 q 341 747 206 747 q 554 643 476 747 q 631 375 631 538 l 631 357 q 554 89 631 193 q 342 -14 477 -14 q 129 89 206 -14 q 52 357 52 193 l 52 375 m 190 357 q 228 165 190 239 q 342 90 265 90 q 455 165 418 90 q 493 357 493 240 l 493 375 q 455 566 493 490 q 341 642 417 642 q 228 566 265 642 q 190 375 190 490 l 190 357 m 972 253 l 983 203 l 987 203 l 1131 734 l 1282 734 l 1019 -114 q 949 -243 994 -189 q 821 -296 905 -296 q 784 -293 804 -296 q 745 -284 764 -289 l 761 -182 q 781 -185 768 -184 q 802 -186 794 -186 q 866 -152 842 -186 q 903 -71 890 -118 l 928 5 l 697 734 l 848 734 l 972 253 z "},"Ѻ":{"ha":827,"x_min":66,"x_max":759,"o":"m 468 811 l 359 811 l 359 1076 l 468 1076 l 468 811 m 469 -95 l 359 -95 l 359 176 l 469 176 l 469 -95 m 759 357 q 664 84 759 182 q 410 -14 569 -14 q 159 84 252 -14 q 66 357 66 182 l 66 629 q 159 903 66 804 q 409 1002 252 1002 q 664 903 568 1002 q 759 629 759 804 l 759 357 m 622 631 q 567 826 622 760 q 409 893 511 893 q 257 826 310 893 q 203 631 203 760 l 203 357 q 257 160 203 227 q 410 93 311 93 q 567 160 512 93 q 622 357 622 227 l 622 631 z "},"ѻ":{"ha":684,"x_min":52,"x_max":631,"o":"m 397 563 l 288 563 l 288 819 l 397 819 l 397 563 m 396 -85 l 287 -85 l 287 174 l 396 174 l 396 -85 m 52 375 q 129 643 52 538 q 341 747 206 747 q 554 643 476 747 q 631 375 631 538 l 631 357 q 554 89 631 193 q 342 -14 477 -14 q 129 89 206 -14 q 52 357 52 193 l 52 375 m 190 357 q 228 165 190 239 q 342 90 265 90 q 455 165 418 90 q 493 357 493 240 l 493 375 q 455 566 493 490 q 341 642 417 642 q 228 566 265 642 q 190 375 190 490 l 190 357 z "},"Ѽ":{"ha":1146,"x_min":67,"x_max":1086,"o":"m 656 970 q 721 994 686 985 q 793 1002 755 1002 q 1004 885 922 1002 q 1086 585 1086 768 l 1086 408 q 1001 103 1086 221 q 784 -14 916 -14 q 666 4 718 -14 q 577 53 614 22 q 487 4 538 22 q 370 -14 435 -14 q 152 103 237 -14 q 67 408 67 221 l 67 585 q 149 885 67 768 q 360 1002 231 1002 q 432 994 397 1002 q 498 970 467 985 l 465 867 q 418 888 444 881 q 362 896 392 896 q 249 809 292 896 q 205 586 205 722 l 205 408 q 251 179 205 268 q 370 90 296 90 q 458 112 426 90 q 508 165 491 134 l 508 191 l 646 191 l 646 165 q 694 112 662 134 q 784 90 727 90 q 902 179 857 90 q 948 408 948 269 l 948 586 q 905 809 948 722 q 791 896 861 896 q 735 888 760 896 q 690 867 709 881 l 656 970 m 857 1264 l 857 1187 l 838 1187 q 674 1234 762 1187 q 560 1280 585 1280 q 513 1258 530 1280 q 496 1198 496 1236 l 496 1185 l 421 1185 l 421 1209 q 457 1319 421 1280 q 559 1358 493 1358 q 687 1311 600 1358 q 840 1264 774 1264 l 857 1264 m 569 993 l 524 1029 l 557 1108 l 557 1204 l 662 1204 l 662 1117 l 569 993 z "},"ѽ":{"ha":981,"x_min":63,"x_max":925,"o":"m 557 717 q 612 738 583 730 q 675 745 642 745 q 855 643 785 745 q 925 381 925 541 l 925 346 q 852 86 925 186 q 666 -14 779 -14 q 569 3 612 -14 q 494 50 526 20 q 418 3 461 20 q 323 -14 376 -14 q 136 86 209 -14 q 63 346 63 186 l 63 381 q 134 643 63 541 q 314 745 204 745 q 376 738 347 745 q 432 717 406 730 l 399 615 q 360 633 381 627 q 316 640 340 640 q 233 568 264 640 q 201 382 201 496 l 201 346 q 235 162 201 235 q 323 90 269 90 q 388 111 365 90 q 425 163 412 132 l 425 192 l 564 192 l 564 163 q 600 111 576 132 q 666 90 623 90 q 753 162 720 90 q 787 346 787 234 l 787 382 q 755 568 787 496 q 673 640 724 640 q 627 633 648 640 q 590 615 606 627 l 557 717 m 783 1022 l 783 945 l 764 945 q 600 992 688 945 q 486 1038 511 1038 q 439 1016 456 1038 q 422 956 422 994 l 422 943 l 347 943 l 347 967 q 382 1077 347 1038 q 484 1116 418 1116 q 613 1069 526 1116 q 765 1022 700 1022 l 783 1022 m 495 753 l 449 790 l 484 869 l 483 962 l 587 962 l 587 878 l 495 753 z "},"Ѿ":{"ha":1147,"x_min":67,"x_max":1086,"o":"m 422 1147 l 422 1065 l 323 1065 l 323 1214 l 817 1214 l 817 1065 l 718 1065 l 718 1147 l 616 1147 l 616 1065 l 515 1065 l 515 1147 l 422 1147 m 677 867 q 728 888 700 881 q 791 896 757 896 q 904 811 861 896 q 947 594 947 726 l 947 397 q 902 176 947 262 q 784 90 856 90 q 695 111 727 90 q 646 161 663 132 l 646 393 l 762 393 l 762 494 l 391 494 l 391 393 l 507 393 l 507 161 q 457 111 490 132 q 370 90 425 90 q 251 176 296 90 q 205 397 205 262 l 205 594 q 249 811 205 726 q 362 896 292 896 q 424 888 395 896 q 475 867 453 881 l 509 970 q 438 994 475 985 q 360 1002 401 1002 q 149 887 231 1002 q 67 593 67 773 l 67 397 q 152 100 67 215 q 370 -14 237 -14 q 487 3 435 -14 q 576 50 538 20 q 666 3 614 20 q 784 -14 718 -14 q 1001 100 916 -14 q 1086 397 1086 215 l 1086 593 q 1003 887 1086 773 q 793 1002 921 1002 q 714 994 752 1002 q 644 970 677 985 l 677 867 z "},"ѿ":{"ha":845,"x_min":22,"x_max":815,"o":"m 292 936 l 292 848 l 193 849 l 193 1002 l 669 1002 l 669 848 l 570 848 l 570 936 l 476 936 l 476 848 l 376 848 l 376 936 l 292 936 m 165 734 l 22 734 l 247 0 l 365 0 l 446 267 l 450 267 l 520 0 l 640 0 q 763 351 718 168 q 815 734 808 534 l 673 734 q 656 423 675 572 q 589 169 637 274 l 585 154 l 581 154 l 568 220 l 467 734 l 327 734 l 397 469 l 332 220 l 313 146 l 309 146 l 295 220 l 165 734 z "},"Ҁ":{"ha":768,"x_min":66,"x_max":705,"o":"m 479 -251 l 341 -251 l 341 -10 q 141 124 216 10 q 66 405 66 237 l 66 581 q 156 884 66 766 q 392 1002 246 1002 q 622 915 538 1002 q 703 675 705 828 l 701 671 l 569 671 q 524 838 569 780 q 392 896 479 896 q 254 808 304 896 q 204 583 204 720 l 204 405 q 254 178 204 266 q 392 90 304 90 l 479 90 l 479 -251 z "},"ҁ":{"ha":647,"x_min":59,"x_max":592,"o":"m 427 -251 l 290 -251 l 290 -9 q 119 111 180 11 q 59 353 59 211 l 59 379 q 134 643 59 538 q 342 747 209 747 q 522 673 452 747 q 590 481 592 599 l 588 477 l 464 477 q 430 596 464 550 q 342 642 396 642 q 232 566 267 642 q 196 379 196 490 l 196 353 q 232 165 196 240 q 342 90 267 90 l 427 90 l 427 -251 z "},"҂":{"ha":752,"x_min":70,"x_max":686,"o":"m 354 299 l 522 182 l 482 106 l 312 221 l 206 0 l 107 0 l 238 270 l 70 386 l 110 462 l 281 346 l 400 601 l 231 717 l 273 794 l 441 678 l 551 910 l 648 910 l 514 630 l 686 514 l 642 438 l 475 553 l 354 299 z "},"҃":{"ha":594,"x_min":87,"x_max":500,"o":"m 185 897 l 185 812 l 87 813 l 87 964 l 403 964 l 402 1037 l 500 1036 l 500 897 l 185 897 z "},"҄":{"ha":621,"x_min":99,"x_max":541,"o":"m 117 962 q 271 1009 182 962 q 402 1056 359 1056 q 504 1017 467 1056 q 541 906 541 978 l 541 884 l 465 884 l 465 896 q 447 956 465 934 q 399 978 429 978 q 284 932 374 978 q 118 886 195 886 l 99 886 l 99 962 l 117 962 z "},"҅":{"ha":356,"x_min":108,"x_max":248,"o":"m 108 1017 l 108 1107 l 214 1107 l 214 1008 l 248 930 l 203 890 l 108 1017 z "},"҆":{"ha":375,"x_min":113,"x_max":253,"o":"m 158 890 l 113 930 l 147 1008 l 146 1107 l 253 1107 l 253 1017 l 158 890 z "}}}
